<svg width="112" height="112" viewBox="0 0 112 112" fill="none" xmlns="http://www.w3.org/2000/svg">
<g clip-path="url(#clip0_1234_2193)">
<rect width="112" height="112" rx="56" fill="white"/>
<mask id="mask0_1234_2193" style="mask-type:luminance" maskUnits="userSpaceOnUse" x="0" y="0" width="112" height="112">
<path d="M112 56C112 25.0721 86.9279 0 56 0C25.0721 0 0 25.0721 0 56C0 86.9279 25.0721 112 56 112C86.9279 112 112 86.9279 112 56Z" fill="white"/>
</mask>
<g mask="url(#mask0_1234_2193)">
<path d="M36.4096 123.702C36.6536 126.629 40.5561 145.248 40.4749 142.809C40.3935 140.369 39.4179 128.418 40.1497 124.84C40.8814 121.263 41.4505 116.466 41.4505 111.1C41.4505 105.734 37.7918 104.352 37.7918 104.352C37.7918 104.352 35.6778 103.132 35.6778 106.303C35.6778 109.474 36.1657 120.775 36.4096 123.702Z" fill="#CACACA"/>
<path d="M41.7741 116.139C41.7741 116.139 41.4489 118.578 42.9935 117.846C44.5384 117.114 54.2136 112.886 54.7827 108.496C54.8546 107.942 55.0018 107.358 54.933 107.114C54.8641 106.87 54.4574 105.894 54.4574 105.894C51.8212 102.495 50.4833 99.3068 48.1157 93.4546C47.9481 92.5803 47.7724 92.1645 46.3272 92.4788C42.0887 93.88 40.2243 95.7865 38.034 101.666C38.034 101.666 37.4649 102.967 38.034 103.455C38.6031 103.943 39.4163 104.349 39.4163 104.349C39.4163 104.349 41.6115 106.626 41.7741 109.228C41.9365 111.829 41.7741 116.139 41.7741 116.139Z" fill="#CACACA"/>
<path d="M28.3621 43.9469C31.2891 41.5891 35.2912 39.2714 36.8359 39.6781C38.3808 40.0845 39.7628 41.3854 39.7628 41.3854C39.7628 41.3854 42.0394 44.3935 41.2263 45.5319C40.4133 46.6701 39.0241 46.5889 36.1674 50.2075C33.3107 53.826 29.8247 54.5913 29.5808 54.6725C29.3368 54.754 25.2716 55.2419 24.7035 54.8006C24.1353 54.3594 24.7035 52.1586 24.7035 52.1586C24.7035 52.1586 25.4352 46.3047 28.3621 43.9469Z" fill="#CACACA"/>
<path d="M54.785 70.364C54.785 71.0957 55.6302 102.03 55.1915 103.699C54.7528 105.367 51.2234 98.0674 49.742 93.3732C48.2578 89.0736 47.0857 86.5188 46.8984 86.7874C44.2946 84.0723 43.9714 85.2427 43.8088 84.511C43.6462 83.7792 43.9714 79.8765 45.3537 77.356C46.7357 74.8356 48.0366 72.8844 48.9309 71.9901C49.8253 71.0957 49.9879 70.9331 51.7767 69.2258C53.5654 67.5182 52.9963 67.6809 53.484 68.0876C53.9719 68.494 54.785 69.6322 54.785 70.364Z" fill="#E74C3C"/>
<path d="M37.2227 85.8932C37.1413 87.3567 35.7593 98.7394 36.2472 98.902C36.7348 99.0647 39.2553 94.5114 42.4263 93.0479C45.5971 91.5845 45.9223 92.0724 47.0605 91.5033C48.1987 90.9342 44.7841 86.2997 44.1336 85.8932C43.4831 85.4868 42.4263 84.2671 42.4263 84.2671C42.4263 84.2671 45.2718 74.1041 45.9223 73.7788C46.5726 73.4538 41.9384 74.8358 40.1497 74.1041C38.3609 73.3723 36.2472 68.6567 35.7593 68.6567C35.2714 68.6567 37.7106 77.9254 38.0357 79.3888C38.3609 80.8523 38.0357 81.9907 38.0357 81.9907C37.7183 83.5146 37.3042 84.4298 37.2227 85.8932Z" fill="#CACACA"/>
<path d="M41.205 58.8202C41.205 58.8202 35.8391 57.3568 35.1885 57.0315C34.538 56.7065 34.7006 60.6902 34.7821 62.3977C34.8633 64.1052 35.9203 68.0077 36.9773 69.3898C38.0343 70.772 39.4977 73.6178 42.8311 73.5363C46.1645 73.4549 48.5224 71.1787 48.8476 70.772C49.1729 70.3653 52.181 67.6825 52.4251 66.3002C52.6689 64.9179 50.1485 62.2351 49.9858 61.9098C49.8234 61.5845 47.7094 58.0885 47.1403 58.2511C46.5712 58.4138 44.1378 58.9784 41.205 58.8202Z" fill="#E74C3C"/>
<path d="M37.3847 50.2843C36.5715 51.5037 34.7828 54.512 34.9454 55.4876C35.108 56.4634 38.6855 57.6828 40.5554 58.0895C42.4254 58.496 47.141 58.0895 46.816 57.2763C46.4907 56.4634 44.0515 53.1298 43.4824 51.9916C42.9133 50.8534 42.1815 47.2759 41.6124 46.7068C41.0433 46.1377 38.1976 49.0646 37.3847 50.2843Z" fill="#E74C3C"/>
<path d="M25.4352 55.6498C26.411 55.4059 29.3379 55.6498 31.2079 54.9992C33.0778 54.3489 32.4275 54.2675 33.1592 54.5116C33.891 54.7554 33.891 61.0157 33.891 61.0157C33.891 61.0157 33.7283 64.4308 33.1592 65.7314C32.5901 67.0322 30.7202 68.9024 30.0697 69.878C29.4191 70.8535 27.7118 76.6264 26.7363 76.545C25.7605 76.4636 24.6223 76.545 23.7279 75.8945C22.8335 75.2442 22.9148 72.8049 22.9148 71.2602C22.9148 69.7156 23.7279 67.0322 23.7279 65.9755C23.7279 64.9185 23.2401 64.4306 23.1587 63.1297C23.0775 61.8289 24.4596 55.8936 25.4352 55.6498Z" fill="#CACACA"/>
<path d="M11.9712 105.081C13.1573 104.918 16.3282 106.056 16.6534 106.625C16.9786 107.194 16.6534 107.926 16.9786 109.634C17.3039 111.341 16.9308 110.659 17.1747 112.528C17.4186 114.398 15.6299 116.919 15.6299 116.919C15.6299 116.919 12.7029 120.008 11.4834 119.927C10.2638 119.846 13.6786 118.383 13.1908 114.724C12.7029 111.065 12.2964 111.065 11.9712 111.065C11.646 111.065 10.4264 111.797 10.0199 111.797C9.61338 111.797 8.39382 111.309 7.66208 110.821C6.93033 110.333 4.2473 110.658 3.51554 110.577C2.78381 110.496 8.27897 105.487 9.41731 105.406C10.5556 105.325 10.7851 105.243 11.9712 105.081Z" fill="#CACACA"/>
<path d="M10.0199 125.374C11.0768 124.561 13.4347 120.09 13.4347 119.683C13.4347 119.276 11.646 120.578 11.3207 120.74C10.9955 120.902 10.5077 119.927 10.3451 119.683C10.1825 119.439 11.7273 118.22 11.8899 117.975C12.0525 117.731 12.7029 116.106 12.6216 115.374C12.5403 114.642 12.3777 111.959 11.7273 111.959C11.0768 111.959 10.5077 112.284 10.0199 112.365C9.53204 112.447 7.33684 111.389 6.9303 111.309C6.52379 111.228 4.24727 110.902 3.43422 111.309C2.62117 111.715 -0.305793 112.772 -0.549705 113.179C-0.793618 113.585 0.344642 114.723 1.07638 114.805C1.80812 114.886 3.92205 114.154 3.92205 114.154C3.92205 114.154 6.76769 113.341 6.36118 114.154C5.95464 114.967 1.56421 122.528 1.48291 122.935C1.4016 123.342 1.23899 124.317 1.80812 124.399C2.37724 124.48 2.37724 124.236 2.78378 124.399C3.19029 124.561 2.37724 126.35 2.37724 126.35C2.37724 126.35 2.45856 127.407 3.02768 127.407C3.59683 127.407 4.34406 126.902 4.65378 126.35C4.96351 125.797 5.0603 126.512 5.0603 126.512C5.0603 126.512 5.38552 127.244 5.71074 127.407C6.03596 127.569 6.76769 127.244 7.09291 127C7.41813 126.756 8.8003 124.642 8.8003 124.642C8.8003 124.642 8.96291 126.187 10.0199 125.374Z" fill="#CACACA"/>
<path d="M14.4591 90.0414C13.89 92.7243 10.15 103.863 10.2313 104.351C10.3126 104.839 12.5891 104.107 14.4591 104.839C16.3292 105.57 16.8983 106.14 17.4674 105.977C18.0365 105.814 25.9231 87.2769 26.2484 86.2201C26.5734 85.1631 28.85 79.2278 29.1753 78.3335C29.5006 77.4391 29.663 76.3009 29.1753 75.7318C28.6874 75.1627 27.594 78.1783 26.4922 78.0082C25.3904 77.8381 25.2252 76.7582 24.5408 76.5447C23.8565 76.3315 22.6708 77.0326 22.3457 76.5447C22.0205 76.0571 22.427 71.9105 21.8578 72.0731C21.2887 72.2358 17.4674 78.0896 16.8983 79.4717C16.3291 80.8539 16.2478 84.5126 15.9226 85.8134C15.5974 87.1143 15.0282 87.3583 14.4591 90.0414Z" fill="#CACACA"/>
<path d="M30.069 71.6662C30.069 71.6662 28.6155 73.8047 28.5243 74.9996C28.4331 76.1945 30.8812 72.7792 31.2886 71.6662C31.2886 71.6662 32.9961 67.7634 32.9961 67.4382C32.9961 67.1131 30.069 71.6662 30.069 71.6662Z" fill="#CACACA"/>
<path d="M51.1259 61.4217C53.4837 63.8609 55.0286 69.5522 55.0286 69.1457C55.0286 68.739 55.4351 47.1935 55.0286 45.3235C54.6219 43.4534 52.9146 38.8191 51.1259 38.0874C49.3372 37.3554 44.3777 37.6807 43.158 37.7621C41.9386 37.8433 36.6536 39.063 37.6294 39.2256C38.605 39.3882 40.9628 40.4452 41.9386 43.3722C42.9142 46.2991 43.158 49.5513 44.3777 51.9091C45.5973 54.267 48.7681 58.9826 51.1259 61.4217Z" fill="#E74C3C"/>
<path d="M76.0506 123.702C75.8067 126.629 71.904 145.248 71.9854 142.809C72.0666 140.369 73.0424 128.418 72.3107 124.84C71.579 121.263 71.0099 116.466 71.0099 111.1C71.0099 105.734 74.6685 104.352 74.6685 104.352C74.6685 104.352 76.7823 103.132 76.7823 106.303C76.7823 109.474 76.2946 120.775 76.0506 123.702Z" fill="#CACACA"/>
<path d="M70.6862 116.139C70.6862 116.139 71.0115 118.578 69.4666 117.846C67.9219 117.114 58.2465 112.886 57.6774 108.496C57.6058 107.942 57.4583 107.358 57.5274 107.114C57.5962 106.87 58.0027 105.894 58.0027 105.894C60.6389 102.495 61.9771 99.3068 64.3445 93.4546C64.512 92.5803 64.6879 92.1645 66.1332 92.4788C70.3717 93.88 72.2358 95.7865 74.4263 101.666C74.4263 101.666 74.9954 102.967 74.4263 103.455C73.8572 103.943 73.0441 104.349 73.0441 104.349C73.0441 104.349 70.8489 106.626 70.6862 109.228C70.5236 111.829 70.6862 116.139 70.6862 116.139Z" fill="#CACACA"/>
<path d="M84.0978 43.9469C81.1708 41.5891 77.1689 39.2714 75.624 39.6781C74.0794 40.0845 72.6971 41.3854 72.6971 41.3854C72.6971 41.3854 70.4207 44.3935 71.2336 45.5319C72.0468 46.6701 73.4358 46.5889 76.2925 50.2075C79.1495 53.826 82.6355 54.5913 82.8793 54.6725C83.1231 54.754 87.1885 55.2419 87.7564 54.8006C88.3246 54.3594 87.7564 52.1586 87.7564 52.1586C87.7564 52.1586 87.0247 46.3047 84.0978 43.9469Z" fill="#CACACA"/>
<path d="M57.6753 70.364C57.6753 71.0957 56.8302 102.03 57.2689 103.699C57.7075 105.367 61.2369 98.0674 62.7184 93.3732C64.2024 89.0736 65.3746 86.5188 65.5618 86.7874C68.1658 84.0723 68.4889 85.2427 68.6513 84.511C68.814 83.7792 68.4889 79.8765 67.1067 77.356C65.7244 74.8356 64.4236 72.8844 63.5292 71.9901C62.6348 71.0957 62.4722 70.9331 60.6837 69.2258C58.895 67.5182 59.4641 67.6809 58.9762 68.0876C58.4885 68.494 57.6753 69.6322 57.6753 70.364Z" fill="#E74C3C"/>
<path d="M75.2365 85.8932C75.3177 87.3567 76.6999 98.7394 76.212 98.902C75.7241 99.0647 73.2039 94.5114 70.0329 93.0479C66.8621 91.5845 66.5369 92.0724 65.3987 91.5033C64.2602 90.9342 67.6751 86.2997 68.3256 85.8932C68.9759 85.4868 70.0329 84.2671 70.0329 84.2671C70.0329 84.2671 67.1872 74.1041 66.5369 73.7788C65.8863 73.4538 70.5208 74.8358 72.3095 74.1041C74.0983 73.3723 76.212 68.6567 76.6999 68.6567C77.1878 68.6567 74.7486 77.9254 74.4233 79.3888C74.0983 80.8523 74.4233 81.9907 74.4233 81.9907C74.7409 83.5146 75.155 84.4298 75.2365 85.8932Z" fill="#CACACA"/>
<path d="M71.2542 58.8202C71.2542 58.8202 76.6201 57.3568 77.2707 57.0315C77.921 56.7065 77.7583 60.6902 77.6771 62.3977C77.5959 64.1052 76.5389 68.0077 75.4819 69.3898C74.4249 70.772 72.9614 73.6178 69.628 73.5363C66.2944 73.4549 63.9366 71.1787 63.6116 70.772C63.2863 70.3653 60.2779 67.6825 60.0341 66.3002C59.79 64.9179 62.3105 62.2351 62.4731 61.9098C62.6358 61.5845 64.7498 58.0885 65.3189 58.2511C65.8879 58.4138 68.3214 58.9784 71.2542 58.8202Z" fill="#E74C3C"/>
<path d="M75.0743 50.2843C75.8872 51.5037 77.676 54.512 77.5133 55.4876C77.3507 56.4634 73.7735 57.6828 71.9033 58.0895C70.0334 58.496 65.3177 58.0895 65.643 57.2763C65.9682 56.4634 68.4073 53.1298 68.9764 51.9916C69.5457 50.8534 70.2772 47.2759 70.8465 46.7068C71.4156 46.1377 74.2611 49.0646 75.0743 50.2843Z" fill="#E74C3C"/>
<path d="M87.0249 55.6498C86.0494 55.4059 83.1224 55.6498 81.2525 54.9992C79.3823 54.3489 80.0329 54.2675 79.3011 54.5116C78.5694 54.7554 78.5694 61.0157 78.5694 61.0157C78.5694 61.0157 78.732 64.4308 79.3011 65.7314C79.8702 67.0322 81.7402 68.9024 82.3907 69.878C83.041 70.8535 84.7485 76.6264 85.7241 76.545C86.6999 76.4636 87.8381 76.545 88.7325 75.8945C89.6268 75.2442 89.5454 72.8049 89.5454 71.2602C89.5454 69.7156 88.7325 67.0322 88.7325 65.9755C88.7325 64.9185 89.2201 64.4306 89.3016 63.1297C89.3828 61.8289 88.0007 55.8936 87.0249 55.6498Z" fill="#CACACA"/>
<path d="M100.49 105.081C99.3041 104.918 96.1333 106.056 95.8081 106.625C95.4828 107.194 95.8081 107.926 95.4828 109.634C95.1575 111.341 95.5306 110.659 95.2868 112.528C95.0427 114.398 96.8315 116.919 96.8315 116.919C96.8315 116.919 99.7584 120.008 100.978 119.927C102.198 119.846 98.7828 118.383 99.2707 114.724C99.7584 111.065 100.165 111.065 100.49 111.065C100.815 111.065 102.035 111.797 102.441 111.797C102.848 111.797 104.068 111.309 104.799 110.821C105.531 110.333 108.214 110.658 108.946 110.577C109.678 110.496 104.182 105.487 103.044 105.406C101.906 105.325 101.676 105.243 100.49 105.081Z" fill="#CACACA"/>
<path d="M102.44 125.374C101.384 124.561 99.0257 120.09 99.0257 119.683C99.0257 119.276 100.814 120.578 101.139 120.74C101.465 120.902 101.953 119.927 102.115 119.683C102.278 119.439 100.733 118.22 100.57 117.975C100.408 117.731 99.7575 116.106 99.8387 115.374C99.9199 114.642 100.082 111.959 100.733 111.959C101.384 111.959 101.953 112.284 102.44 112.365C102.928 112.447 105.123 111.389 105.53 111.309C105.937 111.228 108.213 110.902 109.026 111.309C109.839 111.715 112.766 112.772 113.01 113.179C113.254 113.585 112.116 114.723 111.384 114.805C110.652 114.886 108.538 114.154 108.538 114.154C108.538 114.154 105.693 113.341 106.099 114.154C106.506 114.967 110.896 122.528 110.977 122.935C111.059 123.342 111.221 124.317 110.652 124.399C110.083 124.48 110.083 124.236 109.676 124.399C109.27 124.561 110.083 126.35 110.083 126.35C110.083 126.35 110.002 127.407 109.433 127.407C108.864 127.407 108.116 126.902 107.807 126.35C107.497 125.797 107.4 126.512 107.4 126.512C107.4 126.512 107.075 127.244 106.75 127.407C106.424 127.569 105.693 127.244 105.367 127C105.042 126.756 103.66 124.642 103.66 124.642C103.66 124.642 103.497 126.187 102.44 125.374Z" fill="#CACACA"/>
<path d="M98.0023 90.0414C98.5714 92.7243 102.312 103.863 102.23 104.351C102.149 104.839 99.8723 104.107 98.0023 104.839C96.1322 105.57 95.5633 106.14 94.994 105.977C94.4249 105.814 86.5384 87.2769 86.2132 86.2201C85.8879 85.1631 83.6115 79.2278 83.2862 78.3335C82.961 77.4391 82.7983 76.3009 83.2862 75.7318C83.7741 75.1627 84.8675 78.1783 85.9693 78.0082C87.0709 77.8381 87.2363 76.7582 87.9205 76.5447C88.6048 76.3315 89.7906 77.0326 90.1159 76.5447C90.4409 76.0571 90.0345 71.9105 90.6036 72.0731C91.1729 72.2358 94.994 78.0896 95.5633 79.4717C96.1324 80.8539 96.2136 84.5126 96.5389 85.8134C96.8641 87.1143 97.4332 87.3583 98.0023 90.0414Z" fill="#CACACA"/>
<path d="M82.3912 71.6662C82.3912 71.6662 83.8448 73.8047 83.9361 74.9996C84.0273 76.1945 81.5792 72.7792 81.1715 71.6662C81.1715 71.6662 79.4642 67.7634 79.4642 67.4382C79.4642 67.1131 82.3912 71.6662 82.3912 71.6662Z" fill="#CACACA"/>
<path d="M61.3333 61.4217C58.9755 63.8609 57.4306 69.5522 57.4306 69.1457C57.4306 68.739 57.0241 47.1935 57.4306 45.3235C57.837 43.4534 59.5446 38.8191 61.3333 38.0874C63.122 37.3554 68.0815 37.6807 69.3009 37.7621C70.5206 37.8433 75.8053 39.063 74.8298 39.2256C73.8542 39.3882 71.4964 40.4452 70.5206 43.3722C69.545 46.2991 69.3009 49.5513 68.0815 51.9091C66.8619 54.267 63.6911 58.9826 61.3333 61.4217Z" fill="#E74C3C"/>
<path fill-rule="evenodd" clip-rule="evenodd" d="M54.7052 2.39479C53.6571 2.6047 52.1316 3.15611 51.3058 3.62378C49.6914 4.53828 47.7484 6.89206 47.1718 8.63228C46.7901 9.78422 46.4151 12.1266 46.4137 13.3692C46.4121 14.8337 46.8813 18.3134 47.288 19.8523C47.5139 20.7073 47.7085 22.2145 48.0174 25.5038C48.1518 26.9341 48.1861 27.033 48.7083 27.4932C49.0105 27.7596 49.304 27.9787 49.3607 27.9801C49.4172 27.9815 49.5154 27.4283 49.5789 26.7507C49.7296 25.1423 50.383 22.7251 50.9098 21.826C51.8686 20.1897 52.8789 19.4547 54.8695 18.9448C56.5322 18.5188 58.5284 18.8848 60.0948 19.903C61.5911 20.8754 62.6936 23.302 63.0455 26.3972C63.1447 27.2692 63.2702 27.9827 63.3241 27.9827C63.3782 27.9827 63.6851 27.7421 64.0059 27.4484C64.5713 26.9306 64.5925 26.8683 64.6912 25.4564C64.8282 23.4941 65.202 20.7398 65.5737 18.958C66.5266 14.3875 66.4746 11.1118 65.4057 8.39162C64.998 7.35436 63.8486 5.63166 63.0506 4.86187C62.1854 4.02721 60.6807 3.15774 59.4249 2.76668C58.3781 2.44064 55.5781 2.22014 54.7052 2.39479ZM44.3984 16.2754C44.075 16.6333 43.8104 16.9497 43.8104 16.9784C43.8104 17.007 44.0202 17.4641 44.2771 17.9942C44.5338 18.5243 45.0077 19.5149 45.3306 20.1954C45.6533 20.8761 46.0252 21.5225 46.1571 21.6317C46.4319 21.8599 47.0626 21.715 47.0626 21.4238C47.0626 21.1927 46.2408 17.8971 45.8495 16.5595C45.514 15.4128 45.2284 15.3568 44.3984 16.2754ZM66.7438 16.8847C66.3915 18.0482 66.1281 19.0871 65.7652 20.7466C65.5949 21.5251 65.8929 21.9973 66.3754 21.7143C66.6111 21.5761 68.8046 17.4237 68.8406 17.0478C68.8637 16.8057 67.669 15.6245 67.4009 15.6245C67.1988 15.6245 67.0241 15.9596 66.7438 16.8847ZM54.8679 19.6692C54.5547 19.7385 53.9978 19.9508 53.6298 20.1411C52.8911 20.5227 52.8722 20.578 52.6661 22.9419C52.5663 24.0884 52.3563 25.4664 51.9356 27.7389C51.6913 29.0591 51.3308 30.2556 51.0293 30.747C50.8608 31.0216 50.8158 31.048 50.89 30.8284C51.3448 29.4842 51.8604 25.6018 51.986 22.5773C52.0417 21.2337 52.0294 21.1698 51.7615 21.4122C51.3277 21.8046 50.6459 23.3597 50.3092 24.724C50.1328 25.4387 49.9644 26.8996 49.9051 28.2268C49.6797 33.2843 49.3327 33.8258 44.7048 36.3461C44.2442 36.5969 44.4309 36.6083 48.0382 36.5498C50.795 36.505 51.9955 36.4261 52.3474 36.267C53.704 35.6531 54.7176 34.4103 55.3247 32.6172C55.6771 31.5763 56.1612 28.7429 56.1801 27.6103C56.1986 26.5008 56.4688 26.1048 56.4825 27.1672C56.4977 28.3637 56.9527 31.4729 57.2385 32.3374C57.628 33.5134 58.2643 34.6313 58.9148 35.2818C60.0721 36.4392 60.1979 36.4679 64.5255 36.5614C67.4021 36.6233 68.3811 36.5971 68.2967 36.4604C68.2339 36.3589 68.1126 36.2758 68.0267 36.2758C67.6818 36.2758 64.9775 34.6192 64.1928 33.9273C63.0709 32.938 62.8609 32.2763 62.6677 29.1209C62.4869 26.1674 62.3187 24.951 61.9372 23.8361C61.5683 22.7575 60.9709 21.5901 60.6531 21.3264C60.4275 21.139 60.3965 21.1837 60.3965 21.696C60.3965 22.729 60.9861 28.3789 61.163 29.0397C61.2108 29.2187 61.1954 29.3134 61.1289 29.2504C61.0622 29.1874 60.9418 28.7851 60.8608 28.356C60.3748 25.7737 60.0831 23.8107 59.9844 22.454C59.9223 21.6044 59.8092 20.7904 59.7326 20.645C59.6563 20.4997 59.2541 20.2211 58.8392 20.0261C58.0113 19.637 55.8784 19.4453 54.8679 19.6692Z" fill="#CACACA"/>
<path d="M54.7972 36.0766C53.4963 37.2962 52.7646 37.9467 52.602 37.9467C52.4393 37.9467 53.984 39.0037 54.7972 40.4672C55.6101 41.9304 56.2606 45.5079 56.2606 45.5079C56.2606 45.5079 56.9924 41.524 57.8867 40.3046C58.7811 39.0849 59.9193 38.1094 59.9193 37.9467C59.9193 37.7841 58.9437 37.3774 57.7241 36.0766C56.5045 34.776 56.5859 31.3609 56.2606 31.2797C55.9354 31.1985 56.098 34.8572 54.7972 36.0766Z" fill="#CACACA"/>
</g>
</g>
<defs>
<clipPath id="clip0_1234_2193">
<rect width="112" height="112" rx="56" fill="white"/>
</clipPath>
</defs>
</svg>
