<svg width="24" height="24" viewBox="0 0 24 24" fill="none" xmlns="http://www.w3.org/2000/svg">
<path d="M22.9173 16.9173C23.007 17.0069 23.0781 17.1134 23.1266 17.2305C23.1751 17.3477 23.2001 17.4733 23.2001 17.6001C23.2001 17.7269 23.1751 17.8524 23.1266 17.9696C23.0781 18.0868 23.007 18.1932 22.9173 18.2829L22.6829 18.5173C22.5932 18.6069 22.4868 18.6781 22.3696 18.7266C22.2525 18.7751 22.1269 18.8001 22.0001 18.8001C21.8733 18.8001 21.7477 18.7751 21.6305 18.7266C21.5134 18.6781 21.4069 18.6069 21.3173 18.5173L16.6829 13.8829C16.5932 13.7932 16.5221 13.6867 16.4735 13.5696C16.425 13.4524 16.4 13.3269 16.4 13.2C16.4 13.0732 16.425 12.9477 16.4735 12.8305C16.5221 12.7134 16.5932 12.6069 16.6829 12.5172L16.9173 12.2828C17.0069 12.1932 17.1134 12.122 17.2305 12.0735C17.3477 12.025 17.4733 12 17.6001 12C17.7269 12 17.8524 12.025 17.9696 12.0735C18.0868 12.122 18.1932 12.1932 18.2829 12.2828L22.9173 16.9173ZM21.0841 11.884C20.9944 11.794 20.8878 11.7226 20.7704 11.6738C20.653 11.6251 20.5272 11.6 20.4001 11.6C20.273 11.6 20.1471 11.6251 20.0298 11.6738C19.9124 11.7226 19.8058 11.794 19.7161 11.884L19.3681 12.236L22.9681 15.8361L23.3161 15.4841C23.4061 15.3943 23.4775 15.2877 23.5263 15.1704C23.575 15.053 23.6001 14.9271 23.6001 14.8001C23.6001 14.673 23.575 14.5471 23.5263 14.4297C23.4775 14.3124 23.4061 14.2058 23.3161 14.1161L21.0841 11.884ZM13.8829 16.6829C13.7932 16.5932 13.6867 16.5221 13.5696 16.4735C13.4524 16.425 13.3269 16.4 13.2 16.4C13.0732 16.4 12.9477 16.425 12.8305 16.4735C12.7134 16.5221 12.6069 16.5932 12.5172 16.6829L12.2828 16.9173C12.1932 17.0069 12.122 17.1134 12.0735 17.2305C12.025 17.3477 12 17.4733 12 17.6001C12 17.7269 12.025 17.8524 12.0735 17.9696C12.122 18.0868 12.1932 18.1932 12.2828 18.2829L16.9173 22.9173C17.0069 23.007 17.1134 23.0781 17.2305 23.1266C17.3477 23.1751 17.4733 23.2001 17.6001 23.2001C17.7269 23.2001 17.8524 23.1751 17.9696 23.1266C18.0868 23.0781 18.1932 23.007 18.2829 22.9173L18.5173 22.6829C18.6069 22.5932 18.6781 22.4868 18.7266 22.3696C18.7751 22.2525 18.8001 22.1269 18.8001 22.0001C18.8001 21.8733 18.7751 21.7477 18.7266 21.6305C18.6781 21.5134 18.6069 21.4069 18.5173 21.3173L13.8829 16.6829ZM23.8829 11.9516L23.2485 11.3172C23.1735 11.2423 23.0717 11.2001 22.9657 11.2001C22.8596 11.2001 22.7579 11.2423 22.6829 11.3172L22.1657 11.8344L23.3657 13.0344L23.8829 12.5172C23.9579 12.4422 24 12.3405 24 12.2344C24 12.1284 23.9579 12.0267 23.8829 11.9516ZM19.0345 17.3657L17.8345 16.1657L16.1657 17.8345L17.3657 19.0345L19.0345 17.3657ZM11.3172 22.6829C11.2423 22.7579 11.2001 22.8596 11.2001 22.9657C11.2001 23.0717 11.2423 23.1735 11.3172 23.2485L11.9516 23.8829C12.0267 23.9579 12.1284 24 12.2344 24C12.3405 24 12.4422 23.9579 12.5172 23.8829L13.0344 23.3657L11.8344 22.1657L11.3172 22.6829ZM12.8 8.80003H11.2V10.4H12.8V8.80003ZM10 3.60001C10.1061 3.60001 10.2079 3.55787 10.2829 3.48286C10.3579 3.40784 10.4 3.3061 10.4 3.20001V0.400001C10.4 0.293914 10.3579 0.192173 10.2829 0.117158C10.2079 0.0421429 10.1061 0 10 0C9.89395 0 9.79221 0.0421429 9.71719 0.117158C9.64218 0.192173 9.60003 0.293914 9.60003 0.400001V3.20001C9.60003 3.3061 9.64218 3.40784 9.71719 3.48286C9.79221 3.55787 9.89395 3.60001 10 3.60001ZM16.8001 8.80003H15.2001V10.4H16.8001V8.80003ZM4.40002 3.60001C4.5061 3.60001 4.60784 3.55787 4.68286 3.48286C4.75787 3.40784 4.80002 3.3061 4.80002 3.20001V0.400001C4.80002 0.293914 4.75787 0.192173 4.68286 0.117158C4.60784 0.0421429 4.5061 0 4.40002 0C4.29393 0 4.19219 0.0421429 4.11717 0.117158C4.04216 0.192173 4.00001 0.293914 4.00001 0.400001V3.20001C4.00001 3.3061 4.04216 3.40784 4.11717 3.48286C4.19219 3.55787 4.29393 3.60001 4.40002 3.60001ZM15.6001 3.60001C15.7061 3.60001 15.8079 3.55787 15.8829 3.48286C15.9579 3.40784 16.0001 3.3061 16.0001 3.20001V0.400001C16.0001 0.293914 15.9579 0.192173 15.8829 0.117158C15.8079 0.0421429 15.7061 0 15.6001 0C15.494 0 15.3922 0.0421429 15.3172 0.117158C15.2422 0.192173 15.2001 0.293914 15.2001 0.400001V3.20001C15.2001 3.3061 15.2422 3.40784 15.3172 3.48286C15.3922 3.55787 15.494 3.60001 15.6001 3.60001ZM20.0001 4.00001C19.9994 3.46977 19.7885 2.96143 19.4136 2.5865C19.0386 2.21156 18.5303 2.00064 18.0001 2.00001H16.8001V3.20001C16.8001 3.51827 16.6736 3.8235 16.4486 4.04854C16.2235 4.27359 15.9183 4.40002 15.6001 4.40002C15.2818 4.40002 14.9766 4.27359 14.7515 4.04854C14.5265 3.8235 14.4001 3.51827 14.4001 3.20001V2.00001H11.2V3.20001C11.2 3.51827 11.0736 3.8235 10.8486 4.04854C10.6235 4.27359 10.3183 4.40002 10 4.40002C9.68177 4.40002 9.37655 4.27359 9.1515 4.04854C8.92646 3.8235 8.80003 3.51827 8.80003 3.20001V2.00001H5.60002V3.20001C5.60002 3.51827 5.47359 3.8235 5.24855 4.04854C5.0235 4.27359 4.71828 4.40002 4.40002 4.40002C4.08175 4.40002 3.77653 4.27359 3.55148 4.04854C3.32644 3.8235 3.20001 3.51827 3.20001 3.20001V2.00001H2.00001C1.46977 2.00064 0.961427 2.21156 0.58649 2.5865C0.211554 2.96143 0.000635145 3.46977 0 4.00001V5.60002H20.0001V4.00001ZM3.20001 14.4001H4.80002V12.8H3.20001V14.4001ZM15.2001 12.8V14.4001H16.0773C15.771 14.0755 15.6003 13.6463 15.6001 13.2C15.6014 13.0652 15.6182 12.931 15.6501 12.8H15.2001ZM3.20001 18.4001H4.80002V16.8001H3.20001V18.4001ZM11.2688 21.6001H2.00001C1.46977 21.5994 0.961427 21.3885 0.58649 21.0136C0.211554 20.6387 0.000635145 20.1303 0 19.6001V6.40002H20.0001V10.85C19.6771 10.9238 19.3815 11.0873 19.1473 11.3216L18.7977 11.6752C18.4646 11.3628 18.0228 11.1924 17.5661 11.2002C17.1095 11.2081 16.6738 11.3935 16.3517 11.7172L16.1173 11.9516C16.1021 11.9664 16.0917 11.9844 16.0773 12H14.8001C14.694 12 14.5922 12.0422 14.5172 12.1172C14.4422 12.1922 14.4001 12.294 14.4001 12.4V14.8001C14.4001 14.9061 14.4422 15.0079 14.5172 15.0829C14.5922 15.1579 14.694 15.2001 14.8001 15.2001H16.8689L17.2689 15.6001L15.6001 17.2689L14.4485 16.1173C14.2845 15.9533 14.0899 15.8232 13.8757 15.7345C13.6615 15.6457 13.4319 15.6 13.2 15.6C12.9682 15.6 12.7386 15.6457 12.5244 15.7345C12.3102 15.8232 12.1156 15.9533 11.9516 16.1173L11.7172 16.3517C11.3935 16.6738 11.2081 17.1095 11.2002 17.5661C11.1924 18.0228 11.3628 18.4646 11.6752 18.7977L11.3184 19.1505C10.9946 19.4722 10.8088 19.9074 10.8004 20.3638C10.7921 20.8202 10.9618 21.2619 11.2736 21.5953L11.2688 21.6001ZM14.4001 10.8C14.4001 10.9061 14.4422 11.0079 14.5172 11.0829C14.5922 11.1579 14.694 11.2 14.8001 11.2H17.2001C17.3061 11.2 17.4079 11.1579 17.4829 11.0829C17.5579 11.0079 17.6001 10.9061 17.6001 10.8V8.40003C17.6001 8.29394 17.5579 8.1922 17.4829 8.11719C17.4079 8.04217 17.3061 8.00003 17.2001 8.00003H14.8001C14.694 8.00003 14.5922 8.04217 14.5172 8.11719C14.4422 8.1922 14.4001 8.29394 14.4001 8.40003V10.8ZM10.4 10.8C10.4 10.9061 10.4422 11.0079 10.5172 11.0829C10.5922 11.1579 10.694 11.2 10.8 11.2H13.2C13.3061 11.2 13.4079 11.1579 13.4829 11.0829C13.5579 11.0079 13.6 10.9061 13.6 10.8V8.40003C13.6 8.29394 13.5579 8.1922 13.4829 8.11719C13.4079 8.04217 13.3061 8.00003 13.2 8.00003H10.8C10.694 8.00003 10.5922 8.04217 10.5172 8.11719C10.4422 8.1922 10.4 8.29394 10.4 8.40003V10.8ZM5.60002 16.4001C5.60002 16.294 5.55788 16.1922 5.48286 16.1172C5.40785 16.0422 5.30611 16.0001 5.20002 16.0001H2.80001C2.69392 16.0001 2.59218 16.0422 2.51717 16.1172C2.44215 16.1922 2.40001 16.294 2.40001 16.4001V18.8001C2.40001 18.9062 2.44215 19.0079 2.51717 19.0829C2.59218 19.1579 2.69392 19.2001 2.80001 19.2001H5.20002C5.30611 19.2001 5.40785 19.1579 5.48286 19.0829C5.55788 19.0079 5.60002 18.9062 5.60002 18.8001V16.4001ZM5.60002 12.4C5.60002 12.294 5.55788 12.1922 5.48286 12.1172C5.40785 12.0422 5.30611 12 5.20002 12H2.80001C2.69392 12 2.59218 12.0422 2.51717 12.1172C2.44215 12.1922 2.40001 12.294 2.40001 12.4V14.8001C2.40001 14.9061 2.44215 15.0079 2.51717 15.0829C2.59218 15.1579 2.69392 15.2001 2.80001 15.2001H5.20002C5.30611 15.2001 5.40785 15.1579 5.48286 15.0829C5.55788 15.0079 5.60002 14.9061 5.60002 14.8001V12.4ZM9.60003 16.4001C9.60003 16.294 9.55789 16.1922 9.48288 16.1172C9.40786 16.0422 9.30612 16.0001 9.20003 16.0001H6.80002C6.69394 16.0001 6.5922 16.0422 6.51718 16.1172C6.44217 16.1922 6.40002 16.294 6.40002 16.4001V18.8001C6.40002 18.9062 6.44217 19.0079 6.51718 19.0829C6.5922 19.1579 6.69394 19.2001 6.80002 19.2001H9.20003C9.30612 19.2001 9.40786 19.1579 9.48288 19.0829C9.55789 19.0079 9.60003 18.9062 9.60003 18.8001V16.4001ZM9.60003 12.4C9.60003 12.294 9.55789 12.1922 9.48288 12.1172C9.40786 12.0422 9.30612 12 9.20003 12H6.80002C6.69394 12 6.5922 12.0422 6.51718 12.1172C6.44217 12.1922 6.40002 12.294 6.40002 12.4V14.8001C6.40002 14.9061 6.44217 15.0079 6.51718 15.0829C6.5922 15.1579 6.69394 15.2001 6.80002 15.2001H9.20003C9.30612 15.2001 9.40786 15.1579 9.48288 15.0829C9.55789 15.0079 9.60003 14.9061 9.60003 14.8001V12.4ZM9.60003 8.40003C9.60003 8.29394 9.55789 8.1922 9.48288 8.11719C9.40786 8.04217 9.30612 8.00003 9.20003 8.00003H6.80002C6.69394 8.00003 6.5922 8.04217 6.51718 8.11719C6.44217 8.1922 6.40002 8.29394 6.40002 8.40003V10.8C6.40002 10.9061 6.44217 11.0079 6.51718 11.0829C6.5922 11.1579 6.69394 11.2 6.80002 11.2H9.20003C9.30612 11.2 9.40786 11.1579 9.48288 11.0829C9.55789 11.0079 9.60003 10.9061 9.60003 10.8V8.40003ZM10.8 15.2001H13.2C13.3061 15.2001 13.4079 15.1579 13.4829 15.0829C13.5579 15.0079 13.6 14.9061 13.6 14.8001V12.4C13.6 12.294 13.5579 12.1922 13.4829 12.1172C13.4079 12.0422 13.3061 12 13.2 12H10.8C10.694 12 10.5922 12.0422 10.5172 12.1172C10.4422 12.1922 10.4 12.294 10.4 12.4V14.8001C10.4 14.9061 10.4422 15.0079 10.5172 15.0829C10.5922 15.1579 10.694 15.2001 10.8 15.2001ZM17.9313 19.6001L19.0829 20.7517C19.1793 20.8504 19.2639 20.9601 19.3349 21.0785C19.5434 20.8926 19.7104 20.6649 19.825 20.4102C19.9396 20.1554 19.9993 19.8794 20.0001 19.6001V18.3313L19.6001 17.9313L17.9313 19.6001ZM12.8 12.8H11.2V14.4001H12.8V12.8ZM7.20003 18.4001H8.80003V16.8001H7.20003V18.4001ZM7.20003 14.4001H8.80003V12.8H7.20003V14.4001ZM7.20003 10.4H8.80003V8.80003H7.20003V10.4ZM11.884 19.7161C11.794 19.8058 11.7226 19.9124 11.6738 20.0298C11.6251 20.1471 11.6 20.273 11.6 20.4001C11.6 20.5272 11.6251 20.653 11.6738 20.7704C11.7226 20.8878 11.794 20.9944 11.884 21.0841L14.1161 23.3161C14.2058 23.4061 14.3124 23.4775 14.4297 23.5263C14.5471 23.575 14.673 23.6001 14.8001 23.6001C14.9271 23.6001 15.053 23.575 15.1704 23.5263C15.2877 23.4775 15.3943 23.4061 15.4841 23.3161L15.8361 22.9681L12.236 19.3681L11.884 19.7161Z" fill="#4B5563"/>
</svg>
