<svg width="24" height="24" viewBox="0 0 24 24" fill="none" xmlns="http://www.w3.org/2000/svg">
<path d="M5.1999 16H2.7999C2.57899 16 2.3999 16.1791 2.3999 16.4V18.8C2.3999 19.0209 2.57899 19.2 2.7999 19.2H5.1999C5.42082 19.2 5.5999 19.0209 5.5999 18.8V16.4C5.5999 16.1791 5.42082 16 5.1999 16Z" fill="#CACACA"/>
<path d="M13.1999 12H10.7999C10.579 12 10.3999 12.1791 10.3999 12.4V14.8C10.3999 15.0209 10.579 15.2 10.7999 15.2H13.1999C13.4208 15.2 13.5999 15.0209 13.5999 14.8V12.4C13.5999 12.1791 13.4208 12 13.1999 12Z" fill="#CACACA"/>
<path d="M9.1999 12H6.7999C6.57899 12 6.3999 12.1791 6.3999 12.4V14.8C6.3999 15.0209 6.57899 15.2 6.7999 15.2H9.1999C9.42082 15.2 9.5999 15.0209 9.5999 14.8V12.4C9.5999 12.1791 9.42082 12 9.1999 12Z" fill="#CACACA"/>
<path d="M9.1999 8H6.7999C6.57899 8 6.3999 8.17909 6.3999 8.4V10.8C6.3999 11.0209 6.57899 11.2 6.7999 11.2H9.1999C9.42082 11.2 9.5999 11.0209 9.5999 10.8V8.4C9.5999 8.17909 9.42082 8 9.1999 8Z" fill="#CACACA"/>
<path d="M9.1999 16H6.7999C6.57899 16 6.3999 16.1791 6.3999 16.4V18.8C6.3999 19.0209 6.57899 19.2 6.7999 19.2H9.1999C9.42082 19.2 9.5999 19.0209 9.5999 18.8V16.4C9.5999 16.1791 9.42082 16 9.1999 16Z" fill="#CACACA"/>
<path d="M17.1999 8H14.7999C14.579 8 14.3999 8.17909 14.3999 8.4V10.8C14.3999 11.0209 14.579 11.2 14.7999 11.2H17.1999C17.4208 11.2 17.5999 11.0209 17.5999 10.8V8.4C17.5999 8.17909 17.4208 8 17.1999 8Z" fill="#CACACA"/>
<path d="M23.364 16L23.6 15.764C23.7268 15.6375 23.8274 15.4873 23.896 15.3218C23.9647 15.1564 24 14.9791 24 14.8C24 14.6209 23.9647 14.4436 23.896 14.2781C23.8274 14.1127 23.7268 13.9625 23.6 13.836L23.364 13.6L23.764 13.2C23.9138 13.0497 23.998 12.8462 23.998 12.634C23.998 12.4218 23.9138 12.2183 23.764 12.068L23.132 11.436C22.9817 11.2862 22.7782 11.202 22.566 11.202C22.3538 11.202 22.1503 11.2862 22 11.436L21.6 11.836L21.364 11.6C21.1856 11.4303 20.9653 11.3108 20.7257 11.2539C20.4861 11.197 20.2357 11.2046 20 11.276V4C19.9998 3.46963 19.789 2.96105 19.414 2.58602C19.0389 2.21099 18.5304 2.00021 18 2H16.8V1.2C16.8 0.88174 16.6736 0.576515 16.4485 0.351472C16.2235 0.126428 15.9183 0 15.6 0C15.2817 0 14.9765 0.126428 14.7515 0.351472C14.5264 0.576515 14.4 0.88174 14.4 1.2V2H11.2V1.2C11.2 0.88174 11.0736 0.576515 10.8485 0.351472C10.6235 0.126428 10.3183 0 10 0C9.68174 0 9.37651 0.126428 9.15147 0.351472C8.92643 0.576515 8.8 0.88174 8.8 1.2V2H5.6V1.2C5.6 0.88174 5.47357 0.576515 5.24853 0.351472C5.02348 0.126428 4.71826 0 4.4 0C4.08174 0 3.77651 0.126428 3.55147 0.351472C3.32643 0.576515 3.2 0.88174 3.2 1.2V2H2C1.46963 2.00021 0.961047 2.21099 0.58602 2.58602C0.210994 2.96105 0.00021202 3.46963 0 4V19.6C0.00021202 20.1304 0.210994 20.6389 0.58602 21.014C0.961047 21.389 1.46963 21.5998 2 21.6H11.836L11.436 22C11.2862 22.1503 11.202 22.3538 11.202 22.566C11.202 22.7782 11.2862 22.9817 11.436 23.132L12.068 23.764C12.1421 23.8388 12.2302 23.8981 12.3274 23.9386C12.4245 23.9791 12.5287 24 12.634 24C12.7392 24 12.8435 23.9791 12.9406 23.9386C13.0378 23.8981 13.1259 23.8388 13.2 23.764L13.6 23.364L13.836 23.6C13.9625 23.7268 14.1127 23.8274 14.2781 23.896C14.4436 23.9647 14.6209 24 14.8 24C14.9791 24 15.1564 23.9647 15.3218 23.896C15.4873 23.8274 15.6375 23.7268 15.764 23.6L16 23.364L16.236 23.6C16.3625 23.7268 16.5127 23.8274 16.6781 23.896C16.8436 23.9647 17.0209 24 17.2 24C17.3791 24 17.5564 23.9647 17.7218 23.896C17.8873 23.8274 18.0375 23.7268 18.164 23.6L18.4 23.364C18.5268 23.2375 18.6274 23.0873 18.696 22.9218C18.7647 22.7564 18.8 22.5791 18.8 22.4C18.8 22.2209 18.7647 22.0436 18.696 21.8781C18.6274 21.7127 18.5268 21.5625 18.4 21.436L16.964 20L20 16.964L21.436 18.4C21.5625 18.5268 21.7127 18.6274 21.8781 18.696C22.0436 18.7647 22.2209 18.8 22.4 18.8C22.5791 18.8 22.7564 18.7647 22.9218 18.696C23.0873 18.6274 23.2375 18.5268 23.364 18.4L23.6 18.164C23.7268 18.0375 23.8274 17.8873 23.896 17.7218C23.9647 17.5564 24 17.3791 24 17.2C24 17.0209 23.9647 16.8436 23.896 16.6781C23.8274 16.5127 23.7268 16.3625 23.6 16.236L23.364 16ZM15.2 1.2C15.2 1.09391 15.2421 0.992172 15.3172 0.917157C15.3922 0.842143 15.4939 0.8 15.6 0.8C15.7061 0.8 15.8078 0.842143 15.8828 0.917157C15.9579 0.992172 16 1.09391 16 1.2V3.2C16 3.30609 15.9579 3.40783 15.8828 3.48284C15.8078 3.55786 15.7061 3.6 15.6 3.6C15.4939 3.6 15.3922 3.55786 15.3172 3.48284C15.2421 3.40783 15.2 3.30609 15.2 3.2V1.2ZM9.6 1.2C9.6 1.09391 9.64214 0.992172 9.71715 0.917157C9.79217 0.842143 9.89391 0.8 10 0.8C10.1061 0.8 10.2078 0.842143 10.2828 0.917157C10.3579 0.992172 10.4 1.09391 10.4 1.2V3.2C10.4 3.30609 10.3579 3.40783 10.2828 3.48284C10.2078 3.55786 10.1061 3.6 10 3.6C9.89391 3.6 9.79217 3.55786 9.71715 3.48284C9.64214 3.40783 9.6 3.30609 9.6 3.2V1.2ZM4 1.2C4 1.09391 4.04214 0.992172 4.11716 0.917157C4.19217 0.842143 4.29391 0.8 4.4 0.8C4.50609 0.8 4.60783 0.842143 4.68284 0.917157C4.75786 0.992172 4.8 1.09391 4.8 1.2V3.2C4.8 3.30609 4.75786 3.40783 4.68284 3.48284C4.60783 3.55786 4.50609 3.6 4.4 3.6C4.29391 3.6 4.19217 3.55786 4.11716 3.48284C4.04214 3.40783 4 3.30609 4 3.2V1.2ZM15.2 23.036C15.0918 23.1381 14.9487 23.1949 14.8 23.1949C14.6513 23.1949 14.5082 23.1381 14.4 23.036L12.164 20.8C12.059 20.6934 12.0001 20.5497 12.0001 20.4C12.0001 20.2503 12.059 20.1066 12.164 20L12.4 19.764L15.436 22.8L15.2 23.036ZM17.836 22C17.941 22.1066 17.9999 22.2503 17.9999 22.4C17.9999 22.5497 17.941 22.6934 17.836 22.8L17.6 23.036C17.4918 23.1381 17.3487 23.1949 17.2 23.1949C17.0513 23.1949 16.9082 23.1381 16.8 23.036L12.164 18.4C12.059 18.2934 12.0001 18.1497 12.0001 18C12.0001 17.8503 12.059 17.7066 12.164 17.6L12.4 17.364C12.5066 17.259 12.6503 17.2001 12.8 17.2001C12.9497 17.2001 13.0934 17.259 13.2 17.364L17.836 22ZM15.2 18.236L13.764 16.8C13.5045 16.5516 13.1592 16.4129 12.8 16.4129C12.4408 16.4129 12.0955 16.5516 11.836 16.8L11.6 17.036C11.4732 17.1625 11.3726 17.3127 11.304 17.4781C11.2353 17.6436 11.2 17.8209 11.2 18C11.2 18.1791 11.2353 18.3564 11.304 18.5218C11.3726 18.6873 11.4732 18.8375 11.6 18.964L11.836 19.2L11.6 19.436C11.4731 19.5624 11.3724 19.7126 11.3038 19.8781C11.2351 20.0435 11.1998 20.2209 11.2 20.4C11.2021 20.536 11.225 20.6709 11.268 20.8H2C1.68203 20.799 1.37736 20.6723 1.15252 20.4475C0.927683 20.2226 0.800949 19.918 0.8 19.6V6.4H19.2V11.836L18.964 11.6C18.7045 11.3516 18.3592 11.2129 18 11.2129C17.6408 11.2129 17.2955 11.3516 17.036 11.6L16.8 11.836C16.7491 11.8869 16.7023 11.9417 16.66 12H14.8C14.694 12.0003 14.5924 12.0426 14.5175 12.1175C14.4426 12.1924 14.4003 12.294 14.4 12.4V14.8C14.4003 14.906 14.4426 15.0075 14.5175 15.0825C14.5924 15.1574 14.694 15.1997 14.8 15.2H17.2C17.306 15.1997 17.4075 15.1574 17.4825 15.0825C17.5574 15.0075 17.5997 14.906 17.6 14.8V14.564L18.236 15.2L15.2 18.236ZM23.036 17.6L22.8 17.836C22.6918 17.9381 22.5487 17.9949 22.4 17.9949C22.2513 17.9949 22.1082 17.9381 22 17.836L17.364 13.2C17.259 13.0934 17.2001 12.9497 17.2001 12.8C17.2001 12.6503 17.259 12.5066 17.364 12.4L17.6 12.164C17.7066 12.059 17.8503 12.0001 18 12.0001C18.1497 12.0001 18.2934 12.059 18.4 12.164L23.036 16.8C23.141 16.9066 23.1999 17.0503 23.1999 17.2C23.1999 17.3497 23.141 17.4934 23.036 17.6ZM23.036 15.2L22.8 15.436L19.764 12.4L20 12.164C20.1082 12.0619 20.2513 12.0051 20.4 12.0051C20.5487 12.0051 20.6918 12.0619 20.8 12.164L23.036 14.4C23.141 14.5066 23.1999 14.6503 23.1999 14.8C23.1999 14.9497 23.141 15.0934 23.036 15.2Z" fill="#CACACA"/>
<path d="M13.1999 8H10.7999C10.579 8 10.3999 8.17909 10.3999 8.4V10.8C10.3999 11.0209 10.579 11.2 10.7999 11.2H13.1999C13.4208 11.2 13.5999 11.0209 13.5999 10.8V8.4C13.5999 8.17909 13.4208 8 13.1999 8Z" fill="#CACACA"/>
<path d="M5.1999 12H2.7999C2.57899 12 2.3999 12.1791 2.3999 12.4V14.8C2.3999 15.0209 2.57899 15.2 2.7999 15.2H5.1999C5.42082 15.2 5.5999 15.0209 5.5999 14.8V12.4C5.5999 12.1791 5.42082 12 5.1999 12Z" fill="#CACACA"/>
</svg>
