<svg width="112" height="112" viewBox="0 0 112 112" fill="none" xmlns="http://www.w3.org/2000/svg">
<g clip-path="url(#clip0_1234_2199)">
<rect width="112" height="112" rx="56" fill="white"/>
<mask id="mask0_1234_2199" style="mask-type:luminance" maskUnits="userSpaceOnUse" x="0" y="0" width="112" height="112">
<path d="M112 56C112 25.0721 86.9279 0 56 0C25.0721 0 0 25.0721 0 56C0 86.9279 25.0721 112 56 112C86.9279 112 112 86.9279 112 56Z" fill="white"/>
</mask>
<g mask="url(#mask0_1234_2199)">
<path d="M45.1085 105.002C44.9734 107.899 51.125 110.775 52.1008 111.426C53.0763 112.076 54.6212 111.751 54.7024 111.507C54.7836 111.263 54.8651 88.4163 54.7024 87.1155C54.54 85.8147 54.7024 82.9689 51.8569 82.9689C49.0112 82.9689 48.3607 86.6276 48.3607 86.6276C46.0287 103.243 45.2438 102.106 45.1085 105.002Z" fill="#CACACA"/>
<path d="M47.3041 80.6913V87.6022C47.3041 86.8705 48.605 82.8865 50.3937 82.3174C52.1824 81.7486 53.7273 82.5613 53.9712 82.8865C54.215 83.2118 52.1012 78.0897 52.1824 76.9515C52.2636 75.813 53.5647 65.4061 53.7273 65.0809C53.8897 64.7556 53.3206 65.8938 52.6703 66.1379C52.0198 66.3819 52.1824 66.4631 50.3937 65.8126C48.605 65.1621 47.7106 62.4792 47.7106 62.4792C47.7106 62.4792 45.0277 62.8045 43.8893 62.3166C42.7511 61.8287 42.9952 62.0727 41.0438 59.7149C39.0924 57.3568 47.3041 78.2523 47.3041 80.6913Z" fill="#E74C3C"/>
<path d="M41.1238 57.6823C40.5661 48.5331 44.0808 36.5449 45.433 36.6245C46.7849 36.704 47.1403 39.7952 47.872 39.7955C48.6038 39.7955 51.1242 36.8683 51.3681 37.9253C51.6121 38.9823 51.4495 49.308 52.0186 49.7959C52.5877 50.2838 54.4576 59.4711 54.295 61.4224C54.1324 63.3738 53.3194 65.3249 52.3439 65.5688C51.3681 65.8126 50.6363 65.1623 50.0672 64.7558C49.4981 64.3491 48.0347 60.4466 47.5468 60.4466C47.0591 60.4466 46.413 61.7038 44.2946 61.4224C42.1761 61.1408 40.9367 57.6429 41.1238 57.6823Z" fill="#E74C3C"/>
<path d="M41.9374 37.2745C41.9374 38.1689 42.7504 39.795 42.913 40.1203C43.0757 40.4453 44.0514 36.4616 44.0514 36.4616C44.0514 36.4616 46.7343 28.6561 46.7343 27.6806C46.7343 26.705 47.5475 -2.72726 45.6775 -2.48336C43.8074 -2.23944 42.4253 -1.01987 41.9374 -0.694658C41.4495 -0.369447 40.3114 11.4197 40.474 13.0458C40.6366 14.6719 41.2871 24.1845 41.4495 25.0789C41.6122 25.9733 41.9374 36.3802 41.9374 37.2745Z" fill="#CACACA"/>
<path d="M49.3369 -4.67841C50.5566 -5.24758 53.3209 -7.76798 54.0526 -7.93059C54.7843 -8.0932 54.3779 -6.30451 54.3779 -6.30451L52.6703 7.11073L52.4265 21.6642L52.9144 31.9086L52.4265 37.6813C52.4265 37.6813 52.1012 39.3886 51.9386 39.3886C51.776 39.3886 51.9386 38.0065 51.9386 38.0065C51.9386 38.0065 51.4509 36.3804 50.8004 36.4616C50.1499 36.5428 48.1987 38.9821 47.792 38.5756C47.3856 38.1689 46.0035 35.242 45.6783 35.0794C45.353 34.917 47.2229 31.5021 47.6294 30.689C48.0361 29.876 48.1987 21.6642 47.9547 20.8512C47.7108 20.0381 47.9547 -0.857102 47.9547 -0.857102C47.9547 -0.857102 48.1173 -4.10924 49.3369 -4.67841Z" fill="#CACACA"/>
<path d="M36.4091 3.53483C36.6529 6.46183 40.5557 25.0806 40.4742 22.6414C40.393 20.2022 39.4172 8.25045 40.149 4.67306C40.8807 1.09567 41.45 -3.7013 41.45 -9.06738C41.45 -14.4335 37.7911 -15.8157 37.7911 -15.8157C37.7911 -15.8157 35.6774 -17.0352 35.6774 -13.8643C35.6774 -10.6935 36.1653 0.60784 36.4091 3.53483Z" fill="#CACACA"/>
<path d="M10.0199 5.20812C11.0768 4.39507 13.4346 -0.0763292 13.4346 -0.483208C13.4347 -0.890084 11.646 0.411498 11.3207 0.573751C10.9955 0.736004 10.5077 -0.238937 10.3451 -0.483208C10.1825 -0.727477 11.7273 -1.94633 11.8899 -2.1906C12.0525 -2.43488 12.7029 -4.06026 12.6216 -4.79234C12.5403 -5.52445 12.3777 -8.20678 11.7273 -8.20713C11.0768 -8.2075 10.5077 -7.88228 10.0199 -7.80061C9.53203 -7.71895 7.33683 -8.77662 6.93029 -8.85757C6.52378 -8.93851 4.24726 -9.2641 3.43421 -8.85757C2.62116 -8.45105 -0.3058 -7.3941 -0.549713 -6.98756C-0.793626 -6.58105 0.344635 -5.44278 1.07638 -5.36149C1.80812 -5.28017 3.92204 -6.0119 3.92204 -6.0119C3.92204 -6.0119 6.76768 -6.82495 6.36117 -6.0119C5.95463 -5.19888 1.5642 2.36245 1.4829 2.76897C1.40159 3.1755 1.23899 4.15114 1.80812 4.23246C2.37724 4.31375 2.37724 4.06985 2.78377 4.23246C3.19029 4.39507 2.37724 6.18375 2.37724 6.18375C2.37724 6.18375 2.45855 7.24073 3.02768 7.24073C3.59682 7.24073 4.34405 6.73608 4.65378 6.18375C4.9635 5.63145 5.06029 6.34636 5.06029 6.34636C5.06029 6.34636 5.38551 7.07812 5.71073 7.24073C6.03595 7.40332 6.76768 7.07812 7.0929 6.83419C7.41812 6.59029 8.8003 4.47636 8.8003 4.47636C8.8003 4.47636 8.96291 6.02114 10.0199 5.20812Z" fill="#CACACA"/>
<path d="M67.3489 105.002C67.4842 107.899 61.3324 110.775 60.3568 111.426C59.381 112.076 57.8361 111.751 57.7549 111.507C57.6737 111.263 57.5923 88.4163 57.7549 87.1155C57.9175 85.8147 57.7549 82.9689 60.6006 82.9689C63.4461 82.9689 64.0967 86.6276 64.0967 86.6276C66.4286 103.243 67.2135 102.106 67.3489 105.002Z" fill="#CACACA"/>
<path d="M65.1543 80.6913V87.6022C65.1543 86.8705 63.8535 82.8865 62.0648 82.3174C60.276 81.7486 58.7314 82.5613 58.4873 82.8865C58.2435 83.2118 60.3575 78.0897 60.276 76.9515C60.1948 75.813 58.894 65.4061 58.7314 65.0809C58.5687 64.7556 59.1378 65.8938 59.7884 66.1379C60.4387 66.3819 60.276 66.4631 62.0648 65.8126C63.8535 65.1621 64.7479 62.4792 64.7479 62.4792C64.7479 62.4792 67.4307 62.8045 68.5692 62.3166C69.7074 61.8287 69.4635 62.0727 71.4149 59.7149C73.3663 57.3568 65.1543 78.2523 65.1543 80.6913Z" fill="#E74C3C"/>
<path d="M71.3333 57.6823C71.8912 48.5331 68.3762 36.5449 67.0243 36.6245C65.6721 36.704 65.3168 39.7952 64.585 39.7955C63.8533 39.7955 61.3328 36.8683 61.089 37.9253C60.8452 38.9823 61.0078 49.308 60.4385 49.7959C59.8694 50.2838 57.9994 59.4711 58.1621 61.4224C58.3247 63.3738 59.1376 65.3249 60.1134 65.5688C61.089 65.8126 61.8207 65.1623 62.3898 64.7558C62.9589 64.3491 64.4224 60.4466 64.9103 60.4466C65.3982 60.4466 66.0441 61.7038 68.1625 61.4224C70.2809 61.1408 71.5204 57.6429 71.3333 57.6823Z" fill="#E74C3C"/>
<path d="M70.5203 37.2745C70.5203 38.1689 69.7071 39.795 69.5445 40.1203C69.3819 40.4453 68.4063 36.4616 68.4063 36.4616C68.4063 36.4616 65.7232 28.6561 65.7232 27.6806C65.7232 26.705 64.9103 -2.72726 66.7802 -2.48336C68.6501 -2.23944 70.0324 -1.01987 70.5203 -0.694658C71.008 -0.369447 72.1464 11.4197 71.9838 13.0458C71.8211 14.6719 71.1706 24.1845 71.008 25.0789C70.8456 25.9733 70.5203 36.3802 70.5203 37.2745Z" fill="#CACACA"/>
<path d="M63.1211 -4.67841C61.9015 -5.24758 59.1372 -7.76798 58.4054 -7.93059C57.6737 -8.0932 58.0802 -6.30451 58.0802 -6.30451L59.7877 7.11073L60.0315 21.6642L59.5436 31.9086L60.0315 37.6813C60.0315 37.6813 60.3568 39.3886 60.5194 39.3886C60.6821 39.3886 60.5194 38.0065 60.5194 38.0065C60.5194 38.0065 61.0071 36.3804 61.6576 36.4616C62.3082 36.5428 64.2593 38.9821 64.666 38.5756C65.0725 38.1689 66.4545 35.242 66.7798 35.0794C67.105 34.917 65.2351 31.5021 64.8284 30.689C64.4219 29.876 64.2593 21.6642 64.5034 20.8512C64.7472 20.0381 64.5034 -0.857102 64.5034 -0.857102C64.5034 -0.857102 64.3407 -4.10924 63.1211 -4.67841Z" fill="#CACACA"/>
<path d="M76.0485 3.53483C75.8044 6.46183 71.9019 25.0806 71.9831 22.6414C72.0645 20.2022 73.0401 8.25045 72.3084 4.67306C71.5766 1.09567 71.0075 -3.7013 71.0075 -9.06738C71.0075 -14.4335 74.6662 -15.8157 74.6662 -15.8157C74.6662 -15.8157 76.7802 -17.0352 76.7802 -13.8643C76.7802 -10.6935 76.2923 0.60784 76.0485 3.53483Z" fill="#CACACA"/>
<path d="M102.439 5.20812C101.382 4.39507 99.0245 -0.0763292 99.0245 -0.483208C99.0245 -0.890084 100.813 0.411498 101.138 0.573751C101.464 0.736004 101.951 -0.238937 102.114 -0.483208C102.277 -0.727477 100.732 -1.94633 100.569 -2.1906C100.407 -2.43488 99.7563 -4.06026 99.8375 -4.79234C99.9189 -5.52445 100.082 -8.20678 100.732 -8.20713C101.382 -8.2075 101.951 -7.88228 102.439 -7.80061C102.927 -7.71895 105.122 -8.77662 105.529 -8.85757C105.935 -8.93851 108.212 -9.2641 109.025 -8.85757C109.838 -8.45105 112.765 -7.3941 113.009 -6.98756C113.253 -6.58105 112.115 -5.44278 111.383 -5.36149C110.651 -5.28017 108.537 -6.0119 108.537 -6.0119C108.537 -6.0119 105.691 -6.82495 106.098 -6.0119C106.505 -5.19888 110.895 2.36245 110.976 2.76897C111.058 3.1755 111.22 4.15114 110.651 4.23246C110.082 4.31375 110.082 4.06985 109.675 4.23246C109.269 4.39507 110.082 6.18375 110.082 6.18375C110.082 6.18375 110.001 7.24073 109.431 7.24073C108.862 7.24073 108.115 6.73608 107.805 6.18375C107.496 5.63145 107.399 6.34636 107.399 6.34636C107.399 6.34636 107.074 7.07812 106.748 7.24073C106.423 7.40332 105.691 7.07812 105.366 6.83419C105.041 6.59029 103.659 4.47636 103.659 4.47636C103.659 4.47636 103.496 6.02114 102.439 5.20812Z" fill="#CACACA"/>
</g>
</g>
<defs>
<clipPath id="clip0_1234_2199">
<rect width="112" height="112" rx="56" fill="white"/>
</clipPath>
</defs>
</svg>
