<svg width="112" height="112" viewBox="0 0 112 112" fill="none" xmlns="http://www.w3.org/2000/svg">
<g clip-path="url(#clip0_1234_2192)">
<rect width="112" height="112" rx="56" fill="white"/>
<mask id="mask0_1234_2192" style="mask-type:luminance" maskUnits="userSpaceOnUse" x="0" y="0" width="112" height="112">
<path d="M112 56C112 25.0721 86.9279 0 56 0C25.0721 0 0 25.0721 0 56C0 86.9279 25.0721 112 56 112C86.9279 112 112 86.9279 112 56Z" fill="white"/>
</mask>
<g mask="url(#mask0_1234_2192)">
<path d="M54.8693 31.4634C53.7649 31.2268 53.8048 31.3754 54.2381 32.1732C55.3156 34.4545 55.7093 36.068 56.2102 39.2726C56.549 40.2131 56.7392 40.0174 57.078 39.2726C57.4215 36.3629 57.7607 34.7839 58.971 32.1732C59.5117 31.4363 59.3798 31.2676 58.2612 31.4634C57.0383 31.699 55.9736 31.6997 54.8693 31.4634Z" fill="#CACACA"/>
<path d="M53.9 115.529C53.9791 116.396 53.1897 143.611 52.7168 139.667C52.2438 135.723 36.5458 96.2815 39.8589 102.277C43.172 108.272 53.8207 114.661 53.9 115.529Z" fill="#CACACA"/>
<path d="M38.0459 138.562C38.0459 138.562 41.6745 163.569 42.2266 163.805C42.7789 164.041 47.1172 156.075 48.1427 151.578C49.1682 147.081 48.7739 134.777 48.5371 132.41C48.3005 130.042 39.6263 104.727 39.1503 102.829C38.6741 100.93 36.9553 97.475 36.6259 98.4113C36.2964 99.3477 34.4108 116.754 34.9694 115.923C35.193 123.231 35.6942 127.915 38.0459 138.562Z" fill="#CACACA"/>
<path d="M32.8697 63.9809C32.5542 64.9276 29.0045 75.7344 29.4777 76.1287C29.9511 76.5233 30.5032 75.2612 31.6864 72.8947C32.8697 70.528 34.0529 64.691 33.8952 64.2175C33.7374 63.7443 33.1851 63.0343 32.8697 63.9809Z" fill="#CACACA"/>
<path d="M28.8461 46.3118C31.6857 44.0242 35.2354 41.4211 36.7344 41.8154C38.2331 42.21 39.7318 43.8664 39.7318 43.8664C39.7318 43.8664 40.1261 44.3396 39.7318 45.6017C39.3374 46.8638 38.7851 49.3883 36.4187 52.3857C34.0522 55.3833 27.8994 57.4341 27.8994 57.4341C27.8994 57.4341 25.4541 58.775 24.902 59.4062C24.3497 60.0374 25.2964 54.2789 25.2964 54.2789C25.2964 54.2789 26.0064 48.5994 28.8461 46.3118Z" fill="#CACACA"/>
<path d="M23.6397 65.3198C22.9298 69.895 22.5354 85.3559 23.0876 84.6458C23.6397 83.936 26.5585 78.8085 27.5837 77.6253C28.6092 76.4423 29.6347 72.0246 30.2659 70.3682C30.8968 68.7117 32.3743 63.5051 32.7112 58.5358C32.7112 58.5358 32.7112 56.4062 30.6602 57.1949C28.6092 57.9838 27.2683 59.2459 27.2683 59.2459C27.2683 59.2459 24.3497 60.7446 23.6397 65.3198Z" fill="#CACACA"/>
<path d="M23.2456 85.4366C26.0066 81.0191 28.8463 76.6016 29.3984 77.4694C29.9507 78.3372 29.9507 80.0725 29.9507 80.0725C29.3508 82.3393 28.7506 83.7043 27.4265 86.2253C26.4397 90.4129 25.4781 92.5985 23.719 96.48C23.8079 96.0892 17.9535 110.6 17.645 111.073C17.3365 111.547 17.4873 107.918 17.645 106.577C17.8028 105.236 20.4848 89.8538 23.2456 85.4366Z" fill="#CACACA"/>
<path d="M17.0931 101.449C15.9098 103.184 11.5713 106.576 11.098 106.261C10.6247 105.945 13.3856 99.7924 13.3856 99.7924C14.3038 97.24 14.7529 95.4233 15.2788 90.5632C15.2788 90.5632 16.2253 84.9625 16.3042 84.3315C16.3832 83.7006 19.2229 77.7053 20.1695 76.8378C21.1161 75.97 21.1161 75.4966 21.7471 76.9955C22.3782 78.4942 22.3782 81.4919 22.3782 81.4919C22.3782 81.4919 22.2205 85.6725 20.9583 88.9856C19.6962 92.2987 18.2763 97.5837 18.2763 97.5837C18.2763 97.5837 18.2763 99.7136 17.0931 101.449Z" fill="#CACACA"/>
<path d="M12.18 107.69C12.9687 107.375 16.5974 102.957 16.9129 103.51C17.2285 104.062 15.9663 111.24 16.4396 112.581C16.9129 113.922 16.9918 113.528 17.2285 115.342C17.4651 117.156 15.7297 119.602 15.7297 119.602C15.7297 119.602 12.8899 122.599 11.7067 122.52C10.5235 122.441 13.8365 121.021 13.3632 117.472C12.8899 113.922 12.4955 113.922 12.18 113.922C11.8645 113.922 10.6812 114.632 10.2868 114.632C9.89242 114.632 8.70919 114.159 7.99925 113.685C7.28931 113.212 4.6862 113.527 3.97626 113.449C3.26632 113.37 8.47247 108.479 9.57689 108.4C10.6813 108.321 11.3913 108.006 12.18 107.69Z" fill="#CACACA"/>
<path d="M101.465 107.69C100.676 107.375 97.0475 102.957 96.7321 103.51C96.4166 104.062 97.6787 111.24 97.2055 112.581C96.7321 113.922 96.6532 113.528 96.4166 115.342C96.18 117.156 97.9153 119.602 97.9153 119.602C97.9153 119.602 100.755 122.599 101.938 122.52C103.122 122.441 99.8086 121.021 100.282 117.472C100.755 113.922 101.15 113.922 101.465 113.922C101.78 113.922 102.964 114.632 103.358 114.632C103.753 114.632 104.936 114.159 105.646 113.685C106.356 113.212 108.959 113.527 109.669 113.449C110.379 113.37 105.173 108.479 104.068 108.4C102.964 108.321 102.254 108.006 101.465 107.69Z" fill="#CACACA"/>
<path d="M55.3474 97.8875C55.3474 97.8875 55.5562 109.929 54.5587 110.639C53.561 111.349 52.0623 110.481 52.0623 110.481C50.3848 108.824 49.7359 106.732 48.0902 101.595C47.1049 96.7073 46.4135 93.7484 46.6982 90.2087C47.0192 89.7621 48.1199 89.6049 48.1199 89.6049C48.1199 89.6049 53.8764 89.0255 54.5883 91.3131C55.3 93.6005 55.1026 93.5162 55.3474 97.8875Z" fill="#CACACA"/>
<path d="M43.3767 88.9891C43.7773 98.4202 47.9463 106.402 48.8194 107.053C49.6928 107.705 45.7431 107.053 41.5623 102.084C37.3816 97.114 36.1195 92.3022 36.1195 92.3022C35.6034 91.2401 36.5293 81.5995 37.3816 82.3632C38.234 83.1269 38.2424 84.9732 40.4579 86.6229C42.6734 88.2723 41.1885 87.111 42.2723 87.9639C42.5558 88.1869 43.344 88.2215 43.3767 88.9891Z" fill="#CACACA"/>
<path d="M43.0715 81.0597C43.0152 85.4277 44.4873 85.2415 44.097 85.9504C43.7066 86.6593 42.3614 87.9225 40.2316 84.846C38.1019 81.7698 38.6006 81.8139 38.1019 81.0597C37.6031 80.3056 37.782 76.4071 36.9143 73.8829C36.0465 71.3587 36.5785 71.1841 36.2042 69.6234C35.8302 68.0624 36.3664 63.1143 38.5751 62.838C40.7839 62.5615 43.3081 64.3367 43.7024 65.4411C44.097 66.5455 43.8683 68.0472 43.7024 69.6234C43.5367 71.1995 43.5883 73.0926 43.3869 75.1436C43.1856 77.1946 43.1275 76.6915 43.0715 81.0597Z" fill="#CACACA"/>
<path d="M44.8854 43.4319C43.781 43.9051 41.9666 45.9561 40.6257 47.9283C39.2847 49.9004 37.219 52.3336 36.2082 54.5542C34.5438 56.3201 34.4988 56.5786 35.3407 57.473C36.1823 58.3671 36.1293 58.2617 42.0455 61.3382C47.9617 64.4144 54.6667 64.4935 55.0611 61.5748C55.4556 58.6562 55.0611 56.6841 55.0611 52.2666C55.0611 47.8492 54.9036 47.0605 53.2469 44.9306C51.5902 42.8008 45.9898 42.9585 44.8854 43.4319Z" fill="#E74C3C"/>
<path d="M45.9886 84.2128C46.1463 82.793 48.1185 79.6376 50.8004 80.111C52.4827 80.4078 52.9235 80.4874 53.0185 80.5056C53.1489 80.5098 54.6082 80.6013 55.0601 82.6352C55.5333 84.7651 55.0601 86.4215 55.0601 86.4215C55.0601 86.4215 55.3756 88.8669 52.2991 88.8669C49.2228 88.8669 49.3806 88.8669 47.3296 88.2359C45.2786 87.6048 45.8309 85.6329 45.9886 84.2128Z" fill="#CACACA"/>
<path d="M45.357 76.6416C45.5936 75.5372 47.7526 73.5653 49.3799 72.7764C51.0074 71.9875 51.1943 71.3566 52.4564 71.4354C53.7185 71.5143 54.694 71.5932 55.1675 73.723C55.6407 75.8527 55.1675 78.5348 55.1675 78.5348C55.1675 78.5348 55.5329 79.4812 52.4564 79.4812C49.3799 79.4812 49.1433 80.1913 47.2502 79.8756C45.357 79.5601 45.1204 77.7459 45.357 76.6416Z" fill="#CACACA"/>
<path d="M45.6731 69.7788C45.9097 68.6744 46.9642 66.7814 48.5917 65.9925C50.2192 65.2036 51.1159 64.5726 52.2961 64.5792C53.476 64.5859 53.798 64.0992 54.8233 65.3613C55.8488 66.6236 56.0065 68.5167 55.0072 69.391C54.0076 70.2655 54.5867 70.3311 52.6148 70.6465C50.6427 70.962 48.6705 73.0919 46.7775 72.7764C44.8842 72.4607 45.4365 70.8831 45.6731 69.7788Z" fill="#CACACA"/>
<path d="M48.7489 34.7554C48.0389 35.5443 37.4687 41.0659 38.3364 41.4603C39.2042 41.8548 48.7489 41.3025 50.8786 41.8548C53.0084 42.4069 53.7185 43.9847 53.7185 43.9847C55.093 45.9001 55.8483 45.3257 56.3215 43.7479C56.7947 42.1703 52.6141 30.4957 50.4842 29.5491C48.3544 28.6027 48.5912 28.6815 48.3544 29.9436C48.1178 31.2057 49.4587 33.9665 48.7489 34.7554Z" fill="#CACACA"/>
<path d="M59.7282 115.461C59.6489 116.328 60.4385 143.542 60.9114 139.598C61.3844 135.654 77.0821 96.2131 73.7693 102.208C70.4562 108.203 59.8073 114.593 59.7282 115.461Z" fill="#CACACA"/>
<path d="M75.5823 138.494C75.5823 138.494 71.9537 163.5 71.4014 163.736C70.8493 163.972 66.5107 156.006 65.4852 151.51C64.46 147.013 64.8543 134.708 65.0909 132.341C65.3275 129.974 74.0019 104.659 74.4779 102.76C74.9539 100.862 76.6726 97.4066 77.0021 98.343C77.3316 99.2794 79.2171 116.686 78.6588 115.855C78.4352 123.163 77.934 127.847 75.5823 138.494Z" fill="#CACACA"/>
<path d="M80.7583 63.9109C81.074 64.8576 84.6237 75.6644 84.1503 76.0587C83.6771 76.4531 83.1248 75.1912 81.9415 72.8245C80.7583 70.458 79.5751 64.6207 79.7328 64.1475C79.8908 63.6743 80.4428 62.9643 80.7583 63.9109Z" fill="#CACACA"/>
<path d="M84.7831 46.2411C81.9434 43.9535 78.3937 41.3504 76.895 41.7447C75.3963 42.1393 73.8974 43.7957 73.8974 43.7957C73.8974 43.7957 73.503 44.2692 73.8974 45.5313C74.2919 46.7934 74.844 49.3176 77.2105 52.315C79.5769 55.3126 85.7297 57.3636 85.7297 57.3636C85.7297 57.3636 88.175 58.7046 88.7273 59.3355C89.2794 59.9667 88.3328 54.2082 88.3328 54.2082C88.3328 54.2082 87.623 48.5287 84.7831 46.2411Z" fill="#CACACA"/>
<path d="M89.9871 65.2514C90.6971 69.8266 91.0915 85.2875 90.5394 84.5775C89.9871 83.8677 87.0686 78.7402 86.0431 77.5569C85.0176 76.3739 83.9921 71.9562 83.3611 70.2998C82.73 68.6434 81.2527 63.4368 80.9158 58.4675C80.9158 58.4675 80.9158 56.3378 82.9668 57.1265C85.0176 57.9154 86.3585 59.1775 86.3585 59.1775C86.3585 59.1775 89.2773 60.6762 89.9871 65.2514Z" fill="#CACACA"/>
<path d="M90.3812 85.3676C87.6204 80.9503 84.7807 76.5329 84.2284 77.4004C83.6764 78.2682 83.6764 80.0037 83.6764 80.0037C84.2763 82.2703 84.8764 83.6355 86.2006 86.1565C87.1871 90.3439 88.1489 92.5295 89.908 96.411C89.8191 96.0204 95.6734 110.531 95.9819 111.004C96.2904 111.478 96.1396 107.849 95.9819 106.508C95.8242 105.167 93.1422 89.785 90.3812 85.3676Z" fill="#CACACA"/>
<path d="M96.534 101.381C97.7172 103.116 102.056 106.508 102.529 106.192C103.002 105.877 100.241 99.7241 100.241 99.7241C99.3232 97.1716 98.8741 95.3549 98.3481 90.4948C98.3481 90.4948 97.4017 84.8941 97.3226 84.2632C97.2438 83.6322 94.4041 77.637 93.4575 76.7694C92.5108 75.9017 92.5108 75.4282 91.8799 76.9272C91.2487 78.4259 91.2487 81.4235 91.2487 81.4235C91.2487 81.4235 91.4065 85.6041 92.6686 88.9172C93.9309 92.2303 95.3507 97.5154 95.3507 97.5154C95.3507 97.5154 95.3507 99.6452 96.534 101.381Z" fill="#CACACA"/>
<path d="M58.2806 97.8168C58.2806 97.8168 58.0718 109.859 59.0695 110.569C60.067 111.279 61.5659 110.411 61.5659 110.411C63.2434 108.753 63.8923 106.662 65.5377 101.524C66.5233 96.6366 67.2147 93.6777 66.9298 90.1381C66.6087 89.6917 65.5081 89.5342 65.5081 89.5342C65.5081 89.5342 59.7515 88.9548 59.0399 91.2424C58.328 93.53 58.5256 93.4456 58.2806 97.8168Z" fill="#CACACA"/>
<path d="M70.2504 88.9203C69.8495 98.3514 65.6808 106.333 64.8074 106.984C63.9343 107.636 67.8839 106.984 72.0648 102.015C76.2454 97.0452 77.5075 92.2334 77.5075 92.2334C78.0236 91.1712 77.0978 81.5304 76.2454 82.2941C75.393 83.058 75.3844 84.9041 73.1691 86.5538C70.9536 88.2035 72.4383 87.0422 71.3547 87.8948C71.0712 88.1178 70.283 88.1526 70.2504 88.9203Z" fill="#CACACA"/>
<path d="M70.5567 80.9886C70.613 85.3566 69.1411 85.1704 69.5315 85.8793C69.9216 86.5881 71.2668 87.8514 73.3966 84.7749C75.5265 81.6984 75.0276 81.7427 75.5265 80.9886C76.0251 80.2345 75.8462 76.3359 76.7139 73.8117C77.5817 71.2875 77.0499 71.113 77.424 69.552C77.798 67.9912 77.2618 63.0432 75.0531 62.7667C72.8443 62.4904 70.3201 64.2654 69.9258 65.3697C69.5315 66.4741 69.7599 67.9758 69.9258 69.552C70.0915 71.1282 70.0399 73.0214 70.2413 75.0724C70.4429 77.1232 70.5007 76.6204 70.5567 80.9886Z" fill="#CACACA"/>
<path d="M68.7428 43.3636C69.8472 43.8368 71.6613 45.8878 73.0023 47.8599C74.3435 49.8321 76.4092 52.2653 77.4198 54.4859C79.0844 56.2518 79.1292 56.5103 78.2875 57.4046C77.4459 58.2988 77.4986 58.1933 71.5825 61.2698C65.6663 64.3461 58.9615 64.4252 58.5669 61.5064C58.1726 58.5879 58.5669 56.6158 58.5669 52.1983C58.5669 47.7811 58.7246 46.9921 60.3813 44.8623C62.038 42.7324 67.6384 42.8902 68.7428 43.3636Z" fill="#E74C3C"/>
<path d="M67.6373 84.1439C67.4795 82.7238 65.5074 79.5687 62.8255 80.0419C61.1431 80.3389 60.7024 80.4185 60.6074 80.4367C60.477 80.4407 59.0177 80.5324 58.5657 82.5661C58.0925 84.696 58.5657 86.3526 58.5657 86.3526C58.5657 86.3526 58.2503 88.798 61.3265 88.798C64.403 88.798 64.2453 88.798 66.2963 88.1668C68.3471 87.5359 67.795 85.5637 67.6373 84.1439Z" fill="#CACACA"/>
<path d="M68.2722 76.5709C68.0356 75.4665 65.8768 73.4946 64.2493 72.7057C62.6218 71.9168 62.4349 71.2859 61.1728 71.3648C59.9107 71.4436 58.9351 71.5225 58.4619 73.6524C57.9885 75.7822 58.4619 78.4642 58.4619 78.4642C58.4619 78.4642 58.0965 79.4108 61.1728 79.4108C64.2493 79.4108 64.4859 80.1206 66.3791 79.8051C68.2722 79.4894 68.509 77.6753 68.2722 76.5709Z" fill="#CACACA"/>
<path d="M67.9539 69.7081C67.7173 68.604 66.6626 66.7107 65.0351 65.9218C63.4079 65.1329 62.5109 64.502 61.331 64.5087C60.1508 64.5153 59.829 64.0288 58.8035 65.2909C57.778 66.553 57.6203 68.446 58.6199 69.3205C59.6195 70.1948 59.0401 70.2604 61.0122 70.5759C62.9844 70.8913 64.9563 73.0212 66.8495 72.7057C68.7428 72.3903 68.1905 70.8125 67.9539 69.7081Z" fill="#CACACA"/>
<path d="M64.8793 34.6836C65.5893 35.4725 76.1593 40.9941 75.2918 41.3886C74.424 41.783 64.8793 41.2309 62.7494 41.783C60.6195 42.3353 59.9097 43.9128 59.9097 43.9128C58.5349 45.8283 57.7799 45.2538 57.3067 43.6762C56.8332 42.0984 61.0141 30.4241 63.1437 29.4774C65.2736 28.5308 65.037 28.6097 65.2736 29.8718C65.5102 31.1339 64.1692 33.8947 64.8793 34.6836Z" fill="#CACACA"/>
<path d="M56.4312 30.2575C52.1715 30.0997 48.9375 28.049 48.3852 27.1023C47.8329 26.1557 48.226 19.5913 47.5963 18.583C46.9665 17.5747 45.7959 11.1278 48.3852 6.98736C50.8093 3.93671 52.0137 2.33331 56.7467 2.33331C61.4796 2.33331 62.0667 3.94023 64.4772 6.98736C66.8876 10.0345 66.2914 17.5578 65.5025 18.583C64.7138 19.6083 65.187 26.1557 64.4772 27.1023C63.7672 28.049 60.6907 30.4154 56.4312 30.2575Z" fill="#CACACA"/>
<path d="M67.0374 15.1356C66.958 14.5838 65.4206 13.407 65.0802 14.0643C64.7397 14.7217 64.8856 20.0733 65.0811 20.1804C65.2769 20.2876 65.8768 20.1594 66.1799 20.0711C66.4827 19.9828 67.1165 15.6874 67.0374 15.1356Z" fill="#CACACA"/>
<path d="M45.9128 14.9966C45.9921 14.4448 47.5295 13.268 47.87 13.9253C48.2104 14.5827 48.0648 19.9343 47.869 20.0415C47.6733 20.1486 47.0734 20.0205 46.7705 19.9322C46.4674 19.8438 45.8337 15.5485 45.9128 14.9966Z" fill="#CACACA"/>
</g>
</g>
<defs>
<clipPath id="clip0_1234_2192">
<rect width="112" height="112" rx="56" fill="white"/>
</clipPath>
</defs>
</svg>
