<svg width="24" height="24" viewBox="0 0 24 24" fill="none" xmlns="http://www.w3.org/2000/svg">
<path d="M21.9862 17.394C19.8122 14.5492 17.1024 13.8899 15.6723 13.457V12.4509C16.6358 11.5362 17.2337 10.2678 17.2337 8.86786V3.51712C17.2337 1.57777 15.5873 0 13.5637 0H10.3874C8.36373 0 6.71737 1.57777 6.71737 3.51708V8.86781C6.71737 10.2457 7.29665 11.4961 8.23362 12.4073V13.4855C6.89972 13.8892 4.187 14.5501 2.0138 17.394C0.696326 19.1181 0 21.1592 0 23.2969C0 23.6852 0.3285 24 0.733695 24H23.2663C23.6715 24 24 23.6852 24 23.2969C24 21.1592 23.3036 19.1181 21.9862 17.394ZM14.2048 13.7669L12.0923 16.9356C12.0095 16.93 11.9263 16.9303 11.8435 16.9367L9.70097 13.7916V13.4147C11.1194 14.0702 12.7796 14.0776 14.2048 13.435V13.7669ZM8.69038 7.13334C8.09398 5.301 8.19904 5.62345 8.18476 5.58066V5.32439H15.7663V5.57264C15.7506 5.61783 15.8626 5.28722 15.2378 7.13344C11.7054 6.63506 12.2741 6.62766 8.69038 7.13334ZM8.18476 3.51708C8.18476 2.35317 9.17285 1.40625 10.3874 1.40625H13.5637C14.7782 1.40625 15.7663 2.35317 15.7663 3.51708V3.91814H8.18476V3.51708ZM8.18476 8.4862C8.33747 8.53819 8.49096 8.56064 8.59499 8.56064C8.67164 8.56064 8.5027 8.58122 10.924 8.23955C12.2064 8.0588 12.9046 8.22563 15.2257 8.55309C15.3961 8.57714 15.6063 8.53584 15.7663 8.47828V8.86781C15.7663 10.8734 14.0658 12.5051 11.9755 12.5051C9.89427 12.5051 8.18476 10.8814 8.18476 8.86781V8.4862ZM8.65731 14.832L10.5407 17.5967C9.48232 18.8708 10.6605 20.7428 12.3424 20.4141V21.0758C12.3424 21.4641 12.6709 21.7789 13.0761 21.7789C13.4813 21.7789 13.8098 21.4641 13.8098 21.0758V18.6905C13.8098 18.272 13.6563 17.8873 13.4008 17.585L15.254 14.8051C16.3289 15.1305 16.8978 15.2751 17.7391 15.6953V22.5938H6.26087V15.6953C7.10153 15.2754 7.68477 15.1263 8.65731 14.832ZM4.79348 16.6138V22.5938H1.49684C1.69748 20.208 2.91169 18.0638 4.79348 16.6138ZM19.2065 22.5938V16.6138C21.0882 18.0638 22.3025 20.208 22.5031 22.5938H19.2065Z" fill="#CACACA"/>
</svg>
