<svg width="24" height="24" viewBox="0 0 24 24" fill="none" xmlns="http://www.w3.org/2000/svg">
<path d="M4.79354 14.8855V23.9999H0.733706C0.328211 23.9999 0 23.6845 0 23.296C0 19.749 1.93674 16.6361 4.79354 14.8855ZM17.739 14.1376V23.9999H6.26095V14.1376C6.80326 13.9122 7.20313 13.7966 7.52391 13.6994C7.75625 13.8969 8.00326 14.0789 8.26299 14.2441C8.30614 14.3879 8.16923 14.1629 10.5228 17.6177C9.49924 18.8913 10.6665 20.7397 12.3424 20.4141V21.0753C12.3424 21.4638 12.6711 21.7791 13.0761 21.7791C13.4811 21.7791 13.8098 21.4638 13.8098 21.0753V18.6898C13.8098 18.2811 13.6631 17.9043 13.4185 17.6054C15.7347 14.1306 15.5776 14.3751 15.6147 14.291C15.9058 14.1103 16.1821 13.9086 16.4404 13.6885C16.7882 13.794 17.1894 13.9092 17.739 14.1376ZM24 23.296C24 23.6845 23.6718 23.9999 23.2663 23.9999H19.2065V14.8855C22.0623 16.6355 24 19.7478 24 23.296Z" fill="#4B5563"/>
<path d="M11.8128 16.9379C11.9157 16.9286 12.0194 16.9282 12.1224 16.9367L13.2823 15.197C12.4032 15.3637 11.4982 15.3605 10.6204 15.1877L11.8128 16.9379ZM15.238 7.13302L15.8497 5.32552H8.10184L8.69017 7.13292C12.2741 6.62728 11.7037 6.63445 15.238 7.13302ZM17.2337 3.91791V3.51909C17.2337 1.57861 15.588 0 13.5652 0H10.3858C8.36299 0 6.71729 1.57861 6.71729 3.51905V3.91786L17.2337 3.91791Z" fill="#4B5563"/>
<path d="M16.6203 7.60709C16.3787 8.32095 15.6655 8.61532 15.2259 8.55387C12.9147 8.22776 12.2042 8.05948 10.9239 8.24032C8.50958 8.58092 8.67124 8.56132 8.59494 8.56132C8.09166 8.56132 7.51859 8.22223 7.30939 7.61309C7.30601 7.6032 6.72051 5.80437 6.71729 5.79443V8.86779C6.71729 11.649 9.0761 13.9118 11.9755 13.9118C14.8749 13.9118 17.2337 11.6491 17.2337 8.86784V5.79457L16.6203 7.60709Z" fill="#4B5563"/>
</svg>
