<svg width="24" height="24" viewBox="0 0 24 24" fill="none" xmlns="http://www.w3.org/2000/svg">
<path d="M3.4587 22.1318L3.11318 22.4768C2.05489 23.5351 0.464876 21.9451 1.52316 20.8868L1.86868 20.5418L3.4587 22.1318ZM22.4815 3.10852L22.1318 3.45869L20.5418 1.86868L20.8915 1.5185C21.9436 0.466426 23.5336 2.05644 22.4815 3.10852ZM7.39148 15.0161L15.0136 7.39405L16.6034 8.98386L8.98135 16.6059L7.39148 15.0161ZM22.8131 8.51089C22.9426 8.42793 22.9179 8.44091 23.6955 7.66338C24.1015 7.25735 24.1015 6.59889 23.6955 6.19285L17.8071 0.304528C17.4011 -0.101509 16.7426 -0.101509 16.3366 0.304528C15.5903 1.05086 15.5735 1.05531 15.4891 1.1869L22.8131 8.51089ZM14.4366 1.30488C14.0032 0.871482 13.3626 0.904378 12.9724 1.29459L12.2653 2.00166C11.8593 2.40775 11.8593 3.0661 12.2653 3.47219L20.5278 11.7347C20.9339 12.1408 21.5923 12.1408 21.9984 11.7347L22.7055 11.0276C23.0934 10.6397 23.1314 9.99963 22.6952 9.56344L14.4366 1.30488ZM9.56335 22.6951C9.99681 23.1286 10.6374 23.0956 11.0276 22.7054L11.7347 21.9983C12.1407 21.5922 12.1407 20.9339 11.7347 20.5278L3.47215 12.2653C3.06606 11.8592 2.40771 11.8592 2.00162 12.2653L1.29454 12.9724C0.906605 13.3603 0.868587 14.0003 1.30483 14.4366L9.56335 22.6951ZM1.18695 15.4891C1.05749 15.5721 1.08205 15.5591 0.304529 16.3366C-0.10151 16.7427 -0.10151 17.4011 0.304529 17.8071L6.19287 23.6955C6.59891 24.1015 7.25736 24.1015 7.6634 23.6955C8.40974 22.9491 8.42655 22.9447 8.51091 22.8131L1.18695 15.4891Z" fill="#4B5563"/>
</svg>
