<svg width="24" height="24" viewBox="0 0 24 24" fill="none" xmlns="http://www.w3.org/2000/svg">
<path d="M23.5892 8.09015C24.137 7.54234 24.137 6.65103 23.5892 6.10317L21.7945 4.30845L22.4157 3.68719C23.8069 2.29592 21.704 0.193084 20.3127 1.58426L19.6915 2.20551L17.8968 0.410837C17.3491 -0.136921 16.4577 -0.136971 15.9098 0.410837L15.2264 1.09425C15.0781 1.24196 14.9648 1.42103 14.8948 1.61831L14.6447 1.36815C14.0957 0.819144 13.2068 0.818994 12.6577 1.36815L11.9743 2.05161C11.4253 2.60067 11.4252 3.48943 11.9743 4.03859L16.4536 8.51786L8.51892 16.4526L7.54741 15.4811L14.4825 8.54591C14.8567 8.1717 14.291 7.60605 13.9168 7.98025L6.9817 14.9154L4.0396 11.9733C3.49055 11.4243 2.60183 11.4242 2.05262 11.9733L1.36921 12.6567C0.820156 13.2058 0.820006 14.0945 1.36921 14.6437L1.61932 14.8938C1.42206 14.9638 1.24299 15.0771 1.09531 15.2254L0.41185 15.9088C-0.137208 16.4579 -0.137358 17.3466 0.41185 17.8958L2.20658 19.6905L1.58982 20.3073C0.192547 21.7046 2.29243 23.8106 3.69275 22.4102L4.30946 21.7935L6.10419 23.5882C6.65324 24.1372 7.54201 24.1373 8.09117 23.5882L8.77463 22.9047C8.92285 22.7568 9.03593 22.5775 9.10548 22.38L9.35628 22.6308C9.90414 23.1786 10.7955 23.1786 11.3433 22.6308L12.0267 21.9474C12.5759 21.3982 12.5758 20.5096 12.0267 19.9604L9.08458 17.0183L17.0193 9.08362L19.9613 12.0257C20.5092 12.5735 21.4005 12.5735 21.9483 12.0257L22.6318 11.3423C23.1809 10.793 23.1808 9.90443 22.6318 9.35527L22.381 9.10452C22.5785 9.03493 22.7578 8.92184 22.9057 8.77361L23.5892 8.09015ZM3.12704 21.8445C2.47438 22.4971 1.50747 21.521 2.15548 20.8729L2.77224 20.2562L3.74375 21.2277L3.12704 21.8445ZM11.461 21.3817L10.7776 22.0651C10.5417 22.301 10.1579 22.301 9.92199 22.0651L4.26226 16.4054C3.88805 16.0312 3.32234 16.5969 3.6966 16.9711L8.20992 21.4844C8.44482 21.7204 8.44447 22.1035 8.20892 22.339L7.52546 23.0225C7.28905 23.2589 6.90635 23.2589 6.66984 23.0225C3.7628 20.1157 11.3091 27.6617 0.977508 17.3301C0.741055 17.0936 0.741055 16.711 0.977508 16.4745L1.66092 15.7911C1.89732 15.5547 2.28003 15.5546 2.51653 15.7911C2.89074 16.1653 3.45645 15.5996 3.08219 15.2254C2.97189 15.1099 3.50035 15.6436 1.93482 14.078C1.69837 13.8416 1.69837 13.4589 1.93482 13.2224L2.61823 12.539C2.85464 12.3026 3.23734 12.3025 3.47385 12.539L11.4609 20.5261C11.6975 20.7625 11.6975 21.1452 11.461 21.3817ZM20.8785 2.14996C21.5214 1.5069 22.493 2.47847 21.85 3.12148L21.2288 3.74274L20.2572 2.77122L20.8785 2.14996ZM22.34 8.20791C22.1041 8.44381 21.7202 8.44381 21.4844 8.20791C21.1102 7.83365 20.5445 8.39936 20.9187 8.77361L22.0661 9.92098C22.3026 10.1574 22.3026 10.5401 22.0661 10.7765L21.3826 11.46C21.1468 11.6959 20.763 11.6959 20.5271 11.46L12.54 3.47293C12.3035 3.23653 12.3034 2.85377 12.54 2.61737L13.2234 1.93391C13.4599 1.69751 13.8426 1.69746 14.079 1.93391L19.6709 7.5259C20.0452 7.9 20.6109 7.33439 20.2366 6.96019L15.795 2.51852C15.5437 2.26407 15.5662 1.88576 15.7921 1.65996L16.4755 0.976546C16.7113 0.740642 17.0953 0.740692 17.3311 0.976546L23.0234 6.66888C23.2593 6.90479 23.2593 7.28859 23.0234 7.5245L22.34 8.20791Z" fill="#CACACA"/>
</svg>
