<svg width="25" height="15" viewBox="0 0 25 15" fill="none" xmlns="http://www.w3.org/2000/svg">
<path d="M0 8.91121V6.08735H1.4555L1.45527 8.91121H0ZM2.98633 12.0891C2.76758 12.0891 2.56193 12.0033 2.40725 11.8475C2.25258 11.6917 2.16743 11.4846 2.16744 11.2644L2.1676 9.27274C2.1676 9.27178 2.16774 9.27085 2.16774 9.2699C2.16774 9.26893 2.1676 9.26801 2.1676 9.26705L2.16804 3.73492C2.1681 3.28032 2.53546 2.91044 2.98692 2.91044H4.36431L4.36364 12.0891L2.98633 12.0891ZM7.25488 14.7585C7.1002 14.9143 6.89461 15 6.67591 15H6.6758L5.8946 14.9999C5.44314 14.9998 5.07585 14.6299 5.07585 14.1752L5.0767 2.55427C5.07671 2.55342 5.07683 2.55261 5.07683 2.55175C5.07683 2.5509 5.0767 2.55009 5.0767 2.54924L5.07683 0.824637C5.07683 0.604355 5.16203 0.397264 5.31673 0.24153C5.4714 0.0857968 5.67699 2.49693e-05 5.89571 2.49693e-05H5.89582L6.67681 0.000163645H6.67684C7.12832 0.000201407 7.49561 0.370175 7.49559 0.824826L7.4953 5.72708C7.4953 5.72775 7.49519 5.72843 7.49519 5.72914C7.49519 5.72984 7.49529 5.73051 7.4953 5.73121L7.4948 14.1755C7.49477 14.3957 7.40958 14.6028 7.25488 14.7585ZM8.20746 8.91174L8.20763 6.08788L16.7925 6.08876L16.7927 8.91262L8.20746 8.91174ZM19.1055 14.9999L18.3244 14.9999C17.8728 15 17.5054 14.63 17.5054 14.1753L17.5045 0.824751C17.5045 0.370062 17.8718 0.000138319 18.3233 8.79686e-05L19.1044 0C19.3232 0 19.5288 0.0857212 19.6835 0.241467C19.8381 0.397251 19.9233 0.604292 19.9233 0.824625L19.9241 12.4477L19.9241 12.4479L19.9241 12.4481L19.9243 14.1752C19.9243 14.6299 19.557 14.9998 19.1055 14.9999ZM22.0138 12.0891L20.6365 12.0892L20.6358 2.9105L22.0132 2.91039C22.2319 2.91039 22.4376 2.99611 22.5922 3.15185C22.7469 3.30759 22.8321 3.51468 22.8321 3.73496L22.8323 5.73002L22.8322 5.73061L22.8323 5.7312L22.8327 11.2644C22.8327 11.7191 22.4654 12.089 22.0138 12.0891ZM25 8.91314H23.5448L23.5446 6.08929H25V8.91314Z" fill="#4B5563"/>
</svg>
