<svg width="112" height="112" viewBox="0 0 112 112" fill="none" xmlns="http://www.w3.org/2000/svg">
<g clip-path="url(#clip0_1234_2201)">
<rect width="112" height="112" rx="56" fill="white"/>
<mask id="mask0_1234_2201" style="mask-type:luminance" maskUnits="userSpaceOnUse" x="0" y="0" width="112" height="112">
<path d="M112 56C112 25.0721 86.9279 0 56 0C25.0721 0 0 25.0721 0 56C0 86.9279 25.0721 112 56 112C86.9279 112 112 86.9279 112 56Z" fill="white"/>
</mask>
<g mask="url(#mask0_1234_2201)">
<path d="M53.7679 4.66484C52.6622 4.4281 52.7023 4.57678 53.1361 5.37562C54.215 7.65969 54.6091 9.27504 55.1105 12.4835C55.4498 13.4251 55.64 13.2291 55.9792 12.4835C56.3232 9.57039 56.6629 7.98951 57.8746 5.37562C58.4159 4.63786 58.2841 4.46895 57.1639 4.66484C55.9396 4.90095 54.8737 4.90158 53.7679 4.66484Z" fill="#CACACA"/>
<path d="M52.798 88.8311C52.8771 89.6996 52.0868 116.947 51.6133 112.998C51.1397 109.049 35.423 69.5609 38.7401 75.5631C42.0572 81.5654 52.7186 87.9624 52.798 88.8311Z" fill="#CACACA"/>
<path d="M36.9252 111.892C36.9252 111.892 40.558 136.928 41.111 137.164C41.6638 137.4 46.0075 129.425 47.0342 124.923C48.0608 120.421 47.666 108.101 47.429 105.732C47.1921 103.362 38.5075 78.0164 38.0308 76.1154C37.5543 74.2145 35.8335 70.7553 35.5035 71.6926C35.1736 72.6301 33.2859 90.0576 33.845 89.2255C34.0688 96.5426 34.5704 101.232 36.9252 111.892Z" fill="#CACACA"/>
<path d="M49.4807 132.665C49.4807 132.665 49.9814 137.505 50.1125 140.404C50.2437 143.303 52.3157 131.489 52.4029 129.427C52.4641 126.114 52.6111 124.704 51.692 117.501C51.692 117.501 49.3227 107.076 49.0068 108.498C48.6911 109.919 49.0068 115.527 49.0068 116.316C49.0068 117.106 47.8221 126.583 47.8221 127.373C47.8221 128.163 48.6773 129.562 49.4807 132.665Z" fill="#CACACA"/>
<path d="M31.7424 37.2218C31.4265 38.1694 27.8726 48.9893 28.3465 49.3841C28.8204 49.7789 29.3732 48.5154 30.5578 46.1461C31.7424 43.7766 32.9271 37.9325 32.7691 37.4586C32.6111 36.9847 32.0584 36.274 31.7424 37.2218Z" fill="#CACACA"/>
<path d="M27.7139 19.5311C30.5571 17.2408 34.111 14.6346 35.6116 15.0295C37.1121 15.4244 38.6127 17.0829 38.6127 17.0829C38.6127 17.0829 39.0075 17.5567 38.6127 18.8203C38.2179 20.084 37.6649 22.6112 35.2956 25.6123C32.9264 28.6134 26.7661 30.6668 26.7661 30.6668C26.7661 30.6668 24.318 32.0094 23.765 32.6412C23.2123 33.2731 24.16 27.5077 24.16 27.5077C24.16 27.5077 24.8708 21.8215 27.7139 19.5311Z" fill="#CACACA"/>
<path d="M22.5025 38.5618C21.7918 43.1426 21.3969 58.622 21.9497 57.9112C22.5025 57.2003 25.4247 52.0669 26.4514 50.8823C27.478 49.6977 28.5047 45.2748 29.1366 43.6163C29.7684 41.958 31.2475 36.7451 31.5849 31.77C31.5849 31.77 31.5847 29.6375 29.5314 30.4274C27.478 31.2172 26.1354 32.4807 26.1354 32.4807C26.1354 32.4807 23.2133 33.9813 22.5025 38.5618Z" fill="#CACACA"/>
<path d="M22.1075 58.7022C24.8717 54.2796 27.7149 49.8568 28.2676 50.7257C28.8206 51.5944 28.8206 53.3318 28.8206 53.3318C28.2198 55.6015 27.6192 56.9681 26.2934 59.4921C25.3055 63.6846 24.3427 65.8728 22.5814 69.759C22.6704 69.3677 16.8091 83.8955 16.5002 84.3696C16.1913 84.8437 16.3423 81.2107 16.5002 79.8679C16.6582 78.5251 19.3434 63.1248 22.1075 58.7022Z" fill="#E74C3C"/>
<path d="M15.9484 74.7344C14.7638 76.4718 10.4201 79.8679 9.94622 79.552C9.47237 79.2361 12.2366 73.0758 12.2366 73.0758C13.1558 70.5206 13.6055 68.7013 14.132 63.8356C14.132 63.8356 15.0797 58.2284 15.1587 57.5965C15.2377 56.9646 18.0808 50.9624 19.0285 50.0937C19.9763 49.225 19.9762 48.7511 20.6081 50.2516C21.2399 51.7522 21.2399 54.7533 21.2399 54.7533C21.2399 54.7533 21.082 58.9391 19.8183 62.2562C18.5546 65.573 17.1331 70.8645 17.1331 70.8645C17.1331 70.8645 17.1331 72.997 15.9484 74.7344Z" fill="#E74C3C"/>
<path d="M11.0288 80.9828C11.8184 80.6671 15.4515 76.2442 15.7674 76.797C16.0833 77.35 14.8196 84.5369 15.2935 85.8795C15.7674 87.2221 15.8463 86.8273 16.0833 88.6436C16.3202 90.4599 14.5827 92.9082 14.5827 92.9082C14.5827 92.9082 11.7396 95.9091 10.5549 95.8302C9.37026 95.7514 12.6873 94.3299 12.2134 90.776C11.7396 87.2221 11.3447 87.2219 11.0288 87.2221C10.7129 87.2221 9.52821 87.9326 9.13334 87.9329C8.73844 87.9329 7.55381 87.4592 6.84303 86.9851C6.13223 86.5112 3.52601 86.8271 2.81521 86.7482C2.10443 86.6693 7.31681 81.7729 8.42256 81.6938C9.52828 81.6147 10.2391 81.2987 11.0288 80.9828Z" fill="#CACACA"/>
<path d="M9.1335 101.121C10.1602 100.331 12.4505 95.9877 12.4505 95.5925C12.4505 95.1972 10.713 96.4616 10.3971 96.6191C10.0812 96.7769 9.60736 95.8298 9.44941 95.5925C9.29147 95.3552 10.792 94.1712 10.95 93.9339C11.1079 93.6966 11.7397 92.1179 11.6608 91.4067C11.5818 90.6955 11.4238 88.0901 10.792 88.0896C10.1602 88.0894 9.60738 88.4053 9.1335 88.4847C8.65965 88.564 6.52729 87.5366 6.13242 87.458C5.73752 87.3794 3.52618 87.063 2.73641 87.458C1.94665 87.8528 -0.896502 88.8795 -1.13343 89.2743C-1.37036 89.6693 -0.264692 90.7748 0.446097 90.8539C1.15689 90.9328 3.21027 90.2221 3.21027 90.2221C3.21027 90.2221 5.97445 89.4322 5.57958 90.2221C5.18469 91.0119 0.919955 98.3568 0.840979 98.7516C0.762003 99.1464 0.60405 100.094 1.15689 100.173C1.70972 100.252 1.70972 100.015 2.1046 100.173C2.49949 100.331 1.70972 102.069 1.70972 102.069C1.70972 102.069 1.7887 103.095 2.34154 103.095C2.89438 103.095 3.62021 102.605 3.92107 102.069C4.22193 101.532 4.31594 102.227 4.31594 102.227C4.31594 102.227 4.63185 102.937 4.94776 103.095C5.26367 103.253 5.97445 102.937 6.29036 102.7C6.60627 102.463 7.94887 100.41 7.94887 100.41C7.94887 100.41 8.10681 101.911 9.1335 101.121Z" fill="#CACACA"/>
<path d="M100.419 80.9828C99.6294 80.6671 95.9961 76.2442 95.6804 76.797C95.3645 77.35 96.628 84.5369 96.1541 85.8795C95.6804 87.2221 95.6013 86.8273 95.3645 88.6436C95.1274 90.4599 96.8651 92.9082 96.8651 92.9082C96.8651 92.9082 99.7082 95.9091 100.893 95.8302C102.077 95.7514 98.7604 94.3299 99.2343 90.776C99.7082 87.2221 100.103 87.2219 100.419 87.2221C100.735 87.2221 101.92 87.9326 102.314 87.9329C102.709 87.9329 103.894 87.4592 104.605 86.9851C105.315 86.5112 107.922 86.8271 108.633 86.7482C109.343 86.6693 104.131 81.7729 103.025 81.6938C101.92 81.6147 101.209 81.2987 100.419 80.9828Z" fill="#CACACA"/>
<path d="M102.316 101.121C101.289 100.331 98.9987 95.9877 98.9987 95.5925C98.9987 95.1972 100.736 96.4616 101.052 96.6191C101.368 96.7769 101.842 95.8298 102 95.5925C102.158 95.3552 100.657 94.1712 100.499 93.9339C100.341 93.6966 99.7094 92.1179 99.7883 91.4067C99.8674 90.6955 100.025 88.0901 100.657 88.0896C101.289 88.0894 101.842 88.4053 102.316 88.4847C102.789 88.564 104.922 87.5366 105.317 87.458C105.712 87.3794 107.923 87.063 108.713 87.458C109.502 87.8528 112.346 88.8795 112.583 89.2743C112.819 89.6693 111.714 90.7748 111.003 90.8539C110.292 90.9328 108.239 90.2221 108.239 90.2221C108.239 90.2221 105.475 89.4322 105.87 90.2221C106.264 91.0119 110.529 98.3568 110.608 98.7516C110.687 99.1464 110.845 100.094 110.292 100.173C109.739 100.252 109.739 100.015 109.344 100.173C108.95 100.331 109.739 102.069 109.739 102.069C109.739 102.069 109.66 103.095 109.108 103.095C108.555 103.095 107.829 102.605 107.528 102.069C107.227 101.532 107.133 102.227 107.133 102.227C107.133 102.227 106.817 102.937 106.501 103.095C106.186 103.253 105.475 102.937 105.159 102.7C104.843 102.463 103.5 100.41 103.5 100.41C103.5 100.41 103.342 101.911 102.316 101.121Z" fill="#CACACA"/>
<path d="M54.247 71.1685C54.247 71.1685 54.456 83.2246 53.4571 83.9354C52.4585 84.6463 50.9579 83.7774 50.9579 83.7774C49.2784 82.1175 48.6288 80.0235 46.9812 74.8804C45.9947 69.9867 45.3024 67.0243 45.5875 63.4804C45.9088 63.0334 47.0108 62.8759 47.0108 62.8759C47.0108 62.8759 52.7744 62.2958 53.487 64.5862C54.1996 66.8764 54.0017 66.7919 54.247 71.1685Z" fill="#CACACA"/>
<path d="M42.263 62.2596C42.6643 71.7019 46.8379 79.6929 47.7122 80.3453C48.5865 80.9974 44.6322 80.345 40.4465 75.3697C36.2607 70.3941 34.997 65.5764 34.997 65.5764C34.4804 64.5131 35.4074 54.8608 36.2607 55.6255C37.114 56.3901 37.1226 58.2386 39.3407 59.8903C41.5588 61.5419 40.0722 60.3792 41.1572 61.2329C41.4412 61.4562 42.2303 61.4908 42.263 62.2596Z" fill="#CACACA"/>
<path d="M41.9564 54.3207C41.9001 58.6938 43.3739 58.5074 42.983 59.2172C42.5922 59.927 41.2456 61.1917 39.1132 58.1114C36.9808 55.0314 37.4801 55.0755 36.9808 54.3207C36.4814 53.5656 36.6606 49.6624 35.7919 47.1352C34.923 44.608 35.4557 44.4332 35.081 42.8706C34.7065 41.3077 35.2434 36.3538 37.4547 36.0771C39.666 35.8003 42.1932 37.5776 42.5882 38.6832C42.983 39.7889 42.7541 41.2923 42.5882 42.8706C42.4221 44.4486 42.4739 46.344 42.2723 48.3973C42.0705 50.4506 42.0126 49.9473 41.9564 54.3207Z" fill="#CACACA"/>
<path d="M43.7701 16.6479C42.6643 17.1218 40.8478 19.1753 39.5052 21.1497C38.1626 23.1241 36.0946 25.5603 35.0826 27.7837C33.4161 29.5517 33.3711 29.8104 34.2139 30.7057C35.0565 31.601 35.0037 31.4956 40.9269 34.5756C46.8501 37.6556 53.5631 37.7349 53.9581 34.8126C54.3529 31.8904 53.9581 29.9159 53.9581 25.4933C53.9581 21.0706 53.8001 20.2808 52.1416 18.1484C50.4828 16.0161 44.8756 16.1741 43.7701 16.6479Z" fill="#CACACA"/>
<path d="M44.8775 57.4772C45.0354 56.0557 47.0099 52.8966 49.6951 53.3705C51.3793 53.6678 51.8208 53.7474 51.9157 53.7656C52.0464 53.7698 53.5073 53.8615 53.96 55.8978C54.4336 58.0302 53.96 59.6887 53.96 59.6887C53.96 59.6887 54.2757 62.1369 51.1957 62.1369C48.1157 62.1369 48.2736 62.1369 46.2201 61.505C44.1667 60.8734 44.7197 58.8989 44.8775 57.4772Z" fill="#CACACA"/>
<path d="M44.2463 49.8965C44.4831 48.7909 46.6447 46.8165 48.2741 46.0266C49.9035 45.2368 50.0906 44.6052 51.3541 44.684C52.6178 44.7631 53.5946 44.842 54.0685 46.9744C54.5424 49.1069 54.0685 51.7921 54.0685 51.7921C54.0685 51.7921 54.4341 52.7396 51.3541 52.7396C48.2741 52.7396 48.037 53.4504 46.1417 53.1344C44.2463 52.8185 44.0092 51.002 44.2463 49.8965Z" fill="#CACACA"/>
<path d="M44.5625 43.0253C44.7995 41.9197 45.8551 40.0244 47.4847 39.2345C49.1141 38.4447 50.012 37.8128 51.1933 37.8196C52.3749 37.8261 52.6972 37.3389 53.7238 38.6027C54.7505 39.8662 54.9085 41.7618 53.9077 42.637C52.9069 43.5125 53.487 43.5783 51.5125 43.894C49.5381 44.2099 47.5636 46.3423 45.6682 46.0264C43.7729 45.7105 44.3256 44.131 44.5625 43.0253Z" fill="#CACACA"/>
<path d="M47.6408 7.96042C46.9301 8.75021 36.3473 14.2786 37.216 14.6734C38.0847 15.0683 47.6408 14.5155 49.7733 15.0683C51.9055 15.6212 52.6164 17.2007 52.6164 17.2007C53.9926 19.1184 54.7486 18.5433 55.2225 16.9638C55.6964 15.3842 51.5107 3.69569 49.3782 2.74799C47.246 1.80026 47.4829 1.87925 47.246 3.14286C47.009 4.40647 48.3516 7.17063 47.6408 7.96042Z" fill="#CACACA"/>
<path d="M58.6329 88.7628C58.5538 89.6313 59.3441 116.878 59.8176 112.93C60.2912 108.981 76.0079 69.4925 72.6908 75.4948C69.3737 81.497 58.7123 87.8941 58.6329 88.7628Z" fill="#CACACA"/>
<path d="M74.5057 111.824C74.5057 111.824 70.8729 136.86 70.3201 137.096C69.7671 137.333 65.4234 129.357 64.3967 124.855C63.3701 120.353 63.7651 108.034 64.0019 105.664C64.2388 103.294 72.9234 77.9485 73.4001 76.0475C73.8766 74.1466 75.5974 70.6874 75.9274 71.6249C76.2573 72.5625 78.145 89.9897 77.5859 89.1576C77.3621 96.4747 76.8605 101.164 74.5057 111.824Z" fill="#CACACA"/>
<path d="M61.95 132.594C61.95 132.594 61.4493 137.435 61.3181 140.334C61.187 143.233 59.1148 131.419 59.0277 129.356C58.9666 126.044 58.8196 124.634 59.7385 117.431C59.7385 117.431 62.1077 107.006 62.4237 108.428C62.7396 109.849 62.4237 115.456 62.4237 116.246C62.4237 117.036 63.6083 126.513 63.6083 127.303C63.6083 128.093 62.7531 129.492 61.95 132.594Z" fill="#CACACA"/>
<path d="M79.6885 37.1504C80.0044 38.0982 83.5583 48.9179 83.0844 49.3129C82.6105 49.7077 82.0577 48.4442 80.8731 46.0749C79.6885 43.7054 78.5038 37.8611 78.6618 37.3875C78.8198 36.9136 79.3725 36.2028 79.6885 37.1504Z" fill="#CACACA"/>
<path d="M83.717 19.4599C80.8738 17.1696 77.3199 14.5634 75.8193 14.9582C74.3188 15.3531 72.8182 17.0116 72.8182 17.0116C72.8182 17.0116 72.4234 17.4855 72.8182 18.7491C73.213 20.0127 73.766 22.54 76.1353 25.5411C78.5045 28.5423 84.6648 30.5956 84.6648 30.5956C84.6648 30.5956 87.1129 31.9382 87.6659 32.5701C88.2187 33.2019 87.2709 27.4365 87.2709 27.4365C87.2709 27.4365 86.5601 21.7502 83.717 19.4599Z" fill="#CACACA"/>
<path d="M88.928 38.4935C89.6387 43.0743 90.0338 58.5536 89.481 57.8429C88.928 57.1319 86.006 51.9986 84.9793 50.8139C83.9526 49.6293 82.926 45.2065 82.2941 43.5482C81.6622 41.8896 80.1831 36.6767 79.8457 31.7016C79.8457 31.7016 79.8457 29.5692 81.8993 30.359C83.9526 31.1488 85.2952 32.4123 85.2952 32.4123C85.2952 32.4123 88.2173 33.9129 88.928 38.4935Z" fill="#CACACA"/>
<path d="M89.3233 58.6339C86.5592 54.2113 83.716 49.7887 83.1633 50.6574C82.6103 51.5261 82.6103 53.2635 82.6103 53.2635C83.2111 55.5331 83.8119 56.8998 85.1375 59.4237C86.1254 63.6163 87.0882 65.8045 88.8496 69.6906C88.7605 69.2993 94.6218 83.8271 94.9307 84.3013C95.2397 84.7754 95.0887 81.1424 94.9307 79.7996C94.7728 78.457 92.0876 63.0565 89.3233 58.6339Z" fill="#E74C3C"/>
<path d="M95.4821 74.6655C96.6667 76.4029 101.01 79.7988 101.484 79.4829C101.958 79.167 99.194 73.007 99.194 73.007C98.2749 70.4515 97.8252 68.6324 97.2986 63.7667C97.2986 63.7667 96.351 58.1593 96.2719 57.5274C96.1928 56.8958 93.3499 50.8935 92.4021 50.0248C91.4543 49.1561 91.4543 48.6822 90.8227 50.1828C90.1908 51.6833 90.1908 54.6845 90.1908 54.6845C90.1908 54.6845 90.3488 58.87 91.6123 62.1871C92.876 65.5041 94.2975 70.7957 94.2975 70.7957C94.2975 70.7957 94.2975 72.9279 95.4821 74.6655Z" fill="#E74C3C"/>
<path d="M57.1839 71.0978C57.1839 71.0978 56.9749 83.1539 57.9738 83.8649C58.9724 84.5756 60.473 83.7069 60.473 83.7069C62.1525 82.047 62.8021 79.9528 64.4497 74.8097C65.4362 69.916 66.1285 66.9536 65.8434 63.4099C65.5221 62.9629 64.4201 62.8051 64.4201 62.8051C64.4201 62.8051 58.6565 62.2253 57.9439 64.5155C57.2313 66.8056 57.4292 66.7212 57.1839 71.0978Z" fill="#CACACA"/>
<path d="M69.1689 62.1905C68.7675 71.6328 64.5939 79.624 63.7194 80.2762C62.8451 80.9286 66.7996 80.2762 70.9854 75.3006C75.1711 70.3252 76.4346 65.5076 76.4346 65.5076C76.9512 64.4443 76.0244 54.792 75.1711 55.5566C74.3176 56.3213 74.309 58.1697 72.0909 59.8213C69.8728 61.473 71.3594 60.3103 70.2746 61.1639C69.9907 61.3872 69.2015 61.4219 69.1689 62.1905Z" fill="#CACACA"/>
<path d="M69.4745 54.2493C69.5308 58.6227 68.057 58.4362 68.4479 59.146C68.8387 59.8556 70.1853 61.1203 72.3177 58.0403C74.4501 54.9603 73.9508 55.0044 74.4501 54.2493C74.9495 53.4945 74.7703 49.5913 75.639 47.064C76.5079 44.5368 75.9752 44.362 76.3499 42.7992C76.7244 41.2365 76.1875 36.2824 73.9762 36.0059C71.7649 35.7292 69.2377 37.5062 68.8427 38.612C68.4479 39.7178 68.6768 41.2211 68.8427 42.7992C69.0088 44.3774 68.957 46.2728 69.1586 48.3261C69.3604 50.3795 69.4183 49.8762 69.4745 54.2493Z" fill="#CACACA"/>
<path d="M67.6608 16.579C68.7666 17.0528 70.5831 19.1063 71.9257 21.0807C73.2683 23.0552 75.3363 25.4914 76.3483 27.7146C78.0148 29.4826 78.0598 29.7416 77.217 30.6369C76.3744 31.5322 76.4272 31.4265 70.504 34.5067C64.5808 37.5867 57.8678 37.6658 57.4728 34.7435C57.078 31.8215 57.4728 29.847 57.4728 25.4244C57.4728 21.0017 57.6308 20.2118 59.2893 18.0795C60.9481 15.9471 66.5553 16.1051 67.6608 16.579Z" fill="#CACACA"/>
<path d="M66.5537 57.4084C66.3957 55.9867 64.4212 52.8278 61.736 53.3017C60.0518 53.5987 59.6104 53.6785 59.5154 53.6967C59.3847 53.7007 57.9238 53.7924 57.4714 55.8289C56.9975 57.9611 57.4714 59.6197 57.4714 59.6197C57.4714 59.6197 57.1555 62.068 60.2355 62.068C63.3157 62.068 63.1577 62.068 65.2111 61.4362C67.2644 60.8043 66.7116 58.8301 66.5537 57.4084Z" fill="#CACACA"/>
<path d="M67.1846 49.8265C66.9478 48.7207 64.7864 46.7465 63.1568 45.9567C61.5274 45.1668 61.3403 44.535 60.0768 44.6141C58.8131 44.6929 57.8363 44.772 57.3624 46.9045C56.8885 49.0367 57.3624 51.7219 57.3624 51.7219C57.3624 51.7219 56.9968 52.6697 60.0768 52.6697C63.1568 52.6697 63.3939 53.3804 65.2892 53.0645C67.1846 52.7485 67.4217 50.932 67.1846 49.8265Z" fill="#CACACA"/>
<path d="M66.8684 42.9546C66.6314 41.8491 65.5758 39.9537 63.9462 39.1639C62.3168 38.374 61.4189 37.7422 60.2376 37.7489C59.056 37.7557 58.7337 37.2685 57.7071 38.532C56.6804 39.7957 56.5224 41.6911 57.5232 42.5666C58.524 43.4418 57.9441 43.5076 59.9184 43.8235C61.8928 44.1395 63.8673 46.2717 65.7627 45.9557C67.658 45.6398 67.1053 44.0604 66.8684 42.9546Z" fill="#CACACA"/>
<path d="M63.7901 7.88975C64.5008 8.67954 75.0836 14.2079 74.2149 14.6027C73.3462 14.9976 63.7901 14.4448 61.6576 14.9976C59.5254 15.5505 58.8145 17.13 58.8145 17.13C57.4383 19.0477 56.6823 18.4726 56.2084 16.8931C55.7345 15.3135 59.9202 3.62502 62.0527 2.67729C64.1849 1.72958 63.948 1.80858 64.1849 3.07219C64.4219 4.33578 63.0793 7.09996 63.7901 7.88975Z" fill="#CACACA"/>
<path d="M55.3324 3.45767C51.0676 3.29973 47.8296 1.24633 47.2768 0.298615C46.7241 -0.649103 47.1175 -7.22132 46.487 -8.23083C45.8565 -9.24035 44.6845 -15.695 47.2768 -19.8404C49.704 -22.8947 50.9096 -24.5 55.6484 -24.5C60.3869 -24.5 60.9747 -22.8912 63.388 -19.8404C65.8014 -16.7896 65.2045 -9.25731 64.4147 -8.23083C63.6249 -7.20435 64.0988 -0.649103 63.388 0.298615C62.6773 1.24633 59.5971 3.61564 55.3324 3.45767Z" fill="#CACACA"/>
</g>
</g>
<defs>
<clipPath id="clip0_1234_2201">
<rect width="112" height="112" rx="56" fill="white"/>
</clipPath>
</defs>
</svg>
