<svg width="112" height="112" viewBox="0 0 112 112" fill="none" xmlns="http://www.w3.org/2000/svg">
<g clip-path="url(#clip0_1235_3178)">
<rect width="112" height="112" rx="56" fill="white"/>
<mask id="mask0_1235_3178" style="mask-type:luminance" maskUnits="userSpaceOnUse" x="0" y="0" width="112" height="112">
<path d="M112 56C112 25.0721 86.9279 0 56 0C25.0721 0 0 25.0721 0 56C0 86.9279 25.0721 112 56 112C86.9279 112 112 86.9279 112 56Z" fill="white"/>
</mask>
<g mask="url(#mask0_1235_3178)">
<path d="M47.306 113.941V120.852C47.306 120.12 48.6068 116.136 50.3956 115.567C52.1841 114.999 53.729 115.811 53.9728 116.136C54.2169 116.462 52.1029 111.34 52.1841 110.201C52.2655 109.063 53.5663 98.6561 53.729 98.3308C53.8916 98.0056 53.3223 99.1438 52.672 99.3878C52.0217 99.6319 52.1841 99.7131 50.3956 99.0626C48.6068 98.412 47.7125 95.7292 47.7125 95.7292C47.7125 95.7292 45.0294 96.0544 43.8912 95.5665C42.7527 95.0786 42.9968 95.3227 41.0454 92.9649C39.0941 90.6068 47.306 111.502 47.306 113.941Z" fill="#CACACA"/>
<path d="M41.1264 90.9323C40.5687 81.7831 44.0834 69.7949 45.4356 69.8744C46.7875 69.954 47.1429 73.0452 47.8746 73.0454C48.6064 73.0454 51.1268 70.1183 51.3707 71.1753C51.6147 72.2323 51.4521 82.558 52.0212 83.0458C52.5903 83.5338 54.4602 92.721 54.2976 94.6724C54.135 96.6238 53.322 98.5749 52.3465 98.8187C51.3707 99.0626 50.6389 98.4123 50.0698 98.0058C49.5007 97.5991 48.0373 93.6966 47.5494 93.6966C47.0617 93.6966 46.4156 94.9538 44.2972 94.6724C42.1787 94.3907 40.9393 90.8929 41.1264 90.9323Z" fill="#CACACA"/>
<path d="M41.9389 70.5245C41.9389 71.4189 42.752 73.045 42.9144 73.3703C43.0771 73.6953 44.0529 69.7116 44.0529 69.7116C44.0529 69.7116 46.7357 61.9061 46.7357 60.9306C46.736 59.955 47.5489 30.5228 45.679 30.7666C43.8088 31.0105 42.4268 32.2301 41.9389 32.5554C41.451 32.8806 40.3128 44.6698 40.4754 46.2959C40.638 47.9218 41.2886 57.4345 41.451 58.3289C41.6136 59.2233 41.9389 69.6302 41.9389 70.5245Z" fill="#E74C3C"/>
<path d="M49.3379 28.5714C50.5573 28.0023 53.3218 25.4818 54.0535 25.3194C54.7853 25.1568 54.3786 26.9455 54.3786 26.9455L52.6713 40.3605L52.4274 54.9142L52.9151 65.1585L52.4274 70.9312C52.4274 70.9312 52.1022 72.6385 51.9395 72.6385C51.7769 72.6385 51.9395 71.2564 51.9395 71.2564C51.9395 71.2564 51.4516 69.6303 50.8013 69.7115C50.1508 69.7927 48.1994 72.232 47.793 71.8255C47.3865 71.4188 46.0042 68.4919 45.679 68.3293C45.3539 68.1669 47.2239 64.752 47.6303 63.9389C48.0368 63.1259 48.1994 54.9142 47.9556 54.1011C47.7118 53.2881 47.9556 32.3929 47.9556 32.3929C47.9556 32.3929 48.1182 29.1407 49.3379 28.5714Z" fill="#E74C3C"/>
<path d="M36.4096 36.7847C36.6536 39.7117 40.5561 58.3305 40.4749 55.8912C40.3935 53.4522 39.4179 41.5004 40.1497 37.9229C40.8814 34.3457 41.4505 29.5486 41.4505 24.1826C41.4505 18.8164 37.7918 17.4343 37.7918 17.4343C37.7918 17.4343 35.6778 16.2147 35.6778 19.3856C35.6778 22.5565 36.1657 33.8578 36.4096 36.7847Z" fill="#CACACA"/>
<path d="M41.7751 29.2224C41.7751 29.2224 41.45 31.6617 42.9947 30.93C44.5396 30.198 54.2148 25.9702 54.7839 21.5799C54.8557 21.0262 55.003 20.4415 54.9341 20.1976C54.8653 19.9537 54.4586 18.9781 54.4586 18.9781C51.8224 15.5789 50.4845 12.3909 48.1168 6.53852C47.9493 5.66431 47.7736 5.24858 46.3283 5.56286C42.0898 6.96405 40.2255 8.87059 38.0352 14.7503C38.0352 14.7503 37.4661 16.0512 38.0352 16.539C38.6043 17.0268 39.4172 17.4333 39.4172 17.4333C39.4172 17.4333 41.6127 19.7099 41.7751 22.3116C41.9377 24.9132 41.7751 29.2224 41.7751 29.2224Z" fill="#CACACA"/>
<path d="M54.7839 -16.5527C54.7839 -15.821 55.629 15.1137 55.1903 16.7821C54.7517 18.4506 51.2223 11.1509 49.7408 6.45645C48.2566 2.15701 47.0846 -0.397856 46.8972 -0.12921C44.2934 -2.84426 43.9703 -1.67397 43.8076 -2.40574C43.645 -3.13749 43.9703 -7.04006 45.3525 -9.56051C46.7346 -12.0809 48.0356 -14.0322 48.93 -14.9266C49.8241 -15.821 49.9868 -15.9836 51.7755 -17.691C53.5642 -19.3984 52.9951 -19.2357 53.483 -18.8292C53.9707 -18.4226 54.7839 -17.2844 54.7839 -16.5527Z" fill="#CACACA"/>
<path d="M37.2227 -1.02336C37.1413 0.440121 35.7593 11.8228 36.2472 11.9854C36.7348 12.1479 39.2553 7.59491 42.4263 6.13142C45.5971 4.66796 45.9223 5.15579 47.0605 4.58664C48.1987 4.01752 44.7841 -0.616835 44.1336 -1.02336C43.4831 -1.42988 42.4263 -2.64945 42.4263 -2.64945C42.4263 -2.64945 45.2718 -12.8125 45.9223 -13.1377C46.5726 -13.4629 41.9384 -12.0808 40.1497 -12.8125C38.3609 -13.5442 36.2472 -18.2599 35.7593 -18.2599C35.2714 -18.2599 37.7106 -8.99119 38.0357 -7.52772C38.3609 -6.06423 38.0357 -4.92596 38.0357 -4.92596C37.7183 -3.4019 37.3042 -2.48684 37.2227 -1.02336Z" fill="#CACACA"/>
<path d="M11.9724 18.1641C13.1584 18.0014 16.3293 19.1397 16.6545 19.7088C16.9797 20.278 16.6545 21.0097 16.9798 22.7171C17.305 24.4244 16.9319 23.7422 17.1758 25.6119C17.4198 27.4818 15.631 30.0025 15.631 30.0025C15.631 30.0025 12.7041 33.0916 11.4845 33.0106C10.265 32.9294 13.6797 31.466 13.1919 27.8071C12.7041 24.1484 12.2976 24.1484 11.9724 24.1484C11.6471 24.1486 10.4276 24.8801 10.021 24.8801C9.61452 24.8804 8.39496 24.3925 7.6632 23.9046C6.93147 23.4167 4.24842 23.7417 3.51668 23.6607C2.78495 23.5795 8.28011 18.5708 9.41843 18.4893C10.5568 18.4079 10.7863 18.3267 11.9724 18.1641Z" fill="#CACACA"/>
<path d="M10.0199 38.4576C11.0768 37.6447 13.4347 33.1731 13.4347 32.7664C13.4347 32.3594 11.646 33.661 11.3207 33.8231C10.9955 33.9855 10.5077 33.0107 10.3451 32.7664C10.1825 32.5221 11.7273 31.3031 11.8899 31.0588C12.0525 30.8145 12.7029 29.1891 12.6216 28.4572C12.5403 27.725 12.3777 25.0428 11.7273 25.0423C11.0768 25.0421 10.5077 25.3671 10.0199 25.4488C9.53204 25.5305 7.33684 24.4728 6.9303 24.392C6.52379 24.3111 4.24727 23.9853 3.43422 24.392C2.62117 24.7985 -0.30579 25.8555 -0.549703 26.262C-0.793616 26.6684 0.344645 27.8066 1.07639 27.8881C1.80813 27.9693 3.92205 27.2375 3.92205 27.2375C3.92205 27.2375 6.76769 26.4246 6.36118 27.2375C5.95464 28.0507 1.56421 35.6119 1.48291 36.0186C1.4016 36.425 1.239 37.4006 1.80813 37.482C2.37725 37.5632 2.37725 37.3194 2.78378 37.482C3.1903 37.6447 2.37725 39.4332 2.37725 39.4332C2.37725 39.4332 2.45856 40.4902 3.02769 40.4902C3.59683 40.4902 4.34406 39.9855 4.65379 39.4332C4.96351 38.8809 5.0603 39.5958 5.0603 39.5958C5.0603 39.5958 5.38552 40.3275 5.71074 40.4902C6.03596 40.6528 6.76769 40.3275 7.09291 40.0837C7.41813 39.8399 8.80031 37.7259 8.80031 37.7259C8.80031 37.7259 8.96292 39.2705 10.0199 38.4576Z" fill="#CACACA"/>
<path d="M14.4591 3.12467C13.89 5.80772 10.15 16.9464 10.2313 17.4343C10.3126 17.9221 12.5891 17.1903 14.4591 17.9221C16.3292 18.6538 16.8983 19.2229 17.4674 19.0603C18.0365 18.8977 25.9231 0.360271 26.2484 -0.696636C26.5734 -1.75355 28.85 -7.68886 29.1753 -8.58316C29.5006 -9.47746 29.663 -10.6158 29.1753 -11.1849C28.6874 -11.754 27.594 -8.7383 26.4922 -8.90838C25.3904 -9.07846 25.2252 -10.1586 24.5408 -10.3719C23.8565 -10.5852 22.6708 -9.88409 22.3457 -10.3719C22.0205 -10.8596 22.427 -15.0062 21.8578 -14.8436C21.2887 -14.681 17.4674 -8.82709 16.8983 -7.44491C16.3291 -6.06274 16.2478 -2.40403 15.9226 -1.10316C15.5974 0.197711 15.0282 0.441624 14.4591 3.12467Z" fill="#CACACA"/>
<path d="M65.1555 113.941V120.852C65.1555 120.12 63.8547 116.136 62.066 115.567C60.2772 114.999 58.7326 115.811 58.4885 116.136C58.2447 116.462 60.3584 111.34 60.2772 110.201C60.196 109.063 58.8952 98.6561 58.7326 98.3308C58.5699 98.0056 59.139 99.1438 59.7893 99.3878C60.4399 99.6319 60.2772 99.7131 62.066 99.0626C63.8547 98.412 64.7491 95.7292 64.7491 95.7292C64.7491 95.7292 67.4319 96.0544 68.5704 95.5665C69.7086 95.0786 69.4647 95.3227 71.4159 92.9649C73.3672 90.6068 65.1555 111.502 65.1555 113.941Z" fill="#CACACA"/>
<path d="M71.334 90.9323C71.8916 81.7831 68.3769 69.7949 67.0248 69.8744C65.6726 69.954 65.3175 73.0452 64.5857 73.0454C63.854 73.0454 61.3335 70.1183 61.0895 71.1753C60.8456 72.2323 61.0083 82.558 60.4392 83.0458C59.8701 83.5338 57.9999 92.721 58.1625 94.6724C58.3252 96.6238 59.1383 98.5749 60.1139 98.8187C61.0895 99.0626 61.8212 98.4123 62.3905 98.0058C62.9596 97.5991 64.4231 93.6966 64.9108 93.6966C65.3987 93.6966 66.0448 94.9538 68.163 94.6724C70.2814 94.3907 71.5211 90.8929 71.334 90.9323Z" fill="#CACACA"/>
<path d="M70.5227 70.5245C70.5227 71.4189 69.7095 73.045 69.5469 73.3703C69.3842 73.6953 68.4087 69.7116 68.4087 69.7116C68.4087 69.7116 65.7256 61.9061 65.7256 60.9306C65.7256 59.955 64.9126 30.5228 66.7826 30.7666C68.6525 31.0105 70.0348 32.2301 70.5227 32.5554C71.0103 32.8806 72.1485 44.6698 71.9861 46.2959C71.8235 47.9218 71.173 57.4345 71.0103 58.3289C70.8477 59.2233 70.5227 69.6302 70.5227 70.5245Z" fill="#E74C3C"/>
<path d="M63.1237 28.5714C61.904 28.0023 59.1397 25.4818 58.408 25.3194C57.6763 25.1568 58.0827 26.9455 58.0827 26.9455L59.7903 40.3605L60.0341 54.9142L59.5462 65.1585L60.0341 70.9312C60.0341 70.9312 60.3594 72.6385 60.522 72.6385C60.6846 72.6385 60.522 71.2564 60.522 71.2564C60.522 71.2564 61.0097 69.6303 61.6602 69.7115C62.3107 69.7927 64.2619 72.232 64.6686 71.8255C65.075 71.4188 66.4571 68.4919 66.7823 68.3293C67.1076 68.1669 65.2377 64.752 64.831 63.9389C64.4245 63.1259 64.2619 54.9142 64.5059 54.1011C64.7498 53.2881 64.5059 32.3929 64.5059 32.3929C64.5059 32.3929 64.3433 29.1407 63.1237 28.5714Z" fill="#E74C3C"/>
<path d="M76.0506 36.7847C75.8067 39.7117 71.904 58.3305 71.9854 55.8912C72.0666 53.4522 73.0424 41.5004 72.3107 37.9229C71.579 34.3457 71.0099 29.5486 71.0099 24.1826C71.0099 18.8164 74.6685 17.4343 74.6685 17.4343C74.6685 17.4343 76.7823 16.2147 76.7823 19.3856C76.7823 22.5565 76.2946 33.8578 76.0506 36.7847Z" fill="#CACACA"/>
<path d="M70.6851 29.2224C70.6851 29.2224 71.0103 31.6617 69.4654 30.93C67.9208 30.198 58.2456 25.9702 57.6763 21.5799C57.6046 21.0262 57.4572 20.4415 57.5262 20.1976C57.5951 19.9537 58.0015 18.9781 58.0015 18.9781C60.6377 15.5789 61.9759 12.3909 64.3433 6.53852C64.5111 5.66431 64.6868 5.24858 66.132 5.56286C70.3705 6.96405 72.2349 8.87059 74.4252 14.7503C74.4252 14.7503 74.9943 16.0512 74.4252 16.539C73.8561 17.0268 73.0429 17.4333 73.0429 17.4333C73.0429 17.4333 70.8477 19.7099 70.6851 22.3116C70.5224 24.9132 70.6851 29.2224 70.6851 29.2224Z" fill="#CACACA"/>
<path d="M57.6777 -16.5527C57.6777 -15.821 56.8325 15.1137 57.2712 16.7821C57.7096 18.4506 61.2393 11.1509 62.7207 6.45645C64.2047 2.15701 65.3767 -0.397856 65.5641 -0.12921C68.1681 -2.84426 68.491 -1.67397 68.6537 -2.40574C68.8163 -3.13749 68.491 -7.04006 67.109 -9.56051C65.7267 -12.0809 64.4259 -14.0322 63.5315 -14.9266C62.6372 -15.821 62.4745 -15.9836 60.6858 -17.691C58.8973 -19.3984 59.4664 -19.2357 58.9785 -18.8292C58.4906 -18.4226 57.6777 -17.2844 57.6777 -16.5527Z" fill="#CACACA"/>
<path d="M75.2388 -1.02336C75.32 0.440121 76.7023 11.8228 76.2144 11.9854C75.7265 12.1479 73.206 7.59491 70.0352 6.13142C66.8642 4.66796 66.5392 5.15579 65.4008 4.58664C64.2626 4.01752 67.6774 -0.616835 68.3277 -1.02336C68.9782 -1.42988 70.0352 -2.64945 70.0352 -2.64945C70.0352 -2.64945 67.1895 -12.8125 66.5392 -13.1377C65.8887 -13.4629 70.5231 -12.0808 72.3116 -12.8125C74.1004 -13.5442 76.2144 -18.2599 76.7023 -18.2599C77.1899 -18.2599 74.7509 -8.99119 74.4256 -7.52772C74.1004 -6.06423 74.4256 -4.92596 74.4256 -4.92596C74.7432 -3.4019 75.1574 -2.48684 75.2388 -1.02336Z" fill="#CACACA"/>
<path d="M100.489 18.1641C99.3029 18.0014 96.1322 19.1397 95.8069 19.7088C95.4816 20.278 95.8069 21.0097 95.4816 22.7171C95.1564 24.4244 95.5295 23.7422 95.2856 25.6119C95.0416 27.4818 96.8303 30.0025 96.8303 30.0025C96.8303 30.0025 99.7572 33.0916 100.977 33.0106C102.196 32.9294 98.7817 31.466 99.2696 27.8071C99.7572 24.1484 100.164 24.1484 100.489 24.1484C100.814 24.1486 102.034 24.8801 102.44 24.8801C102.847 24.8804 104.066 24.3925 104.798 23.9046C105.53 23.4167 108.213 23.7417 108.945 23.6607C109.676 23.5795 104.181 18.5708 103.043 18.4893C101.905 18.4079 101.675 18.3267 100.489 18.1641Z" fill="#CACACA"/>
<path d="M102.44 38.4576C101.384 37.6447 99.0257 33.1731 99.0257 32.7664C99.0257 32.3594 100.814 33.661 101.139 33.8231C101.465 33.9855 101.953 33.0107 102.115 32.7664C102.278 32.5221 100.733 31.3031 100.57 31.0588C100.408 30.8145 99.7575 29.1891 99.8387 28.4572C99.9199 27.725 100.082 25.0428 100.733 25.0423C101.384 25.0421 101.953 25.3671 102.44 25.4488C102.928 25.5305 105.123 24.4728 105.53 24.392C105.937 24.3111 108.213 23.9853 109.026 24.392C109.839 24.7985 112.766 25.8555 113.01 26.262C113.254 26.6684 112.116 27.8066 111.384 27.8881C110.652 27.9693 108.538 27.2375 108.538 27.2375C108.538 27.2375 105.693 26.4246 106.099 27.2375C106.506 28.0507 110.896 35.6119 110.977 36.0186C111.059 36.425 111.221 37.4006 110.652 37.482C110.083 37.5632 110.083 37.3194 109.676 37.482C109.27 37.6447 110.083 39.4332 110.083 39.4332C110.083 39.4332 110.002 40.4902 109.433 40.4902C108.864 40.4902 108.116 39.9855 107.807 39.4332C107.497 38.8809 107.4 39.5958 107.4 39.5958C107.4 39.5958 107.075 40.3275 106.75 40.4902C106.424 40.6528 105.693 40.3275 105.367 40.0837C105.042 39.8399 103.66 37.7259 103.66 37.7259C103.66 37.7259 103.497 39.2705 102.44 38.4576Z" fill="#CACACA"/>
<path d="M98.0012 3.12467C98.5703 5.80772 102.31 16.9464 102.229 17.4343C102.148 17.9221 99.8711 17.1903 98.0012 17.9221C96.1312 18.6538 95.5621 19.2229 94.9928 19.0603C94.4237 18.8977 86.5373 0.360271 86.212 -0.696636C85.8867 -1.75355 83.6103 -7.68886 83.2851 -8.58316C82.9598 -9.47746 82.7974 -10.6158 83.2851 -11.1849C83.773 -11.754 84.8664 -8.7383 85.9682 -8.90838C87.07 -9.07846 87.2352 -10.1586 87.9195 -10.3719C88.6037 -10.5852 89.7895 -9.88409 90.1147 -10.3719C90.4398 -10.8596 90.0333 -15.0062 90.6024 -14.8436C91.1717 -14.681 94.9928 -8.82709 95.5621 -7.44491C96.1312 -6.06274 96.2124 -2.40403 96.5377 -1.10316C96.863 0.197711 97.4321 0.441624 98.0012 3.12467Z" fill="#CACACA"/>
</g>
</g>
<defs>
<clipPath id="clip0_1235_3178">
<rect width="112" height="112" rx="56" fill="white"/>
</clipPath>
</defs>
</svg>
