<svg width="112" height="112" viewBox="0 0 112 112" fill="none" xmlns="http://www.w3.org/2000/svg">
<g clip-path="url(#clip0_1235_3214)">
<rect width="112" height="112" rx="56" fill="white"/>
<mask id="mask0_1235_3214" style="mask-type:luminance" maskUnits="userSpaceOnUse" x="0" y="0" width="112" height="112">
<path d="M112 56C112 25.0721 86.9279 0 56 0C25.0721 0 0 25.0721 0 56C0 86.9279 25.0721 112 56 112C86.9279 112 112 86.9279 112 56Z" fill="white"/>
</mask>
<g mask="url(#mask0_1235_3214)">
<path d="M47.3053 131.441V138.352C47.3053 137.62 48.6061 133.636 50.3949 133.067C52.1836 132.499 53.7283 133.311 53.9723 133.636C54.2162 133.962 52.1024 128.84 52.1836 127.701C52.2648 126.563 53.5659 116.156 53.7283 115.831C53.8909 115.506 53.3218 116.644 52.6715 116.888C52.021 117.132 52.1836 117.213 50.3949 116.563C48.6061 115.912 47.7118 113.229 47.7118 113.229C47.7118 113.229 45.0289 113.554 43.8905 113.067C42.7523 112.579 42.9963 112.823 41.045 110.465C39.0936 108.107 47.3053 129.002 47.3053 131.441Z" fill="#CACACA"/>
<path d="M41.1264 108.433C40.5687 99.2838 44.0834 87.2956 45.4356 87.3751C46.7875 87.4545 47.1429 90.5459 47.8746 90.5459C48.6064 90.5459 51.1268 87.619 51.3707 88.676C51.6147 89.733 51.4521 100.058 52.0212 100.546C52.5903 101.034 54.4602 110.222 54.2976 112.173C54.135 114.124 53.322 116.076 52.3465 116.319C51.3707 116.563 50.6389 115.913 50.0698 115.506C49.5007 115.1 48.0373 111.197 47.5494 111.197C47.0617 111.197 46.4156 112.454 44.2972 112.173C42.1787 111.891 40.9393 108.393 41.1264 108.433Z" fill="#CACACA"/>
<path d="M41.94 88.0245C41.94 88.9189 42.753 90.545 42.9156 90.8703C43.0782 91.1953 44.054 87.2116 44.054 87.2116C44.054 87.2116 46.7369 79.4061 46.7369 78.4306C46.7369 77.455 47.5501 48.0228 45.6801 48.2666C43.81 48.5105 42.4279 49.7301 41.94 50.0554C41.4521 50.3806 40.3139 62.1698 40.4766 63.7959C40.6392 65.4218 41.2895 74.9345 41.4521 75.8289C41.6148 76.7233 41.94 87.1302 41.94 88.0245Z" fill="#CACACA"/>
<path d="M49.3383 46.0714C50.558 45.5023 53.3223 42.9818 54.054 42.8194C54.7857 42.6568 54.3793 44.4455 54.3793 44.4455L52.6717 57.8605L52.4279 72.4142L52.9158 82.6585L52.4279 88.4312C52.4279 88.4312 52.1026 90.1385 51.94 90.1385C51.7774 90.1385 51.94 88.7565 51.94 88.7565C51.94 88.7565 51.4523 87.1303 50.8018 87.2115C50.1513 87.2927 48.2001 89.732 47.7934 89.3255C47.387 88.9188 46.0049 85.9919 45.6797 85.8293C45.3544 85.6669 47.2243 82.252 47.631 81.4389C48.0375 80.6259 48.2001 72.4142 47.9561 71.6011C47.7122 70.7881 47.9561 49.8929 47.9561 49.8929C47.9561 49.8929 48.1187 46.6407 49.3383 46.0714Z" fill="#CACACA"/>
<path d="M36.4114 54.2848C36.6553 57.2117 40.5578 75.8305 40.4766 73.3913C40.3954 70.9522 39.4196 59.0004 40.1513 55.423C40.883 51.8457 41.4521 47.0486 41.4521 41.6827C41.4521 36.3165 37.7935 34.9344 37.7935 34.9344C37.7935 34.9344 35.6797 33.7148 35.6797 36.8856C35.6797 40.0566 36.1674 51.3578 36.4114 54.2848Z" fill="#E74C3C"/>
<path d="M41.7793 46.7219C41.7793 46.7219 41.454 49.161 42.9987 48.4292C44.5436 47.6975 54.2187 43.4697 54.7878 39.0793C54.8597 38.5256 55.0069 37.9409 54.9381 37.6971C54.8693 37.4532 54.4626 36.4774 54.4626 36.4774C51.8264 33.0782 50.4884 29.8902 48.1208 24.038C47.9533 23.1637 47.7776 22.748 46.3323 23.0622C42.0938 24.4633 40.2295 26.3699 38.0392 32.2497C38.0392 32.2497 37.4701 33.5505 38.0392 34.0384C38.6083 34.5261 39.4214 34.9328 39.4214 34.9328C39.4214 34.9328 41.6166 37.2092 41.7793 39.8111C41.9417 42.4127 41.7793 46.7219 41.7793 46.7219Z" fill="#E74C3C"/>
<path d="M54.7843 0.947289C54.7843 1.67897 55.6295 32.6137 55.1908 34.282C54.7524 35.9506 51.2227 28.6508 49.7413 23.9566C48.2573 19.657 47.0853 17.1021 46.8979 17.3708C44.2939 14.6557 43.971 15.826 43.8083 15.0943C43.6457 14.3625 43.971 10.4599 45.353 7.93949C46.7353 5.41905 48.0361 3.46775 48.9305 2.57339C49.8248 1.67903 49.9875 1.51644 51.7762 -0.190974C53.5647 -1.89839 52.9956 -1.73569 53.4835 -1.32916C53.9714 -0.922642 54.7843 0.215611 54.7843 0.947289Z" fill="#CACACA"/>
<path d="M37.2232 16.4771C37.142 17.9406 35.7597 29.3232 36.2476 29.4858C36.7355 29.6485 39.256 25.0954 42.4268 23.632C45.5975 22.1684 45.9228 22.6563 47.0612 22.0872C48.1994 21.518 44.7846 16.8837 44.1341 16.4771C43.4838 16.0706 42.4268 14.851 42.4268 14.851C42.4268 14.851 45.2725 4.688 45.9228 4.36278C46.5733 4.03756 41.9389 5.41973 40.1504 4.688C38.3616 3.95627 36.2476 -0.759399 35.7597 -0.759399C35.2721 -0.759399 37.7111 8.5093 38.0364 9.97279C38.3616 11.4363 38.0364 12.5745 38.0364 12.5745C37.7188 14.0986 37.3046 15.0137 37.2232 16.4771Z" fill="#CACACA"/>
<path d="M41.2078 -10.5963C41.2078 -10.5963 35.8419 -12.0598 35.1913 -12.385C34.541 -12.7102 34.7037 -8.72641 34.7849 -7.01892C34.8661 -5.31146 35.9231 -1.40892 36.9801 -0.0267429C38.0371 1.35543 39.5005 4.20117 42.8339 4.11978C46.1676 4.03842 48.5254 1.76203 48.8504 1.35543C49.1757 0.948838 52.1841 -1.73407 52.4279 -3.11631C52.672 -4.49857 50.1513 -7.18146 49.9889 -7.50675C49.8262 -7.83204 47.7122 -11.328 47.1431 -11.1655C46.574 -11.0029 44.1406 -10.4382 41.2078 -10.5963Z" fill="#CACACA"/>
<path d="M25.4359 -13.767C26.4115 -14.0108 29.3384 -13.767 31.2086 -14.4174C33.0785 -15.0679 32.428 -15.1492 33.1597 -14.9053C33.8914 -14.6613 33.8914 -8.40089 33.8914 -8.40089C33.8914 -8.40089 33.729 -4.98604 33.1597 -3.68523C32.5906 -2.38444 30.7207 -0.514285 30.0701 0.461298C29.4198 1.43688 27.7123 7.20965 26.7367 7.12828C25.7612 7.0469 24.6227 7.12828 23.7284 6.47784C22.8341 5.8274 22.9154 3.38818 22.9154 1.84347C22.9154 0.298759 23.7284 -2.38444 23.7284 -3.44132C23.7284 -4.49821 23.2406 -4.98618 23.1593 -6.28699C23.078 -7.58777 24.4601 -13.5231 25.4359 -13.767Z" fill="#CACACA"/>
<path d="M11.9724 35.6645C13.1584 35.5019 16.3293 36.6403 16.6545 37.2094C16.9797 37.7785 16.6545 38.5103 16.9798 40.2176C17.305 41.9251 16.9319 41.2426 17.1758 43.1125C17.4198 44.9825 15.6311 47.5029 15.6311 47.5029C15.6311 47.5029 12.7041 50.5923 11.4845 50.5111C10.265 50.4299 13.6798 48.9664 13.1919 45.3077C12.7041 41.6491 12.2976 41.6488 11.9724 41.6491C11.6471 41.6491 10.4276 42.3806 10.021 42.3808C9.61453 42.3808 8.39497 41.8931 7.66321 41.405C6.93148 40.9171 4.24842 41.2424 3.51669 41.1612C2.78496 41.08 8.28012 36.0712 9.41844 35.9898C10.5568 35.9084 10.7863 35.8272 11.9724 35.6645Z" fill="#CACACA"/>
<path d="M10.0205 55.958C11.0774 55.145 13.4352 50.6737 13.4352 50.2667C13.4352 49.8598 11.6465 51.1616 11.3213 51.3237C10.9961 51.4859 10.5083 50.511 10.3457 50.2667C10.1831 50.0224 11.7278 48.8037 11.8905 48.5594C12.0531 48.3151 12.7035 46.6897 12.6222 45.9575C12.5409 45.2256 12.3783 42.5432 11.7278 42.5429C11.0774 42.5425 10.5083 42.8677 10.0205 42.9494C9.53262 43.0311 7.3374 41.9734 6.93089 41.8924C6.52435 41.8114 4.24783 41.4859 3.43478 41.8924C2.62173 42.2989 -0.305218 43.3559 -0.549133 43.7623C-0.793046 44.169 0.345217 45.3072 1.07696 45.3884C1.8087 45.4699 3.92261 44.7381 3.92261 44.7381C3.92261 44.7381 6.76828 43.925 6.36174 44.7381C5.95523 45.5511 1.56478 53.1125 1.48348 53.5189C1.40217 53.9254 1.23957 54.9012 1.8087 54.9824C2.37783 55.0638 2.37783 54.8198 2.78434 54.9824C3.19088 55.145 2.37783 56.9338 2.37783 56.9338C2.37783 56.9338 2.45912 57.9908 3.02827 57.9908C3.59739 57.9908 4.34462 57.4861 4.65435 56.9338C4.96407 56.3815 5.06088 57.0964 5.06088 57.0964C5.06088 57.0964 5.3861 57.8281 5.7113 57.9908C6.03652 58.1534 6.76828 57.8281 7.0935 57.5841C7.41869 57.3402 8.80089 55.2262 8.80089 55.2262C8.80089 55.2262 8.9635 56.7711 10.0205 55.958Z" fill="#CACACA"/>
<path d="M14.4602 20.6247C13.8911 23.3077 10.1511 34.4465 10.2324 34.9342C10.3137 35.4221 12.5902 34.6903 14.4602 35.4221C16.3303 36.1538 16.8994 36.7229 17.4685 36.5603C18.0376 36.3976 25.9243 17.8603 26.2493 16.8034C26.5746 15.7465 28.8512 9.81114 29.1765 8.91684C29.5015 8.02254 29.6641 6.88418 29.1765 6.31508C28.6886 5.746 27.5952 8.7617 26.4934 8.59162C25.3916 8.42154 25.2264 7.34144 24.542 7.12813C23.8576 6.91482 22.672 7.61591 22.3468 7.12813C22.0216 6.64037 22.4281 2.49378 21.859 2.65639C21.2898 2.819 17.4685 8.67291 16.8994 10.0551C16.3302 11.4373 16.249 15.096 15.9237 16.3968C15.5985 17.6977 15.0293 17.9416 14.4602 20.6247Z" fill="#CACACA"/>
<path d="M30.0708 2.25008C30.0708 2.25008 28.6172 4.3887 28.5259 5.58355C28.4347 6.77843 30.8828 3.36315 31.2905 2.25008C31.2905 2.25008 32.9978 -1.65254 32.9978 -1.97776C32.9978 -2.30297 30.0708 2.25008 30.0708 2.25008Z" fill="#CACACA"/>
<path d="M51.1261 -7.99491C53.484 -5.55578 55.0289 0.13553 55.0289 -0.27099C55.0289 -0.677513 55.4353 -22.2232 55.0289 -24.0931C54.6224 -25.9632 52.9149 -30.5975 51.1261 -31.3292C49.3374 -32.0612 44.3779 -31.7359 43.1585 -31.6545C41.9389 -31.5733 36.6541 -30.3537 37.6297 -30.191C38.6052 -30.0284 40.9631 -28.9714 41.9389 -26.0444C42.9144 -23.1175 43.1585 -19.8654 44.3779 -17.5075C45.5975 -15.1497 48.7683 -10.4341 51.1261 -7.99491Z" fill="#CACACA"/>
<path d="M65.1555 131.441V138.352C65.1555 137.62 63.8547 133.636 62.066 133.067C60.2772 132.499 58.7326 133.311 58.4885 133.636C58.2447 133.962 60.3584 128.84 60.2772 127.701C60.196 126.563 58.8952 116.156 58.7326 115.831C58.5699 115.506 59.139 116.644 59.7893 116.888C60.4399 117.132 60.2772 117.213 62.066 116.563C63.8547 115.912 64.7491 113.229 64.7491 113.229C64.7491 113.229 67.4319 113.554 68.5704 113.067C69.7086 112.579 69.4647 112.823 71.4159 110.465C73.3672 108.107 65.1555 129.002 65.1555 131.441Z" fill="#CACACA"/>
<path d="M71.3356 108.433C71.8933 99.2838 68.3786 87.2956 67.0264 87.3751C65.6745 87.4545 65.3191 90.5459 64.5874 90.5459C63.8556 90.5459 61.3352 87.619 61.0913 88.676C60.8473 89.733 61.0099 100.058 60.4408 100.546C59.8717 101.034 58.0018 110.222 58.1644 112.173C58.327 114.124 59.14 116.076 60.1155 116.319C61.0913 116.563 61.8231 115.913 62.3922 115.506C62.9613 115.1 64.4247 111.197 64.9126 111.197C65.4003 111.197 66.0464 112.454 68.1648 112.173C70.2833 111.891 71.5227 108.393 71.3356 108.433Z" fill="#CACACA"/>
<path d="M70.5227 88.0245C70.5227 88.9189 69.7095 90.545 69.5469 90.8703C69.3842 91.1953 68.4087 87.2116 68.4087 87.2116C68.4087 87.2116 65.7256 79.4061 65.7256 78.4306C65.7256 77.455 64.9126 48.0228 66.7826 48.2666C68.6525 48.5105 70.0348 49.7301 70.5227 50.0554C71.0103 50.3806 72.1485 62.1698 71.9861 63.7959C71.8235 65.4218 71.173 74.9345 71.0103 75.8289C70.8477 76.7233 70.5227 87.1302 70.5227 88.0245Z" fill="#CACACA"/>
<path d="M63.1225 46.0714C61.9029 45.5023 59.1386 42.9818 58.4068 42.8194C57.6751 42.6568 58.0816 44.4455 58.0816 44.4455L59.7891 57.8605L60.0329 72.4142L59.545 82.6585L60.0329 88.4312C60.0329 88.4312 60.3582 90.1385 60.5208 90.1385C60.6835 90.1385 60.5208 88.7565 60.5208 88.7565C60.5208 88.7565 61.0085 87.1303 61.659 87.2115C62.3096 87.2927 64.2607 89.732 64.6674 89.3255C65.0739 88.9188 66.4559 85.9919 66.7812 85.8293C67.1064 85.6669 65.2365 82.252 64.83 81.4389C64.4233 80.6259 64.2607 72.4142 64.5048 71.6011C64.7486 70.7881 64.5048 49.8929 64.5048 49.8929C64.5048 49.8929 64.3421 46.6407 63.1225 46.0714Z" fill="#CACACA"/>
<path d="M76.0524 54.2848C75.8084 57.2117 71.9059 75.8305 71.9871 73.3913C72.0685 70.9522 73.0441 59.0004 72.3123 55.423C71.5806 51.8457 71.0115 47.0486 71.0115 41.6827C71.0115 36.3165 74.6702 34.9344 74.6702 34.9344C74.6702 34.9344 76.7842 33.7148 76.7842 36.8856C76.7842 40.0566 76.2963 51.3578 76.0524 54.2848Z" fill="#E74C3C"/>
<path d="M70.6846 46.7219C70.6846 46.7219 71.0099 49.161 69.465 48.4292C67.9201 47.6975 58.2449 43.4697 57.6758 39.0793C57.6039 38.5256 57.4567 37.9409 57.5255 37.6971C57.5946 37.4532 58.0011 36.4774 58.0011 36.4774C60.6373 33.0782 61.9752 29.8902 64.3428 24.038C64.5104 23.1637 64.6861 22.748 66.1316 23.0622C70.3701 24.4633 72.2342 26.3699 74.4245 32.2497C74.4245 32.2497 74.9936 33.5505 74.4245 34.0384C73.8554 34.5261 73.0424 34.9328 73.0424 34.9328C73.0424 34.9328 70.8472 37.2092 70.6846 39.8111C70.522 42.4127 70.6846 46.7219 70.6846 46.7219Z" fill="#E74C3C"/>
<path d="M57.6763 0.947289C57.6763 1.67897 56.8311 32.6137 57.2698 34.282C57.7082 35.9506 61.2379 28.6508 62.7191 23.9566C64.2033 19.657 65.3753 17.1021 65.5627 17.3708C68.1667 14.6557 68.4896 15.826 68.6523 15.0943C68.8149 14.3625 68.4896 10.4599 67.1076 7.93949C65.7253 5.41905 64.4245 3.46775 63.5301 2.57339C62.6358 1.67903 62.4731 1.51644 60.6844 -0.190974C58.8957 -1.89839 59.465 -1.73569 58.9771 -1.32916C58.4892 -0.922642 57.6763 0.215611 57.6763 0.947289Z" fill="#CACACA"/>
<path d="M75.2393 16.4771C75.3207 17.9406 76.7027 29.3232 76.2148 29.4858C75.7272 29.6485 73.2067 25.0954 70.0357 23.632C66.8649 22.1684 66.5397 22.6563 65.4015 22.0872C64.2633 21.518 67.6779 16.8837 68.3284 16.4771C68.9789 16.0706 70.0357 14.851 70.0357 14.851C70.0357 14.851 67.1902 4.688 66.5397 4.36278C65.8891 4.03756 70.5236 5.41973 72.3123 4.688C74.1011 3.95627 76.2148 -0.759399 76.7027 -0.759399C77.1906 -0.759399 74.7514 8.5093 74.4263 9.97279C74.1011 11.4363 74.4263 12.5745 74.4263 12.5745C74.7437 14.0986 75.1578 15.0137 75.2393 16.4771Z" fill="#CACACA"/>
<path d="M71.2535 -10.5963C71.2535 -10.5963 76.6197 -12.0598 77.27 -12.385C77.9205 -12.7102 77.7579 -8.72641 77.6767 -7.01892C77.5952 -5.31146 76.5382 -1.40892 75.4812 -0.0267429C74.4245 1.35543 72.961 4.20117 69.6274 4.11978C66.294 4.03842 63.9361 1.76203 63.6109 1.35543C63.2856 0.948838 60.2775 -1.73407 60.0334 -3.11631C59.7896 -4.49857 62.31 -7.18146 62.4727 -7.50675C62.6353 -7.83204 64.7491 -11.328 65.3182 -11.1655C65.8875 -11.0029 68.3207 -10.4382 71.2535 -10.5963Z" fill="#CACACA"/>
<path d="M87.0271 -13.767C86.0512 -14.0108 83.1243 -13.767 81.2544 -14.4174C79.3845 -15.0679 80.0348 -15.1492 79.303 -14.9053C78.5713 -14.6613 78.5713 -8.40089 78.5713 -8.40089C78.5713 -8.40089 78.7339 -4.98604 79.303 -3.68523C79.8724 -2.38444 81.7423 -0.514285 82.3926 0.461298C83.0431 1.43688 84.7504 7.20965 85.7262 7.12828C86.7018 7.0469 87.84 7.12828 88.7344 6.47784C89.6287 5.8274 89.5475 3.38818 89.5475 1.84347C89.5475 0.298759 88.7344 -2.38444 88.7344 -3.44132C88.7344 -4.49821 89.2223 -4.98618 89.3035 -6.28699C89.3849 -7.58777 88.0026 -13.5231 87.0271 -13.767Z" fill="#CACACA"/>
<path d="M100.489 35.6645C99.3029 35.5019 96.1322 36.6403 95.8069 37.2094C95.4816 37.7785 95.8069 38.5103 95.4816 40.2176C95.1564 41.9251 95.5295 41.2426 95.2856 43.1125C95.0416 44.9825 96.8303 47.5029 96.8303 47.5029C96.8303 47.5029 99.7572 50.5923 100.977 50.5111C102.197 50.4299 98.7817 48.9664 99.2696 45.3077C99.7572 41.6491 100.164 41.6488 100.489 41.6491C100.814 41.6491 102.034 42.3806 102.44 42.3808C102.847 42.3808 104.066 41.8931 104.798 41.405C105.53 40.9171 108.213 41.2424 108.945 41.1612C109.676 41.08 104.181 36.0712 103.043 35.9898C101.905 35.9084 101.675 35.8272 100.489 35.6645Z" fill="#CACACA"/>
<path d="M102.441 55.958C101.384 55.145 99.0262 50.6737 99.0262 50.2667C99.0262 49.8598 100.815 51.1616 101.14 51.3237C101.465 51.4859 101.953 50.511 102.116 50.2667C102.278 50.0224 100.734 48.8037 100.571 48.5594C100.408 48.3151 99.7579 46.6897 99.8394 45.9575C99.9206 45.2256 100.083 42.5432 100.734 42.5429C101.384 42.5425 101.953 42.8677 102.441 42.9494C102.929 43.0311 105.124 41.9734 105.531 41.8924C105.937 41.8114 108.214 41.4859 109.027 41.8924C109.84 42.2989 112.767 43.3559 113.011 43.7623C113.254 44.169 112.116 45.3072 111.384 45.3884C110.653 45.4699 108.539 44.7381 108.539 44.7381C108.539 44.7381 105.693 43.925 106.1 44.7381C106.506 45.5511 110.897 53.1125 110.978 53.5189C111.059 53.9254 111.222 54.9012 110.653 54.9824C110.084 55.0638 110.084 54.8198 109.677 54.9824C109.27 55.145 110.084 56.9338 110.084 56.9338C110.084 56.9338 110.002 57.9908 109.433 57.9908C108.864 57.9908 108.117 57.4861 107.807 56.9338C107.497 56.3815 107.401 57.0964 107.401 57.0964C107.401 57.0964 107.075 57.8281 106.75 57.9908C106.425 58.1534 105.693 57.8281 105.368 57.5841C105.043 57.3402 103.661 55.2262 103.661 55.2262C103.661 55.2262 103.498 56.7711 102.441 55.958Z" fill="#CACACA"/>
<path d="M98.0028 20.6247C98.5719 23.3077 102.312 34.4465 102.231 34.9342C102.149 35.4221 99.873 34.6903 98.0028 35.4221C96.1329 36.1538 95.5638 36.7229 94.9947 36.5603C94.4256 36.3976 86.5389 17.8603 86.2139 16.8034C85.8886 15.7465 83.612 9.81114 83.2867 8.91684C82.9614 8.02254 82.799 6.88418 83.2867 6.31508C83.7746 5.746 84.868 8.7617 85.9698 8.59162C87.0716 8.42154 87.2368 7.34144 87.9212 7.12813C88.6055 6.91482 89.7911 7.61591 90.1164 7.12813C90.4416 6.64037 90.0349 2.49378 90.6043 2.65639C91.1734 2.819 94.9947 8.67291 95.5638 10.0551C96.1329 11.4373 96.2141 15.096 96.5393 16.3968C96.8646 17.6977 97.4337 17.9416 98.0028 20.6247Z" fill="#CACACA"/>
<path d="M82.3919 2.25008C82.3919 2.25008 83.8453 4.3887 83.9365 5.58355C84.0278 6.77843 81.5796 3.36315 81.1722 2.25008C81.1722 2.25008 79.4649 -1.65254 79.4649 -1.97776C79.4647 -2.30297 82.3919 2.25008 82.3919 2.25008Z" fill="#CACACA"/>
<path d="M61.3347 -7.99491C58.9769 -5.55578 57.432 0.13553 57.432 -0.27099C57.432 -0.677513 57.0255 -22.2232 57.432 -24.0931C57.8387 -25.9632 59.546 -30.5975 61.3347 -31.3292C63.1234 -32.0612 68.0829 -31.7359 69.3026 -31.6545C70.522 -31.5733 75.8067 -30.3537 74.8312 -30.191C73.8556 -30.0284 71.4978 -28.9714 70.522 -26.0444C69.5464 -23.1175 69.3026 -19.8654 68.0829 -17.5075C66.8633 -15.1497 63.6925 -10.4341 61.3347 -7.99491Z" fill="#CACACA"/>
</g>
</g>
<defs>
<clipPath id="clip0_1235_3214">
<rect width="112" height="112" rx="56" fill="white"/>
</clipPath>
</defs>
</svg>
