<svg width="112" height="112" viewBox="0 0 112 112" fill="none" xmlns="http://www.w3.org/2000/svg">
<g clip-path="url(#clip0_1234_2198)">
<rect width="112" height="112" rx="56" fill="white"/>
<mask id="mask0_1234_2198" style="mask-type:luminance" maskUnits="userSpaceOnUse" x="0" y="0" width="112" height="112">
<path d="M112 56C112 25.0721 86.9279 0 56 0C25.0721 0 0 25.0721 0 56C0 86.9279 25.0721 112 56 112C86.9279 112 112 86.9279 112 56Z" fill="white"/>
</mask>
<g mask="url(#mask0_1234_2198)">
<path d="M54.2845 31.4638C53.1804 31.2274 53.2203 31.3758 53.6536 32.1738C54.7311 34.4551 55.1248 36.0684 55.6257 39.2732C55.9645 40.2136 56.1545 40.0178 56.4933 39.2732C56.8367 36.3636 57.1762 34.7846 58.3865 32.1738C58.9272 31.437 58.7953 31.2683 57.6765 31.4638C56.4536 31.6997 55.3889 31.7002 54.2845 31.4638Z" fill="#CACACA"/>
<path d="M53.3155 115.529C53.3946 116.396 52.6052 143.611 52.1323 139.667C51.6593 135.723 35.9613 96.2815 39.2744 102.277C42.5875 108.272 53.2362 114.661 53.3155 115.529Z" fill="#CACACA"/>
<path d="M37.4614 138.563C37.4614 138.563 41.09 163.569 41.6421 163.805C42.1944 164.041 46.5327 156.075 47.5582 151.578C48.5837 147.081 48.1894 134.777 47.9528 132.41C47.716 130.043 39.0418 104.728 38.5658 102.829C38.0898 100.931 36.3711 97.4757 36.0416 98.4118C35.7119 99.3482 33.8263 116.755 34.3849 115.924C34.6085 123.232 35.1097 127.916 37.4614 138.563Z" fill="#CACACA"/>
<path d="M32.2852 63.9809C31.9697 64.9276 28.42 75.7344 28.8932 76.1287C29.3666 76.5233 29.9187 75.2612 31.1019 72.8947C32.2852 70.528 33.4684 64.691 33.3107 64.2175C33.1529 63.7443 32.6009 63.0343 32.2852 63.9809Z" fill="#CACACA"/>
<path d="M28.2604 46.3113C31.1003 44.0237 34.65 41.4204 36.1487 41.815C37.6474 42.2093 39.1461 43.8657 39.1461 43.8657C39.1461 43.8657 39.5407 44.3392 39.1461 45.6013C38.7518 46.8634 38.1997 49.3876 35.8332 52.3852C33.4668 55.3826 27.3138 57.4336 27.3138 57.4336C27.3138 57.4336 24.8684 58.7746 24.3164 59.4057C23.7641 60.0367 24.7107 54.2782 24.7107 54.2782C24.7107 54.2782 25.4207 48.5987 28.2604 46.3113Z" fill="#CACACA"/>
<path d="M23.0564 65.3198C22.3465 69.895 21.9521 85.3559 22.5042 84.6458C23.0564 83.936 25.9751 78.8085 27.0004 77.6253C28.0259 76.4423 29.0514 72.0246 29.6826 70.3682C30.3135 68.7117 31.791 63.5051 32.1279 58.5358C32.1279 58.5358 32.1279 56.4062 30.0769 57.1949C28.0259 57.9838 26.6849 59.2459 26.6849 59.2459C26.6849 59.2459 23.7664 60.7446 23.0564 65.3198Z" fill="#CACACA"/>
<path d="M22.6623 85.4366C25.4233 81.0191 28.263 76.6016 28.815 77.4694C29.3673 78.3372 29.3673 80.0725 29.3673 80.0725C28.7674 82.3393 28.1673 83.7043 26.8431 86.2253C25.8564 90.4129 24.8948 92.5985 23.1356 96.48C23.2245 96.0892 17.3702 110.6 17.0617 111.073C16.7532 111.547 16.9039 107.918 17.0617 106.577C17.2195 105.236 19.9014 89.8538 22.6623 85.4366Z" fill="#CACACA"/>
<path d="M16.5097 101.449C15.3265 103.184 10.988 106.576 10.5147 106.261C10.0414 105.945 12.8023 99.7924 12.8023 99.7924C13.7204 97.24 14.1696 95.4233 14.6954 90.5632C14.6954 90.5632 15.642 84.9625 15.7209 84.3315C15.7998 83.7006 18.6395 77.7053 19.5861 76.8378C20.5327 75.97 20.5327 75.4966 21.1638 76.9955C21.7948 78.4942 21.7948 81.4919 21.7948 81.4919C21.7948 81.4919 21.6371 85.6725 20.375 88.9856C19.1128 92.2987 17.693 97.5837 17.693 97.5837C17.693 97.5837 17.693 99.7136 16.5097 101.449Z" fill="#CACACA"/>
<path d="M11.5968 107.69C12.3855 107.375 16.0142 102.957 16.3297 103.51C16.6453 104.062 15.3831 111.24 15.8564 112.581C16.3297 113.922 16.4086 113.528 16.6453 115.342C16.8819 117.156 15.1465 119.602 15.1465 119.602C15.1465 119.602 12.3067 122.599 11.1235 122.52C9.94027 122.441 13.2533 121.021 12.78 117.472C12.3067 113.922 11.9123 113.922 11.5968 113.922C11.2813 113.922 10.098 114.632 9.70363 114.632C9.30922 114.632 8.12599 114.159 7.41605 113.685C6.70611 113.212 4.103 113.527 3.39306 113.449C2.68312 113.37 7.88927 108.479 8.99369 108.4C10.0981 108.321 10.8081 108.006 11.5968 107.69Z" fill="#CACACA"/>
<path d="M100.881 107.69C100.092 107.375 96.4633 102.957 96.1476 103.51C95.8321 104.062 97.0942 111.24 96.621 112.581C96.1476 113.922 96.0687 113.528 95.8321 115.342C95.5955 117.156 97.3308 119.602 97.3308 119.602C97.3308 119.602 100.171 122.599 101.354 122.52C102.537 122.441 99.2241 121.021 99.6973 117.472C100.171 113.922 100.565 113.922 100.881 113.922C101.196 113.922 102.379 114.632 102.774 114.632C103.168 114.632 104.351 114.159 105.061 113.685C105.771 113.212 108.374 113.527 109.084 113.449C109.794 113.37 104.588 108.479 103.484 108.4C102.379 108.321 101.669 108.006 100.881 107.69Z" fill="#CACACA"/>
<path d="M54.7629 97.888C54.7629 97.888 54.9717 109.93 53.9742 110.64C52.9765 111.35 51.4778 110.482 51.4778 110.482C49.8003 108.824 49.1514 106.733 47.5057 101.596C46.5204 96.7078 45.829 93.7489 46.1137 90.2095C46.4347 89.7629 47.5356 89.6054 47.5356 89.6054C47.5356 89.6054 53.2919 89.0262 54.0038 91.3136C54.7155 93.6012 54.5181 93.5167 54.7629 97.888Z" fill="#CACACA"/>
<path d="M42.7943 88.9886C43.1951 98.4197 47.3639 106.401 48.2372 107.053C49.1106 107.704 45.1607 107.053 40.9801 102.083C36.7992 97.1135 35.5371 92.3017 35.5371 92.3017C35.0212 91.2396 35.9469 81.5987 36.7992 82.3624C37.6516 83.1261 37.6602 84.9725 39.8757 86.6222C42.0912 88.2718 40.6063 87.1105 41.6901 87.9631C41.9734 88.1862 42.7618 88.221 42.7943 88.9886Z" fill="#CACACA"/>
<path d="M42.487 81.0593C42.4307 85.4273 43.9028 85.2408 43.5125 85.9499C43.1221 86.6588 41.7769 87.9218 39.6471 84.8456C37.5174 81.7691 38.0161 81.8132 37.5174 81.0593C37.0186 80.3051 37.1975 76.4066 36.3298 73.8824C35.462 71.3582 35.994 71.1837 35.6197 69.6227C35.2457 68.0617 35.7819 63.1136 37.9906 62.8373C40.1994 62.5611 42.7236 64.336 43.1179 65.4404C43.5125 66.5448 43.2838 68.0465 43.1179 69.6227C42.9522 71.1988 43.004 73.0921 42.8024 75.1431C42.6011 77.1939 42.543 76.691 42.487 81.0593Z" fill="#CACACA"/>
<path d="M44.2997 43.4319C43.1954 43.9051 41.381 45.9561 40.04 47.9283C38.699 49.9004 36.6333 52.3336 35.6228 54.5542C33.9582 56.3201 33.9134 56.5786 34.755 57.473C35.5966 58.3671 35.5439 58.2617 41.4601 61.3382C47.3762 64.4144 54.0811 64.4935 54.4756 61.5748C54.87 58.6562 54.4756 56.6841 54.4756 52.2666C54.4756 47.8492 54.3179 47.0605 52.6612 44.9306C51.0046 42.8008 45.4041 42.9585 44.2997 43.4319Z" fill="#CACACA"/>
<path d="M45.4067 84.2128C45.5644 82.793 47.5363 79.6376 50.2185 80.111C51.9006 80.4078 52.3416 80.4874 52.4363 80.5056C52.567 80.5098 54.026 80.6013 54.478 82.6352C54.9514 84.7651 54.478 86.4215 54.478 86.4215C54.478 86.4215 54.7934 88.8669 51.7172 88.8669C48.6407 88.8669 48.7984 88.8669 46.7476 88.2359C44.6966 87.6048 45.2487 85.6329 45.4067 84.2128Z" fill="#CACACA"/>
<path d="M44.7748 76.6416C45.0114 75.5372 47.1702 73.5653 48.7977 72.7764C50.4252 71.9875 50.6121 71.3566 51.8742 71.4354C53.1363 71.5143 54.1119 71.5932 54.5853 73.723C55.0585 75.8527 54.5853 78.5348 54.5853 78.5348C54.5853 78.5348 54.9505 79.4812 51.8742 79.4812C48.7977 79.4812 48.5611 80.1913 46.6681 79.8756C44.7748 79.5601 44.5382 77.7459 44.7748 76.6416Z" fill="#CACACA"/>
<path d="M45.0898 69.7783C45.3264 68.6739 46.3808 66.7809 48.0083 65.992C49.6358 65.2031 50.5325 64.5719 51.7127 64.5787C52.8927 64.5855 53.2147 64.0987 54.2399 65.3608C55.2654 66.6229 55.4232 68.5162 54.4238 69.3905C53.4242 70.2648 54.0033 70.3304 52.0314 70.6458C50.0593 70.9615 48.0872 73.0914 46.1941 72.7757C44.3009 72.4602 44.8532 70.8824 45.0898 69.7783Z" fill="#CACACA"/>
<path d="M48.1644 34.7547C47.4544 35.5436 36.8842 41.0655 37.7519 41.4598C38.6197 41.8541 48.1644 41.3021 50.2943 41.8541C52.4239 42.4064 53.134 43.984 53.134 43.984C54.5085 45.8994 55.2638 45.325 55.737 43.7474C56.2105 42.1698 52.0296 30.4952 49.8997 29.5486C47.7699 28.602 48.0067 28.6808 47.7699 29.9429C47.5333 31.205 48.8742 33.9661 48.1644 34.7547Z" fill="#E74C3C"/>
<path d="M59.1446 115.461C59.0653 116.328 59.8549 143.542 60.3279 139.598C60.8008 135.654 76.4986 96.2131 73.1855 102.208C69.8726 108.203 59.2237 114.593 59.1446 115.461Z" fill="#CACACA"/>
<path d="M74.9977 138.494C74.9977 138.494 71.3692 163.5 70.8171 163.736C70.2648 163.972 65.9262 156.006 64.9009 151.51C63.8754 147.013 64.2698 134.708 64.5064 132.341C64.743 129.974 73.4174 104.659 73.8934 102.76C74.3694 100.862 76.0881 97.4066 76.4176 98.343C76.7471 99.2794 78.6326 116.686 78.0742 115.855C77.8507 123.163 77.3495 127.847 74.9977 138.494Z" fill="#CACACA"/>
<path d="M80.1738 63.9102C80.4895 64.8568 84.0392 75.6637 83.5658 76.0582C83.0926 76.4526 82.5402 75.1905 81.357 72.824C80.1738 70.4575 78.9906 64.6202 79.1485 64.147C79.3063 63.6736 79.8583 62.9638 80.1738 63.9102Z" fill="#CACACA"/>
<path d="M84.1976 46.2406C81.3577 43.953 77.808 41.3499 76.3093 41.7443C74.8106 42.1386 73.3119 43.7953 73.3119 43.7953C73.3119 43.7953 72.9174 44.2685 73.3119 45.5306C73.7063 46.7927 74.2583 49.3169 76.6248 52.3145C78.9913 55.3119 85.144 57.3629 85.144 57.3629C85.144 57.3629 87.5896 58.7039 88.1417 59.335C88.6937 59.966 87.7473 54.2075 87.7473 54.2075C87.7473 54.2075 87.0373 48.5282 84.1976 46.2406Z" fill="#CACACA"/>
<path d="M89.4038 65.2514C90.1138 69.8266 90.5081 85.2875 89.9561 84.5775C89.4038 83.8677 86.4852 78.7402 85.4597 77.5569C84.4342 76.3739 83.4087 71.9562 82.7778 70.2998C82.1466 68.6434 80.6694 63.4368 80.3325 58.4675C80.3325 58.4675 80.3325 56.3378 82.3835 57.1265C84.4342 57.9154 85.7752 59.1775 85.7752 59.1775C85.7752 59.1775 88.694 60.6762 89.4038 65.2514Z" fill="#CACACA"/>
<path d="M89.799 85.3682C87.0382 80.9507 84.1985 76.5333 83.6462 77.4011C83.0942 78.2688 83.0942 80.0041 83.0942 80.0041C83.6941 82.2709 84.2942 83.6362 85.6184 86.1569C86.6049 90.3445 87.5667 92.5302 89.3258 96.4117C89.2369 96.0208 95.0912 110.531 95.3997 111.005C95.7082 111.478 95.5574 107.85 95.3997 106.508C95.242 105.167 92.56 89.7854 89.799 85.3682Z" fill="#CACACA"/>
<path d="M95.9506 101.381C97.1339 103.116 101.472 106.508 101.946 106.192C102.419 105.877 99.6581 99.7241 99.6581 99.7241C98.7399 97.1716 98.2907 95.3549 97.7648 90.4948C97.7648 90.4948 96.8184 84.8941 96.7393 84.2632C96.6604 83.6322 93.8208 77.637 92.8741 76.7694C91.9275 75.9017 91.9275 75.4282 91.2966 76.9272C90.6654 78.4259 90.6654 81.4235 90.6654 81.4235C90.6654 81.4235 90.8231 85.6041 92.0852 88.9172C93.3476 92.2303 94.7674 97.5154 94.7674 97.5154C94.7674 97.5154 94.7674 99.6452 95.9506 101.381Z" fill="#CACACA"/>
<path d="M57.6961 97.8168C57.6961 97.8168 57.4875 109.859 58.485 110.569C59.4827 111.279 60.9814 110.411 60.9814 110.411C62.6589 108.753 63.3078 106.662 64.9532 101.524C65.9388 96.6366 66.6302 93.6777 66.3453 90.1381C66.0242 89.6917 64.9236 89.5342 64.9236 89.5342C64.9236 89.5342 59.167 88.9548 58.4554 91.2424C57.7435 93.53 57.9411 93.4456 57.6961 97.8168Z" fill="#CACACA"/>
<path d="M69.6673 88.9203C69.2664 98.3514 65.0977 106.333 64.2245 106.984C63.3512 107.636 67.3008 106.984 71.4817 102.015C75.6623 97.0452 76.9244 92.2334 76.9244 92.2334C77.4405 91.1712 76.5147 81.5304 75.6623 82.2941C74.8099 83.058 74.8013 84.9041 72.586 86.5538C70.3705 88.2035 71.8552 87.0422 70.7716 87.8948C70.4881 88.1178 69.6999 88.1526 69.6673 88.9203Z" fill="#CACACA"/>
<path d="M69.9734 80.9886C70.0294 85.3566 68.5575 85.1704 68.9479 85.8793C69.3383 86.5881 70.6832 87.8514 72.8131 84.7749C74.9429 81.6984 74.4443 81.7427 74.9429 80.9886C75.4416 80.2345 75.2626 76.3359 76.1306 73.8117C76.9984 71.2875 76.4664 71.113 76.8404 69.552C77.2144 67.9912 76.6782 63.0432 74.4697 62.7667C72.261 62.4904 69.7368 64.2654 69.3422 65.3697C68.9479 66.4741 69.1766 67.9758 69.3422 69.552C69.5081 71.1282 69.4563 73.0214 69.6579 75.0724C69.8593 77.1234 69.9172 76.6204 69.9734 80.9886Z" fill="#CACACA"/>
<path d="M68.1606 43.3636C69.265 43.8368 71.0791 45.8878 72.4201 47.8599C73.7611 49.8321 75.827 52.2653 76.8376 54.4859C78.5022 56.2518 78.547 56.5103 77.7053 57.4046C76.8637 58.2988 76.9164 58.1933 71.0003 61.2698C65.0841 64.3461 58.379 64.4252 57.9847 61.5064C57.5904 58.5879 57.9847 56.6158 57.9847 52.1983C57.9847 47.7811 58.1424 46.9921 59.7991 44.8623C61.4558 42.7324 67.0562 42.8902 68.1606 43.3636Z" fill="#CACACA"/>
<path d="M67.0549 84.144C66.8971 82.7239 64.925 79.5688 62.2431 80.042C60.5607 80.339 60.12 80.4186 60.025 80.4368C59.8946 80.4407 58.4355 80.5324 57.9833 82.5662C57.5101 84.696 57.9833 86.3527 57.9833 86.3527C57.9833 86.3527 57.6679 88.798 60.7444 88.798C63.8206 88.798 63.6629 88.798 65.7139 88.1669C67.7649 87.5359 67.2126 85.5638 67.0549 84.144Z" fill="#CACACA"/>
<path d="M67.6844 76.5709C67.4478 75.4665 65.2887 73.4946 63.6612 72.7057C62.034 71.9168 61.8471 71.2859 60.585 71.3648C59.3229 71.4436 58.3471 71.5225 57.8739 73.6524C57.4007 75.7822 57.8739 78.4642 57.8739 78.4642C57.8739 78.4642 57.5085 79.4108 60.585 79.4108C63.6613 79.4108 63.8981 80.1206 65.7911 79.8051C67.6844 79.4894 67.921 77.6753 67.6844 76.5709Z" fill="#CACACA"/>
<path d="M67.3717 69.7076C67.1351 68.6032 66.0805 66.7102 64.453 65.9213C62.8254 65.1324 61.9288 64.5015 60.7488 64.508C59.5686 64.5148 59.2468 64.028 58.2213 65.2901C57.1958 66.5522 57.0381 68.4455 58.0377 69.3198C59.0373 70.1943 58.4579 70.2597 60.43 70.5754C62.4022 70.8908 64.3741 73.0207 66.2673 72.7052C68.1604 72.3895 67.6083 70.812 67.3717 69.7076Z" fill="#CACACA"/>
<path d="M64.2945 34.6843C65.0043 35.473 75.5745 40.9948 74.707 41.3891C73.8392 41.7837 64.2945 41.2314 62.1646 41.7837C60.0348 42.3358 59.325 43.9133 59.325 43.9133C57.9502 45.8288 57.1951 45.2543 56.7217 43.6767C56.2485 42.0992 60.4293 30.4246 62.559 29.4779C64.6888 28.5313 64.4522 28.6104 64.6888 29.8725C64.9254 31.1346 63.5845 33.8954 64.2945 34.6843Z" fill="#E74C3C"/>
<path d="M55.8479 30.2575C51.5881 30.0997 48.3541 28.049 47.8018 27.1023C47.2495 26.1557 47.6427 19.5913 47.0129 18.583C46.3832 17.5747 45.2125 11.1278 47.8018 6.98736C50.2259 3.93671 51.4304 2.33331 56.1633 2.33331C60.8963 2.33331 61.4833 3.94023 63.8939 6.98736C66.3042 10.0345 65.7081 17.5578 64.9192 18.583C64.1305 19.6083 64.6037 26.1557 63.8939 27.1023C63.1839 28.049 60.1074 30.4154 55.8479 30.2575Z" fill="#CACACA"/>
<path d="M66.454 15.1356C66.3747 14.5838 64.8373 13.407 64.4968 14.0643C64.1564 14.7217 64.3022 20.0733 64.4978 20.1804C64.6935 20.2876 65.2934 20.1594 65.5965 20.0711C65.8994 19.9828 66.5331 15.6874 66.454 15.1356Z" fill="#CACACA"/>
<path d="M45.3285 14.9972C45.4076 14.4453 46.945 13.2685 47.2855 13.9259C47.6259 14.5832 47.4803 19.9349 47.2845 20.042C47.0888 20.1491 46.4889 20.021 46.186 19.9327C45.8831 19.8444 45.2492 15.549 45.3285 14.9972Z" fill="#CACACA"/>
</g>
</g>
<defs>
<clipPath id="clip0_1234_2198">
<rect width="112" height="112" rx="56" fill="white"/>
</clipPath>
</defs>
</svg>
