<svg width="25" height="16" viewBox="0 0 25 16" fill="none" xmlns="http://www.w3.org/2000/svg">
<mask id="path-1-outside-1_1242_3391" maskUnits="userSpaceOnUse" x="-0.700195" y="-0.700195" width="26" height="17" fill="black">
<rect fill="white" x="-0.700195" y="-0.700195" width="26" height="17"/>
<path d="M23.9763 5.85751H22.331L22.3308 4.36336C22.3308 3.98744 22.1861 3.63406 21.9234 3.36824C21.6607 3.10246 21.3115 2.95608 20.94 2.95612L19.689 2.95622L19.6889 1.70708C19.6889 1.33117 19.5442 0.977748 19.2816 0.711965C19.0189 0.446145 18.6696 0.299768 18.2981 0.299805L17.5887 0.29989C16.8219 0.299926 16.198 0.931323 16.1981 1.70736L16.1984 5.85701L8.40133 5.85621L8.40157 1.7074C8.40163 0.931397 7.77783 0.300047 7.01106 0.299926L6.30171 0.299805H6.30152C5.93008 0.299805 5.58087 0.446181 5.31819 0.711965C5.05546 0.977796 4.91078 1.33121 4.91078 1.70717L4.9107 2.95616H3.65965C2.89291 2.95616 2.26902 3.58738 2.26892 4.36331L2.2688 5.85575H0.623301C0.444633 5.85576 0.299805 6.00235 0.299805 6.18313V9.41519C0.299805 9.59596 0.444633 9.74255 0.623301 9.74255H2.26849L2.26837 11.2355C2.26831 11.6114 2.41296 11.9649 2.67564 12.2307C2.93832 12.4966 3.28758 12.643 3.6591 12.643H4.90999L4.9099 13.8923C4.9099 14.6683 5.53369 15.2996 6.30042 15.2997L7.00994 15.2998H7.01012C7.38153 15.2998 7.73076 15.1535 7.99342 14.8877C8.25614 14.6219 8.40085 14.2685 8.40087 13.8926L8.40111 9.74303L16.1987 9.74383L16.199 13.8925C16.199 14.6685 16.8229 15.2998 17.5898 15.2997L18.2992 15.2997C19.066 15.2996 19.6899 14.6683 19.6898 13.8922L19.6897 12.6431L20.9407 12.643C21.3122 12.643 21.6614 12.4965 21.9241 12.2307C22.1867 11.9649 22.3313 11.6114 22.3313 11.2355L22.3312 9.74434H23.9763C24.155 9.74434 24.2998 9.59776 24.2998 9.41698V6.18487C24.2998 6.00409 24.155 5.85751 23.9763 5.85751ZM0.946797 9.08783V6.51049H2.26874L2.26854 9.08783H0.946797ZM3.6591 11.9883C3.46042 11.9883 3.27364 11.91 3.13316 11.7678C2.99268 11.6256 2.91534 11.4366 2.91536 11.2355L2.91552 9.41778C2.91552 9.41691 2.91564 9.41606 2.91564 9.41519C2.91564 9.4143 2.91552 9.41347 2.91552 9.41259L2.91592 4.36341C2.91598 3.94849 3.24962 3.61089 3.65966 3.61089H4.91066L4.91005 11.9883L3.6591 11.9883ZM7.53597 14.4247C7.39549 14.5668 7.20877 14.6451 7.01013 14.6451H7.01004L6.30051 14.645C5.89047 14.6449 5.5569 14.3073 5.5569 13.8923L5.55766 3.28585C5.55768 3.28507 5.55778 3.28433 5.55778 3.28354C5.55778 3.28276 5.55768 3.28202 5.55766 3.28125L5.55778 1.70719C5.55778 1.50615 5.63516 1.31713 5.77567 1.17499C5.91615 1.03285 6.10287 0.954566 6.30153 0.954566H6.30163L7.01095 0.954687H7.01097C7.42102 0.954724 7.75461 1.2924 7.7546 1.70735L7.75434 6.18164C7.75434 6.18226 7.75424 6.18288 7.75424 6.18353C7.75424 6.18417 7.75432 6.18478 7.75434 6.18542L7.75388 13.8925C7.75386 14.0935 7.67648 14.2825 7.53597 14.4247ZM8.40115 9.08831L8.4013 6.51096L16.1984 6.51176L16.1986 9.08911L8.40115 9.08831ZM18.2991 14.645L17.5897 14.645C17.1796 14.645 16.8459 14.3074 16.8459 13.8924L16.8451 1.70731C16.8451 1.29232 17.1787 0.954688 17.5888 0.954651L18.2982 0.954566C18.4968 0.954566 18.6836 1.03281 18.8241 1.17496C18.9646 1.31713 19.0419 1.50611 19.0419 1.7072L19.0427 12.3156L19.0427 12.3158L19.0427 12.316L19.0428 13.8923C19.0428 14.3073 18.7092 14.6449 18.2991 14.645ZM20.9407 11.9883L19.6897 11.9884L19.6891 3.61097L20.9401 3.61087C21.1387 3.61087 21.3255 3.68911 21.466 3.83125C21.6065 3.97339 21.6839 4.1624 21.6839 4.36345L21.684 6.18434L21.684 6.18487L21.684 6.18542L21.6843 11.2356C21.6844 11.6506 21.3507 11.9882 20.9407 11.9883ZM23.6528 9.08958H22.3312L22.331 6.51224H23.6528V9.08958Z"/>
</mask>
<path d="M23.9763 5.85751H22.331L22.3308 4.36336C22.3308 3.98744 22.1861 3.63406 21.9234 3.36824C21.6607 3.10246 21.3115 2.95608 20.94 2.95612L19.689 2.95622L19.6889 1.70708C19.6889 1.33117 19.5442 0.977748 19.2816 0.711965C19.0189 0.446145 18.6696 0.299768 18.2981 0.299805L17.5887 0.29989C16.8219 0.299926 16.198 0.931323 16.1981 1.70736L16.1984 5.85701L8.40133 5.85621L8.40157 1.7074C8.40163 0.931397 7.77783 0.300047 7.01106 0.299926L6.30171 0.299805H6.30152C5.93008 0.299805 5.58087 0.446181 5.31819 0.711965C5.05546 0.977796 4.91078 1.33121 4.91078 1.70717L4.9107 2.95616H3.65965C2.89291 2.95616 2.26902 3.58738 2.26892 4.36331L2.2688 5.85575H0.623301C0.444633 5.85576 0.299805 6.00235 0.299805 6.18313V9.41519C0.299805 9.59596 0.444633 9.74255 0.623301 9.74255H2.26849L2.26837 11.2355C2.26831 11.6114 2.41296 11.9649 2.67564 12.2307C2.93832 12.4966 3.28758 12.643 3.6591 12.643H4.90999L4.9099 13.8923C4.9099 14.6683 5.53369 15.2996 6.30042 15.2997L7.00994 15.2998H7.01012C7.38153 15.2998 7.73076 15.1535 7.99342 14.8877C8.25614 14.6219 8.40085 14.2685 8.40087 13.8926L8.40111 9.74303L16.1987 9.74383L16.199 13.8925C16.199 14.6685 16.8229 15.2998 17.5898 15.2997L18.2992 15.2997C19.066 15.2996 19.6899 14.6683 19.6898 13.8922L19.6897 12.6431L20.9407 12.643C21.3122 12.643 21.6614 12.4965 21.9241 12.2307C22.1867 11.9649 22.3313 11.6114 22.3313 11.2355L22.3312 9.74434H23.9763C24.155 9.74434 24.2998 9.59776 24.2998 9.41698V6.18487C24.2998 6.00409 24.155 5.85751 23.9763 5.85751ZM0.946797 9.08783V6.51049H2.26874L2.26854 9.08783H0.946797ZM3.6591 11.9883C3.46042 11.9883 3.27364 11.91 3.13316 11.7678C2.99268 11.6256 2.91534 11.4366 2.91536 11.2355L2.91552 9.41778C2.91552 9.41691 2.91564 9.41606 2.91564 9.41519C2.91564 9.4143 2.91552 9.41347 2.91552 9.41259L2.91592 4.36341C2.91598 3.94849 3.24962 3.61089 3.65966 3.61089H4.91066L4.91005 11.9883L3.6591 11.9883ZM7.53597 14.4247C7.39549 14.5668 7.20877 14.6451 7.01013 14.6451H7.01004L6.30051 14.645C5.89047 14.6449 5.5569 14.3073 5.5569 13.8923L5.55766 3.28585C5.55768 3.28507 5.55778 3.28433 5.55778 3.28354C5.55778 3.28276 5.55768 3.28202 5.55766 3.28125L5.55778 1.70719C5.55778 1.50615 5.63516 1.31713 5.77567 1.17499C5.91615 1.03285 6.10287 0.954566 6.30153 0.954566H6.30163L7.01095 0.954687H7.01097C7.42102 0.954724 7.75461 1.2924 7.7546 1.70735L7.75434 6.18164C7.75434 6.18226 7.75424 6.18288 7.75424 6.18353C7.75424 6.18417 7.75432 6.18478 7.75434 6.18542L7.75388 13.8925C7.75386 14.0935 7.67648 14.2825 7.53597 14.4247ZM8.40115 9.08831L8.4013 6.51096L16.1984 6.51176L16.1986 9.08911L8.40115 9.08831ZM18.2991 14.645L17.5897 14.645C17.1796 14.645 16.8459 14.3074 16.8459 13.8924L16.8451 1.70731C16.8451 1.29232 17.1787 0.954688 17.5888 0.954651L18.2982 0.954566C18.4968 0.954566 18.6836 1.03281 18.8241 1.17496C18.9646 1.31713 19.0419 1.50611 19.0419 1.7072L19.0427 12.3156L19.0427 12.3158L19.0427 12.316L19.0428 13.8923C19.0428 14.3073 18.7092 14.6449 18.2991 14.645ZM20.9407 11.9883L19.6897 11.9884L19.6891 3.61097L20.9401 3.61087C21.1387 3.61087 21.3255 3.68911 21.466 3.83125C21.6065 3.97339 21.6839 4.1624 21.6839 4.36345L21.684 6.18434L21.684 6.18487L21.684 6.18542L21.6843 11.2356C21.6844 11.6506 21.3507 11.9882 20.9407 11.9883ZM23.6528 9.08958H22.3312L22.331 6.51224H23.6528V9.08958Z" fill="#CACACA"/>
<path d="M23.9763 5.85751H22.331L22.3308 4.36336C22.3308 3.98744 22.1861 3.63406 21.9234 3.36824C21.6607 3.10246 21.3115 2.95608 20.94 2.95612L19.689 2.95622L19.6889 1.70708C19.6889 1.33117 19.5442 0.977748 19.2816 0.711965C19.0189 0.446145 18.6696 0.299768 18.2981 0.299805L17.5887 0.29989C16.8219 0.299926 16.198 0.931323 16.1981 1.70736L16.1984 5.85701L8.40133 5.85621L8.40157 1.7074C8.40163 0.931397 7.77783 0.300047 7.01106 0.299926L6.30171 0.299805H6.30152C5.93008 0.299805 5.58087 0.446181 5.31819 0.711965C5.05546 0.977796 4.91078 1.33121 4.91078 1.70717L4.9107 2.95616H3.65965C2.89291 2.95616 2.26902 3.58738 2.26892 4.36331L2.2688 5.85575H0.623301C0.444633 5.85576 0.299805 6.00235 0.299805 6.18313V9.41519C0.299805 9.59596 0.444633 9.74255 0.623301 9.74255H2.26849L2.26837 11.2355C2.26831 11.6114 2.41296 11.9649 2.67564 12.2307C2.93832 12.4966 3.28758 12.643 3.6591 12.643H4.90999L4.9099 13.8923C4.9099 14.6683 5.53369 15.2996 6.30042 15.2997L7.00994 15.2998H7.01012C7.38153 15.2998 7.73076 15.1535 7.99342 14.8877C8.25614 14.6219 8.40085 14.2685 8.40087 13.8926L8.40111 9.74303L16.1987 9.74383L16.199 13.8925C16.199 14.6685 16.8229 15.2998 17.5898 15.2997L18.2992 15.2997C19.066 15.2996 19.6899 14.6683 19.6898 13.8922L19.6897 12.6431L20.9407 12.643C21.3122 12.643 21.6614 12.4965 21.9241 12.2307C22.1867 11.9649 22.3313 11.6114 22.3313 11.2355L22.3312 9.74434H23.9763C24.155 9.74434 24.2998 9.59776 24.2998 9.41698V6.18487C24.2998 6.00409 24.155 5.85751 23.9763 5.85751ZM0.946797 9.08783V6.51049H2.26874L2.26854 9.08783H0.946797ZM3.6591 11.9883C3.46042 11.9883 3.27364 11.91 3.13316 11.7678C2.99268 11.6256 2.91534 11.4366 2.91536 11.2355L2.91552 9.41778C2.91552 9.41691 2.91564 9.41606 2.91564 9.41519C2.91564 9.4143 2.91552 9.41347 2.91552 9.41259L2.91592 4.36341C2.91598 3.94849 3.24962 3.61089 3.65966 3.61089H4.91066L4.91005 11.9883L3.6591 11.9883ZM7.53597 14.4247C7.39549 14.5668 7.20877 14.6451 7.01013 14.6451H7.01004L6.30051 14.645C5.89047 14.6449 5.5569 14.3073 5.5569 13.8923L5.55766 3.28585C5.55768 3.28507 5.55778 3.28433 5.55778 3.28354C5.55778 3.28276 5.55768 3.28202 5.55766 3.28125L5.55778 1.70719C5.55778 1.50615 5.63516 1.31713 5.77567 1.17499C5.91615 1.03285 6.10287 0.954566 6.30153 0.954566H6.30163L7.01095 0.954687H7.01097C7.42102 0.954724 7.75461 1.2924 7.7546 1.70735L7.75434 6.18164C7.75434 6.18226 7.75424 6.18288 7.75424 6.18353C7.75424 6.18417 7.75432 6.18478 7.75434 6.18542L7.75388 13.8925C7.75386 14.0935 7.67648 14.2825 7.53597 14.4247ZM8.40115 9.08831L8.4013 6.51096L16.1984 6.51176L16.1986 9.08911L8.40115 9.08831ZM18.2991 14.645L17.5897 14.645C17.1796 14.645 16.8459 14.3074 16.8459 13.8924L16.8451 1.70731C16.8451 1.29232 17.1787 0.954688 17.5888 0.954651L18.2982 0.954566C18.4968 0.954566 18.6836 1.03281 18.8241 1.17496C18.9646 1.31713 19.0419 1.50611 19.0419 1.7072L19.0427 12.3156L19.0427 12.3158L19.0427 12.316L19.0428 13.8923C19.0428 14.3073 18.7092 14.6449 18.2991 14.645ZM20.9407 11.9883L19.6897 11.9884L19.6891 3.61097L20.9401 3.61087C21.1387 3.61087 21.3255 3.68911 21.466 3.83125C21.6065 3.97339 21.6839 4.1624 21.6839 4.36345L21.684 6.18434L21.684 6.18487L21.684 6.18542L21.6843 11.2356C21.6844 11.6506 21.3507 11.9882 20.9407 11.9883ZM23.6528 9.08958H22.3312L22.331 6.51224H23.6528V9.08958Z" stroke="#CACACA" stroke-width="0.6" mask="url(#path-1-outside-1_1242_3391)"/>
</svg>
