<svg xmlns="http://www.w3.org/2000/svg" version="1.1" xmlns:xlink="http://www.w3.org/1999/xlink" width="512" height="512" x="0" y="0" viewBox="0 0 505.1 505.1" style="enable-background:new 0 0 512 512" xml:space="preserve" class=""><g><circle cx="252.55" cy="252.5" r="252.5" style="" fill="#90dfaa" data-original="#90dfaa" class=""></circle><path d="M307.75 308.6c3.2 6.8 5.3 14 7.3 21.2 2.4 8.5 4.9 17 7.3 25.5 4.1 14.5 8.2 30.3 2.5 44.2-3.3 8-9.4 14.4-15.8 20.3-7 6.4-14.4 12.4-22.2 17.9-6.8 4.8-14 9.2-22 11.6-8.6 2.5-17.7 2.5-26.7 2.3-5.8-.1-11.8-.3-17-2.9-4.3-2.1-7.7-5.8-10.4-9.8-9.9-14.8-10.2-33.8-10.2-51.6.1-27.3.2-54.6.2-82 0-5 0-10.1 1.3-15 4-14.9 19.3-24.2 34.5-26.9 6-1.1 12.3-1.4 18.3-.1 5.6 1.2 10.8 3.9 15.8 6.8 15.5 9.3 29.4 22.2 37.1 38.5z" style="" fill="#e6e9ee" data-original="#e6e9ee"></path><path d="M252.55 177.9c-20.8 0-37.6 40.7-37.6 67.1 0 15.4 5.8 29.2 14.8 37.9 1.1-.1 2.8-.3 3.2-.3 1.7 0 3.6.2 5.2.7 1.6.5 3.3 1.1 4.8 1.9.3.2 1.3.8 2 1.3.3.1.6.3 1 .5 1.1.5 2 1.1 3 1.8.8.6 1.5 1.1 2.3 1.6.5.3.9.6 1.3.9h.1c1-.9 2.5-1.7 3.6-2.4.7-.4 1.3-.8 2.1-1.1 1-.4 1.6-.8 2.1-1 .4-.8 4.9-2.3 5.2-2.4 2.7-.9 5.2-.7 8-.3.1 0 .2 0 .3.1 9.9-8.6 16.4-23 16.4-39.3-.2-26.2-17-67-37.8-67z" style="" fill="#f9b54c" data-original="#f9b54c"></path><path d="M142.35 471.1c.5 2.9.8 5.9 1.1 9.2-20.9-10-40.2-22.8-57.4-38 9.6-111.3 28.8-142.6 28.8-142.6l.1.2 37.7 61-15.3 93.8v.1c2.3 4.1 3.9 9.7 5 16.3z" style="" fill="#324a5e" data-original="#324a5e" class=""></path><path d="M262.45 504.8c-3.3.1-6.6.2-9.9.2-3.3 0-6.6-.1-9.9-.2-35-1.3-68.1-9.8-98-24-.7-3.6-1.5-6.8-2.3-9.7-2.5-9.5-4.7-15.6-5-16.4v-.1c7.3-79.4-20.8-150.9-22.3-154.8 0-.1-.1-.2-.1-.2 7.9-9.2 44.9-18.2 68.4-23.2 11.6-2.4 20-3.9 20-3.9l-.6 12.8.4 2.1 7.9 50.2s19.9 47.4 35.2 86.8c0 .1.1.2.1.2 2.2 5.9 4.4 11.6 6.4 17 .2.5.3 1 .5 1.5.7 2.1 1.5 4.2 2.2 6.2.2.6.4 1.1.6 1.7.4 1.2.9 2.4 1.2 3.6 1.8 5.1 3 12.1 3.9 20.4.6 5.4.9 11.5 1.2 17.9 0 3.9.1 7.8.1 11.9z" style="" fill="#2b3b4e" data-original="#2b3b4e"></path><path d="M211.65 251.6s26.4 170.1 45.5 203.1c0 0-55.3-32.2-77-136.4l16.3-5.6-23.7-19.7s12.4-26.7 38.9-41.4z" style="" fill="#324a5e" data-original="#324a5e" class=""></path><path d="M252.55 291.3s-27.2-18.6-39.6 16.2c0 0-6.1-59.1 2.7-70 0 .1 8.8 30.2 36.9 53.8z" style="" fill="#ffffff" data-original="#ffffff"></path><path d="m367.85 454.7-15.3-93.9 37.7-61c0-.1.1-.2.1-.2s19.2 31.3 28.8 142.6c-17.2 15.1-36.5 27.9-57.4 38 .3-3.2.6-6.3 1.1-9.2 1-6.5 2.6-12.1 5-16.3z" style="" fill="#2b3b4e" data-original="#2b3b4e"></path><path d="M390.15 299.9c-1.5 3.9-29.6 75.4-22.3 154.8v.1c-.3.8-2.6 6.8-5 16.4-.7 2.9-1.5 6.2-2.3 9.7-29.9 14.2-63 22.6-98 24-3.3.1-6.6.2-9.9.2-3.3 0-6.6-.1-9.9-.2.2-21.3 1.7-39.7 5.3-50.1.3-1 .7-2 1.1-3 .2-.7.5-1.5.8-2.2.7-2 1.4-4 2.2-6.2l.6-1.5c2-5.4 4.2-11.2 6.4-17.1v-.1c15.2-39.5 35.2-86.8 35.2-86.8l6.5-41 1.8-11.3-.6-12.8s8.4 1.5 20.1 3.9c23.6 5 60.4 14 68.4 23.2-.3-.2-.3-.1-.4 0z" style="" fill="#324a5e" data-original="#324a5e" class=""></path><path d="M293.45 251.6s-26.4 170.1-45.5 203.1c0 0 55.3-32.2 77-136.4l-16.3-5.6 23.7-19.7s-12.4-26.7-38.9-41.4z" style="" fill="#2b3b4e" data-original="#2b3b4e"></path><path d="M252.55 291.3s27.2-18.6 39.6 16.2c0 0 6.1-59.1-2.7-70 0 .1-8.8 30.2-36.9 53.8z" style="" fill="#ffffff" data-original="#ffffff"></path><circle cx="265.55" cy="483.8" r="9.8" style="" fill="#2b3b4e" data-original="#2b3b4e"></circle><path d="M327.05 163.7c-5.1 12.6-17.6 25.9-25.4 23.6-7.8-2.3-7.9-19.2-2.7-31.8 5.1-12.6 13.6-16 21.3-13.8 7.8 2.3 12 9.4 6.8 22zM178.05 163.7c5.1 12.6 17.6 25.9 25.4 23.6 7.8-2.3 7.9-19.2 2.7-31.8-5.1-12.6-13.6-16-21.3-13.8-7.8 2.3-12 9.4-6.8 22z" style="" fill="#f9b54c" data-original="#f9b54c"></path><ellipse cx="252.55" cy="164.3" rx="60.6" ry="78.5" style="" fill="#ffd05b" data-original="#ffd05b" class=""></ellipse><path d="m283.75 140.4-11.7-47.2s15.4-18.4 19.6-17.8c4.1.6 27.5 25.4 27.5 25.4v49.7l-6.4 12.9-25.2-11-3.8-12zM238.25 98.4l-38-7.2-12.8 12.7-2.2 27.9 7.3 30.7 48.7-13.2z" style="" fill="#ffd05b" data-original="#ffd05b" class=""></path><path d="M242.75 52.8s19.4-32.4 55.7 0c0 0-10-1.5-14.8 0 0 0 60.5 4.1 44.8 73.7 0 0 .6 19.1-15.7 37 0 0 18.8-79.9-30.6-60.5 0 0-32.1 18.1-55.1-.8 0 0-44.2-12.8-34.5 60.2 0 0-51.4-92.4 5.4-104.1 0 0 14.8-32.1 69-23.7 0 0-19 0-24.2 18.2z" style="" fill="#324a5e" data-original="#324a5e" class=""></path></g></svg>