<svg width="23" height="25" viewBox="0 0 23 25" fill="none" xmlns="http://www.w3.org/2000/svg">
<path d="M3.69644 3.33516V2.91852C3.69677 2.58713 3.82669 2.2694 4.05769 2.03507C4.28869 1.80074 4.6019 1.66895 4.92859 1.66862H6.20181C6.29607 1.19771 6.54793 0.774329 6.91471 0.470227C7.28148 0.166125 7.74062 0 8.21432 0C8.68802 0 9.14715 0.166125 9.51393 0.470227C9.8807 0.774329 10.1326 1.19771 10.2268 1.66862H11.5C11.8267 1.66895 12.1399 1.80074 12.3709 2.03507C12.6019 2.2694 12.7319 2.58713 12.7322 2.91852V3.33516C12.7319 3.66655 12.6019 3.98427 12.3709 4.2186C12.1399 4.45293 11.8267 4.58472 11.5 4.58506H4.92859C4.6019 4.58472 4.28869 4.45293 4.05769 4.2186C3.82669 3.98427 3.69677 3.66655 3.69644 3.33516ZM3.28573 19.5839H4.92859V17.9173H3.28573V19.5839ZM3.28573 14.5843H4.92859V12.9177H3.28573V14.5843ZM3.28573 9.58466H4.92859V7.91812H3.28573V9.58466ZM9.93111 22.4961L9.51629 22.9169H2.05358C1.509 22.9167 0.986794 22.6972 0.60172 22.3065C0.216646 21.9159 0.0002177 21.3862 0 20.8338V4.58506C0.0002177 4.03263 0.216646 3.5029 0.60172 3.11228C0.986794 2.72166 1.509 2.50211 2.05358 2.50189H2.91608C2.8878 2.63889 2.87403 2.77856 2.87501 2.91852V3.33516C2.87523 3.88758 3.09166 4.41731 3.47673 4.80793C3.8618 5.19855 4.38401 5.4181 4.92859 5.41832H11.5C12.0446 5.4181 12.5668 5.19855 12.9519 4.80793C13.337 4.41731 13.5534 3.88758 13.5536 3.33516V2.91852C13.5546 2.77856 13.5408 2.63889 13.5126 2.50189H14.3751C14.9196 2.50211 15.4418 2.72166 15.8269 3.11228C16.212 3.5029 16.4284 4.03263 16.4286 4.58506V11.6678C16.1906 11.6671 15.9549 11.7142 15.7349 11.8065C15.515 11.8987 15.3152 12.0343 15.1472 12.2053L14.9049 12.4511C14.5656 12.7962 14.375 13.2636 14.375 13.751C14.375 14.2384 14.5656 14.7058 14.9049 15.0509L16.0877 16.2508L14.3751 17.9881L13.1922 16.7882C12.852 16.4441 12.3912 16.2508 11.9108 16.2508C11.4303 16.2508 10.9695 16.4441 10.6293 16.7882L10.387 17.0341C10.055 17.3696 9.86503 17.8231 9.85736 18.2984C9.84969 18.7737 10.025 19.2333 10.3459 19.5797L9.98039 19.9505C9.81049 20.1201 9.67573 20.3225 9.58404 20.5458C9.49235 20.769 9.44557 21.0086 9.44646 21.2504C9.44796 21.7127 9.62099 22.1574 9.93111 22.4961ZM6.98217 7.50149C6.98217 7.61199 7.02544 7.71796 7.10246 7.79609C7.17949 7.87423 7.28396 7.91812 7.39289 7.91812H13.5536C13.6626 7.91812 13.767 7.87423 13.844 7.79609C13.9211 7.71796 13.9643 7.61199 13.9643 7.50149C13.9643 7.39099 13.9211 7.28502 13.844 7.20688C13.767 7.12875 13.6626 7.08486 13.5536 7.08486H7.39289C7.28396 7.08486 7.17949 7.12875 7.10246 7.20688C7.02544 7.28502 6.98217 7.39099 6.98217 7.50149ZM6.98217 10.0013C6.98217 10.1118 7.02544 10.2178 7.10246 10.2959C7.17949 10.374 7.28396 10.4179 7.39289 10.4179H11.0893C11.1983 10.4179 11.3027 10.374 11.3797 10.2959C11.4568 10.2178 11.5 10.1118 11.5 10.0013C11.5 9.89079 11.4568 9.78482 11.3797 9.70668C11.3027 9.62855 11.1983 9.58466 11.0893 9.58466H7.39289C7.28396 9.58466 7.17949 9.62855 7.10246 9.70668C7.02544 9.78482 6.98217 9.89079 6.98217 10.0013ZM6.98217 12.5011C6.98217 12.6116 7.02544 12.7176 7.10246 12.7957C7.17949 12.8738 7.28396 12.9177 7.39289 12.9177H13.5536C13.6626 12.9177 13.767 12.8738 13.844 12.7957C13.9211 12.7176 13.9643 12.6116 13.9643 12.5011C13.9643 12.3906 13.9211 12.2846 13.844 12.2065C13.767 12.1284 13.6626 12.0845 13.5536 12.0845H7.39289C7.28396 12.0845 7.17949 12.1284 7.10246 12.2065C7.02544 12.2846 6.98217 12.3906 6.98217 12.5011ZM6.98217 15.0009C6.98217 15.1114 7.02544 15.2174 7.10246 15.2955C7.17949 15.3736 7.28396 15.4175 7.39289 15.4175H11.0893C11.1983 15.4175 11.3027 15.3736 11.3797 15.2955C11.4568 15.2174 11.5 15.1114 11.5 15.0009C11.5 14.8904 11.4568 14.7844 11.3797 14.7063C11.3027 14.6282 11.1983 14.5843 11.0893 14.5843H7.39289C7.28396 14.5843 7.17949 14.6282 7.10246 14.7063C7.02544 14.7844 6.98217 14.8904 6.98217 15.0009ZM5.75002 17.5007C5.75002 17.3902 5.70675 17.2842 5.62973 17.2061C5.5527 17.128 5.44823 17.0841 5.33931 17.0841H2.87501C2.76608 17.0841 2.66162 17.128 2.58459 17.2061C2.50757 17.2842 2.4643 17.3902 2.4643 17.5007V20.0005C2.4643 20.111 2.50757 20.217 2.58459 20.2951C2.66162 20.3732 2.76608 20.4171 2.87501 20.4171H5.33931C5.44823 20.4171 5.5527 20.3732 5.62973 20.2951C5.70675 20.217 5.75002 20.111 5.75002 20.0005V17.5007ZM5.75002 12.5011C5.75002 12.3906 5.70675 12.2846 5.62973 12.2065C5.5527 12.1284 5.44823 12.0845 5.33931 12.0845H2.87501C2.76608 12.0845 2.66162 12.1284 2.58459 12.2065C2.50757 12.2846 2.4643 12.3906 2.4643 12.5011V15.0009C2.4643 15.1114 2.50757 15.2174 2.58459 15.2955C2.66162 15.3736 2.76608 15.4175 2.87501 15.4175H5.33931C5.44823 15.4175 5.5527 15.3736 5.62973 15.2955C5.70675 15.2174 5.75002 15.1114 5.75002 15.0009V12.5011ZM5.75002 7.50149C5.75002 7.39099 5.70675 7.28502 5.62973 7.20688C5.5527 7.12875 5.44823 7.08486 5.33931 7.08486H2.87501C2.76608 7.08486 2.66162 7.12875 2.58459 7.20688C2.50757 7.28502 2.4643 7.39099 2.4643 7.50149V10.0013C2.4643 10.1118 2.50757 10.2178 2.58459 10.2959C2.66162 10.374 2.76608 10.4179 2.87501 10.4179H5.33931C5.44823 10.4179 5.5527 10.374 5.62973 10.2959C5.70675 10.2178 5.75002 10.1118 5.75002 10.0013V7.50149ZM9.03575 20.0005C9.03575 19.89 8.99248 19.784 8.91545 19.7059C8.83843 19.6278 8.73396 19.5839 8.62503 19.5839H7.39289C7.28396 19.5839 7.17949 19.6278 7.10246 19.7059C7.02544 19.784 6.98217 19.89 6.98217 20.0005C6.98217 20.111 7.02544 20.217 7.10246 20.2951C7.17949 20.3732 7.28396 20.4171 7.39289 20.4171H8.62503C8.73396 20.4171 8.83843 20.3732 8.91545 20.2951C8.99248 20.217 9.03575 20.111 9.03575 20.0005ZM9.03575 17.5007C9.03575 17.3902 8.99248 17.2842 8.91545 17.2061C8.83843 17.128 8.73396 17.0841 8.62503 17.0841H7.39289C7.28396 17.0841 7.17949 17.128 7.10246 17.2061C7.02544 17.2842 6.98217 17.3902 6.98217 17.5007C6.98217 17.6112 7.02544 17.7172 7.10246 17.7953C7.17949 17.8734 7.28396 17.9173 7.39289 17.9173H8.62503C8.73396 17.9173 8.83843 17.8734 8.91545 17.7953C8.99248 17.7172 9.03575 17.6112 9.03575 17.5007ZM17.1297 12.7956C17.0377 12.7023 16.9284 12.6282 16.8081 12.5776C16.6878 12.5271 16.5588 12.5011 16.4286 12.5011C16.2984 12.5011 16.1695 12.5271 16.0492 12.5776C15.9289 12.6282 15.8196 12.7023 15.7275 12.7956L15.4869 13.0398C15.3948 13.1332 15.3218 13.2441 15.2719 13.3661C15.2221 13.4881 15.1965 13.6189 15.1965 13.751C15.1965 13.8831 15.2221 14.0139 15.2719 14.1359C15.3218 14.2579 15.3948 14.3688 15.4869 14.4622L20.2454 19.2893C20.3375 19.3827 20.4468 19.4568 20.5671 19.5073C20.6874 19.5579 20.8163 19.5839 20.9465 19.5839C21.0767 19.5839 21.2056 19.5579 21.3259 19.5073C21.4462 19.4568 21.5555 19.3827 21.6476 19.2893L21.8883 19.0451C21.9804 18.9518 22.0534 18.8409 22.1032 18.7189C22.153 18.5968 22.1787 18.466 22.1787 18.334C22.1787 18.2019 22.153 18.0711 22.1032 17.9491C22.0534 17.827 21.9804 17.7162 21.8883 17.6228L17.1297 12.7956ZM20.006 12.3803C19.9139 12.2865 19.8044 12.2121 19.6839 12.1613C19.5634 12.1105 19.4341 12.0844 19.3036 12.0844C19.1731 12.0844 19.0439 12.1105 18.9234 12.1613C18.8029 12.2121 18.6934 12.2865 18.6013 12.3803L18.244 12.7469L21.9404 16.4966L22.2978 16.13C22.3902 16.0365 22.4636 15.9255 22.5136 15.8032C22.5636 15.681 22.5894 15.5499 22.5894 15.4175C22.5894 15.2851 22.5636 15.1541 22.5136 15.0318C22.4636 14.9095 22.3902 14.7985 22.2978 14.7051L20.006 12.3803ZM12.6119 17.3786C12.5198 17.2852 12.4105 17.2111 12.2902 17.1606C12.1699 17.11 12.041 17.084 11.9108 17.084C11.7806 17.084 11.6516 17.11 11.5313 17.1606C11.411 17.2111 11.3017 17.2852 11.2097 17.3786L10.969 17.6228C10.8769 17.7162 10.8039 17.827 10.7541 17.9491C10.7042 18.0711 10.6786 18.2019 10.6786 18.334C10.6786 18.466 10.7042 18.5968 10.7541 18.7189C10.8039 18.8409 10.8769 18.9518 10.969 19.0451L15.7275 23.8723C15.8196 23.9657 15.9289 24.0397 16.0492 24.0903C16.1695 24.1408 16.2984 24.1669 16.4286 24.1669C16.5588 24.1669 16.6878 24.1408 16.8081 24.0903C16.9284 24.0397 17.0377 23.9657 17.1297 23.8723L17.3704 23.6281C17.4625 23.5347 17.5355 23.4238 17.5853 23.3018C17.6352 23.1798 17.6608 23.049 17.6608 22.9169C17.6608 22.7848 17.6352 22.6541 17.5853 22.532C17.5355 22.41 17.4625 22.2991 17.3704 22.2057L12.6119 17.3786ZM22.8797 12.4507L22.2284 11.7899C22.1513 11.7118 22.0469 11.6679 21.938 11.6679C21.8291 11.6679 21.7246 11.7118 21.6476 11.7899L21.1165 12.3286L22.3487 13.5785L22.8797 13.0398C22.9567 12.9617 23 12.8557 23 12.7452C23 12.6348 22.9567 12.5288 22.8797 12.4507ZM14.9558 18.5781L16.188 19.828L17.9015 18.0898L16.6693 16.8399L14.9558 18.5781ZM9.97752 23.6281C9.90052 23.7062 9.85727 23.8122 9.85727 23.9227C9.85727 24.0332 9.90052 24.1391 9.97752 24.2172L10.6289 24.878C10.7059 24.9561 10.8104 25 10.9193 25C11.0282 25 11.1326 24.9561 11.2097 24.878L11.7407 24.3393L10.5086 23.0894L9.97752 23.6281ZM10.5595 20.5379C10.4671 20.6314 10.3937 20.7424 10.3437 20.8647C10.2936 20.9869 10.2679 21.118 10.2679 21.2504C10.2679 21.3828 10.2936 21.5138 10.3437 21.6361C10.3937 21.7584 10.4671 21.8694 10.5595 21.9628L12.8513 24.2876C12.9434 24.3814 13.0529 24.4558 13.1734 24.5066C13.2939 24.5574 13.4231 24.5835 13.5536 24.5835C13.6841 24.5835 13.8133 24.5574 13.9339 24.5066C14.0544 24.4558 14.1638 24.3814 14.2559 24.2876L14.6174 23.9252L10.9209 20.1755L10.5595 20.5379Z" fill="#4B5563"/>
</svg>
