<svg width="23" height="25" viewBox="0 0 23 25" fill="none" xmlns="http://www.w3.org/2000/svg">
<path d="M9.03571 20.0001C9.03539 20.1105 8.99201 20.2163 8.91506 20.2943C8.8381 20.3724 8.73383 20.4164 8.625 20.4167H7.39285C7.28393 20.4167 7.17946 20.3728 7.10244 20.2947C7.02541 20.2166 6.98214 20.1106 6.98214 20.0001C6.98214 19.8896 7.02541 19.7836 7.10244 19.7055C7.17946 19.6273 7.28393 19.5834 7.39285 19.5834H8.625C8.73383 19.5837 8.8381 19.6278 8.91506 19.7058C8.99201 19.7839 9.03539 19.8897 9.03571 20.0001ZM5.33928 7.08363H2.875C2.76617 7.08396 2.66189 7.12796 2.58494 7.20603C2.50799 7.2841 2.46461 7.38989 2.46428 7.50029V10.0002C2.46461 10.1107 2.50799 10.2164 2.58494 10.2945C2.66189 10.3726 2.76617 10.4166 2.875 10.4169H5.33928C5.44811 10.4166 5.55239 10.3726 5.62934 10.2945C5.7063 10.2164 5.74967 10.1107 5.75 10.0002V7.50029C5.74967 7.38989 5.7063 7.2841 5.62934 7.20603C5.55239 7.12796 5.44811 7.08396 5.33928 7.08363ZM5.33928 12.0835H2.875C2.76617 12.0839 2.66189 12.1279 2.58494 12.2059C2.50799 12.284 2.46461 12.3898 2.46428 12.5002V15.0002C2.46461 15.1106 2.50799 15.2164 2.58494 15.2944C2.66189 15.3725 2.76617 15.4165 2.875 15.4168H5.33928C5.44811 15.4165 5.55239 15.3725 5.62934 15.2944C5.7063 15.2164 5.74967 15.1106 5.75 15.0002V12.5002C5.74967 12.3898 5.7063 12.284 5.62934 12.2059C5.55239 12.1279 5.44811 12.0839 5.33928 12.0835ZM5.33928 17.0835H2.875C2.76617 17.0838 2.66189 17.1278 2.58494 17.2059C2.50799 17.2839 2.46461 17.3897 2.46428 17.5001V20.0001C2.46461 20.1105 2.50799 20.2163 2.58494 20.2943C2.66189 20.3724 2.76617 20.4164 2.875 20.4167H5.33928C5.44811 20.4164 5.55239 20.3724 5.62934 20.2943C5.7063 20.2163 5.74967 20.1105 5.75 20.0001V17.5001C5.74967 17.3897 5.7063 17.2839 5.62934 17.2059C5.55239 17.1278 5.44811 17.0838 5.33928 17.0835ZM11.0893 14.5835H7.39285C7.28393 14.5835 7.17946 14.6274 7.10244 14.7055C7.02541 14.7837 6.98214 14.8897 6.98214 15.0002C6.98214 15.1107 7.02541 15.2166 7.10244 15.2948C7.17946 15.3729 7.28393 15.4168 7.39285 15.4168H11.0893C11.1982 15.4168 11.3027 15.3729 11.3797 15.2948C11.4567 15.2166 11.5 15.1107 11.5 15.0002C11.5 14.8897 11.4567 14.7837 11.3797 14.7055C11.3027 14.6274 11.1982 14.5835 11.0893 14.5835ZM13.5536 7.08363H7.39285C7.28393 7.08363 7.17946 7.12753 7.10244 7.20567C7.02541 7.2838 6.98214 7.38978 6.98214 7.50029C6.98214 7.61079 7.02541 7.71677 7.10244 7.79491C7.17946 7.87305 7.28393 7.91695 7.39285 7.91695H13.5536C13.6625 7.91695 13.767 7.87305 13.844 7.79491C13.921 7.71677 13.9643 7.61079 13.9643 7.50029C13.9643 7.38978 13.921 7.2838 13.844 7.20567C13.767 7.12753 13.6625 7.08363 13.5536 7.08363ZM8.625 17.0835H7.39285C7.28393 17.0835 7.17946 17.1274 7.10244 17.2055C7.02541 17.2836 6.98214 17.3896 6.98214 17.5001C6.98214 17.6106 7.02541 17.7166 7.10244 17.7947C7.17946 17.8729 7.28393 17.9168 7.39285 17.9168H8.625C8.73393 17.9168 8.83839 17.8729 8.91542 17.7947C8.99244 17.7166 9.03571 17.6106 9.03571 17.5001C9.03571 17.3896 8.99244 17.2836 8.91542 17.2055C8.83839 17.1274 8.73393 17.0835 8.625 17.0835ZM22.5893 16.9126C22.7195 17.0444 22.8228 17.2009 22.8932 17.3732C22.9637 17.5455 23 17.7302 23 17.9168C23 18.1033 22.9637 18.2881 22.8932 18.4604C22.8228 18.6327 22.7195 18.7892 22.5893 18.9209L22.347 19.1668C22.2171 19.2988 22.0628 19.4036 21.893 19.4751C21.7231 19.5466 21.541 19.5834 21.3571 19.5834C21.1732 19.5834 20.9912 19.5466 20.8213 19.4751C20.6515 19.4036 20.4972 19.2988 20.3673 19.1668L18.8929 17.6709L15.7755 20.8334L17.25 22.3292C17.3802 22.461 17.4835 22.6175 17.554 22.7898C17.6244 22.9621 17.6607 23.1468 17.6607 23.3334C17.6607 23.5199 17.6244 23.7046 17.554 23.8769C17.4835 24.0492 17.3802 24.2058 17.25 24.3375L17.0077 24.5833C16.8778 24.7154 16.7235 24.8202 16.5537 24.8917C16.3838 24.9632 16.2017 25 16.0179 25C15.834 25 15.6519 24.9632 15.482 24.8917C15.3122 24.8202 15.1579 24.7154 15.028 24.5833L14.7857 24.3375L14.5434 24.5833C14.4135 24.7154 14.2592 24.8202 14.0894 24.8917C13.9195 24.9632 13.7375 25 13.5536 25C13.3697 25 13.1876 24.9632 13.0177 24.8917C12.8479 24.8202 12.6936 24.7154 12.5637 24.5833L12.3214 24.3375L11.9107 24.7542C11.8346 24.832 11.7441 24.8939 11.6444 24.936C11.5446 24.9782 11.4376 25 11.3295 25C11.2215 25 11.1145 24.9782 11.0147 24.936C10.915 24.8939 10.8245 24.832 10.7484 24.7542L10.0995 24.0958C9.94562 23.9393 9.85923 23.7273 9.85923 23.5063C9.85923 23.2852 9.94562 23.0732 10.0995 22.9167H2.05357C1.509 22.9165 0.986789 22.6969 0.601717 22.3063C0.216645 21.9156 0.000217699 21.3859 0 20.8334V4.58367C0.000217699 4.03121 0.216645 3.50145 0.601717 3.1108C0.986789 2.72016 1.509 2.50059 2.05357 2.50037H3.77036C3.85561 2.25757 4.01253 2.04731 4.21977 1.8982C4.42701 1.74909 4.6745 1.66838 4.92857 1.66705H6.20178C6.29645 1.19645 6.54847 0.77348 6.9152 0.469703C7.28192 0.165926 7.74084 0 8.21428 0C8.68773 0 9.14664 0.165926 9.51337 0.469703C9.88009 0.77348 10.1321 1.19645 10.2268 1.66705H11.5C11.7541 1.66838 12.0016 1.74909 12.2088 1.8982C12.416 2.04731 12.573 2.25757 12.6582 2.50037H14.375C14.9196 2.50059 15.4418 2.72016 15.8268 3.1108C16.2119 3.50145 16.4283 4.03121 16.4286 4.58367V11.7461C16.6705 11.6711 16.9278 11.6628 17.174 11.7221C17.4201 11.7814 17.6462 11.9062 17.8291 12.0835L18.0714 12.3294L18.3137 12.0835C18.5802 11.8248 18.9347 11.6804 19.3036 11.6804C19.6724 11.6804 20.027 11.8248 20.2934 12.0835L20.5357 12.3294L20.9464 11.9127C21.1007 11.7566 21.3097 11.669 21.5276 11.669C21.7455 11.669 21.9545 11.7566 22.1087 11.9127L22.7577 12.571C22.9115 12.7276 22.9979 12.9396 22.9979 13.1606C22.9979 13.3816 22.9115 13.5937 22.7577 13.7502L22.347 14.1668L22.5893 14.4127C22.7195 14.5444 22.8228 14.7009 22.8932 14.8732C22.9637 15.0455 23 15.2303 23 15.4168C23 15.6034 22.9637 15.7881 22.8932 15.9604C22.8228 16.1327 22.7195 16.2892 22.5893 16.421L22.347 16.6668L22.5893 16.9126ZM14.2066 23.75L11.0893 20.5876L10.847 20.8334C10.7391 20.9445 10.6786 21.0941 10.6786 21.2501C10.6786 21.406 10.7391 21.5556 10.847 21.6667L13.1429 23.9958C13.2539 24.1022 13.4009 24.1614 13.5536 24.1614C13.7063 24.1614 13.8532 24.1022 13.9643 23.9958L14.2066 23.75ZM11.9107 18.0876C11.8012 17.9782 11.6537 17.9169 11.5 17.9169C11.3463 17.9169 11.1988 17.9782 11.0893 18.0876L10.847 18.3334C10.7391 18.4445 10.6786 18.5942 10.6786 18.7501C10.6786 18.906 10.7391 19.0557 10.847 19.1668L15.6071 23.9958C15.7182 24.1022 15.8651 24.1614 16.0179 24.1614C16.1706 24.1614 16.3175 24.1022 16.4286 23.9958L16.6709 23.75C16.7787 23.6389 16.8392 23.4893 16.8392 23.3334C16.8392 23.1774 16.7787 23.0278 16.6709 22.9167L11.9107 18.0876ZM17.0816 15.8335L15.6071 14.3377C15.4769 14.2059 15.3736 14.0494 15.3032 13.8771C15.2327 13.7048 15.1964 13.5201 15.1964 13.3335C15.1964 13.147 15.2327 12.9622 15.3032 12.7899C15.3736 12.6176 15.4769 12.4611 15.6071 12.3294L15.6125 12.324C15.6121 12.314 15.6071 12.306 15.6071 12.296V4.58367C15.6062 4.25246 15.476 3.9351 15.2452 3.7009C15.0143 3.46669 14.7015 3.33468 14.375 3.33369H12.7321V4.16701C12.7312 4.49822 12.601 4.81559 12.3702 5.04979C12.1393 5.28399 11.8265 5.416 11.5 5.41699H4.92857C4.60209 5.416 4.28925 5.28399 4.05839 5.04979C3.82753 4.81559 3.6974 4.49822 3.69643 4.16701V3.33369H2.05357C1.72709 3.33468 1.41425 3.46669 1.18339 3.7009C0.952531 3.9351 0.822403 4.25246 0.821428 4.58367V20.8334C0.822403 21.1646 0.952531 21.482 1.18339 21.7162C1.41425 21.9504 1.72709 22.0824 2.05357 22.0834H10.1294C9.93105 21.8113 9.83586 21.4759 9.86127 21.1385C9.88669 20.8011 10.031 20.4842 10.2679 20.2459L10.5102 20.0001L10.2679 19.7542C10.1377 19.6225 10.0344 19.466 9.96389 19.2937C9.89341 19.1214 9.85713 18.9367 9.85713 18.7501C9.85713 18.5635 9.89341 18.3788 9.96389 18.2065C10.0344 18.0342 10.1377 17.8777 10.2679 17.7459L10.5102 17.5001C10.7766 17.2414 11.1312 17.0969 11.5 17.0969C11.8688 17.0969 12.2234 17.2414 12.4898 17.5001L13.9643 18.9959L17.0816 15.8335ZM22.1786 17.9168C22.1782 17.7609 22.1178 17.6114 22.0102 17.5001L17.25 12.671C17.1405 12.5616 16.993 12.5003 16.8393 12.5003C16.6856 12.5003 16.5381 12.5616 16.4286 12.671L16.1862 12.9169C16.0784 13.0279 16.0179 13.1776 16.0179 13.3335C16.0179 13.4894 16.0784 13.6391 16.1862 13.7502L20.9464 18.5793C21.0575 18.6856 21.2044 18.7448 21.3571 18.7448C21.5098 18.7448 21.6568 18.6856 21.7678 18.5793L22.0102 18.3334C22.1178 18.2222 22.1782 18.0726 22.1786 17.9168ZM22.1786 15.4168C22.1782 15.261 22.1178 15.1114 22.0102 15.0002L19.7143 12.671C19.6032 12.5647 19.4563 12.5055 19.3036 12.5055C19.1509 12.5055 19.0039 12.5647 18.8929 12.671L18.6505 12.9169L21.7678 16.0793L22.0102 15.8335C22.1178 15.7222 22.1782 15.5727 22.1786 15.4168ZM13.5536 12.0835H7.39285C7.28393 12.0835 7.17946 12.1274 7.10244 12.2056C7.02541 12.2837 6.98214 12.3897 6.98214 12.5002C6.98214 12.6107 7.02541 12.7167 7.10244 12.7948C7.17946 12.873 7.28393 12.9169 7.39285 12.9169H13.5536C13.6625 12.9169 13.767 12.873 13.844 12.7948C13.921 12.7167 13.9643 12.6107 13.9643 12.5002C13.9643 12.3897 13.921 12.2837 13.844 12.2056C13.767 12.1274 13.6625 12.0835 13.5536 12.0835ZM7.39285 10.4169H11.0893C11.1982 10.4169 11.3027 10.373 11.3797 10.2949C11.4567 10.2167 11.5 10.1108 11.5 10.0002C11.5 9.88974 11.4567 9.78376 11.3797 9.70562C11.3027 9.62748 11.1982 9.58359 11.0893 9.58359H7.39285C7.28393 9.58359 7.17946 9.62748 7.10244 9.70562C7.02541 9.78376 6.98214 9.88974 6.98214 10.0002C6.98214 10.1108 7.02541 10.2167 7.10244 10.2949C7.17946 10.373 7.28393 10.4169 7.39285 10.4169Z" fill="#CACACA"/>
</svg>
