<svg width="112" height="112" viewBox="0 0 112 112" fill="none" xmlns="http://www.w3.org/2000/svg">
<g clip-path="url(#clip0_1234_2202)">
<rect width="112" height="112" rx="56" fill="white"/>
<mask id="mask0_1234_2202" style="mask-type:luminance" maskUnits="userSpaceOnUse" x="0" y="0" width="112" height="112">
<path d="M112 56C112 25.0721 86.9279 0 56 0C25.0721 0 0 25.0721 0 56C0 86.9279 25.0721 112 56 112C86.9279 112 112 86.9279 112 56Z" fill="white"/>
</mask>
<g mask="url(#mask0_1234_2202)">
<path d="M53.3155 41.4461C53.3946 42.3136 52.6052 69.528 52.1323 65.5839C51.6593 61.6399 35.9613 22.1988 39.2744 28.1939C42.5875 34.1889 53.2362 40.5785 53.3155 41.4461Z" fill="#E74C3C"/>
<path d="M52.6078 137.602C51.5118 136.559 50.3974 135.436 46.6916 131.529C40.7911 116.315 39.7976 111.989 39.3556 105.024C38.6652 102.629 41.1509 93.009 42.0376 91.4571C42.924 89.905 46.056 82.0895 47.7171 80.9653C49.0917 80.035 49.9198 93.1758 49.941 96.128C50.4894 97.3516 52.6078 105.258 52.6078 107.391C52.6078 109.994 49.2735 126.259 50.6357 129.636C51.9981 133.012 53.1347 135.456 52.6078 137.602Z" fill="#CACACA"/>
<path d="M37.4614 64.4791C37.4614 64.4791 41.09 89.4854 41.6421 89.7213C42.1944 89.9572 46.5327 81.9915 47.5582 77.4947C48.5837 72.9976 48.1894 60.6933 47.9528 58.3263C47.716 55.9592 39.0418 30.6441 38.5658 28.7455C38.0898 26.8466 36.3711 23.3917 36.0416 24.328C35.7119 25.2644 33.8263 42.6708 34.3849 41.8399C34.6085 49.1482 35.1097 53.8319 37.4614 64.4791Z" fill="#E74C3C"/>
<path d="M50.0038 85.2271C50.0038 85.2271 50.5038 90.0622 50.6347 92.9574C50.7656 95.8528 52.8353 84.0532 52.9223 81.9928C52.9834 78.6844 53.1302 77.2758 52.2123 70.0816C52.2123 70.0816 49.8458 59.6691 49.5303 61.089C49.2149 62.509 49.5303 68.1095 49.5303 68.8984C49.5303 69.6873 48.3471 79.1532 48.3471 79.9418C48.3471 80.7307 49.2013 82.1282 50.0038 85.2271Z" fill="#CACACA"/>
<path d="M32.2851 -10.1024C31.9697 -9.15581 28.42 1.65104 28.8932 2.04545C29.3666 2.43985 29.9187 1.1778 31.1019 -1.18872C32.2851 -3.55525 33.4684 -9.39253 33.3106 -9.86575C33.1529 -10.339 32.6008 -11.049 32.2851 -10.1024Z" fill="#CACACA"/>
<path d="M23.0564 -8.76299C22.3465 -4.18783 21.9521 11.2731 22.5042 10.5631C23.0564 9.85319 25.9751 4.72578 27.0004 3.54262C28.0259 2.35945 29.0514 -2.05809 29.6826 -3.71454C30.3135 -5.37098 31.791 -10.5777 32.1279 -15.5469C32.1279 -15.5469 32.1279 -17.6767 30.0769 -16.8879C28.0259 -16.099 26.6849 -14.8369 26.6849 -14.8369C26.6849 -14.8369 23.7664 -13.3382 23.0564 -8.76299Z" fill="#CACACA"/>
<path d="M22.6623 11.3526C25.4233 6.9352 28.263 2.51776 28.815 3.38548C29.3673 4.25318 29.3673 5.98857 29.3673 5.98857C28.7674 8.25538 28.1673 9.62052 26.8431 12.1414C25.8564 16.3289 24.8948 18.5146 23.1356 22.3961C23.2245 22.0053 17.3702 36.5157 17.0617 36.9894C16.7532 37.4628 16.9039 33.8342 17.0617 32.493C17.2195 31.1518 19.9014 15.7699 22.6623 11.3526Z" fill="#CACACA"/>
<path d="M16.5109 27.3662C15.3276 29.1015 10.9891 32.4935 10.5158 32.178C10.0426 31.8626 12.8034 25.7096 12.8034 25.7096C13.7216 23.1573 14.1707 21.3404 14.6966 16.4804C14.6966 16.4804 15.6431 10.8798 15.722 10.2487C15.801 9.61773 18.6407 3.62265 19.5873 2.75493C20.5339 1.88723 20.5339 1.41394 21.1649 2.91271C21.796 4.41145 21.796 7.40897 21.796 7.40897C21.796 7.40897 21.6383 11.5897 20.3761 14.9028C19.114 18.2158 17.6941 23.5008 17.6941 23.5008C17.6941 23.5008 17.6941 25.6307 16.5109 27.3662Z" fill="#CACACA"/>
<path d="M11.5956 33.607C12.3844 33.2915 16.0131 28.874 16.3286 29.4263C16.6441 29.9784 15.382 37.1567 15.8553 38.4976C16.3286 39.8386 16.4075 39.4445 16.6441 41.2587C16.8808 43.0728 15.1453 45.5182 15.1453 45.5182C15.1453 45.5182 12.3056 48.5156 11.1223 48.4367C9.93911 48.3581 13.2522 46.938 12.7789 43.3883C12.3056 39.8386 11.9112 39.8386 11.5956 39.8386C11.2801 39.8388 10.0969 40.5484 9.70247 40.5486C9.30806 40.5489 8.12483 40.0754 7.41489 39.602C6.70495 39.1286 4.10184 39.444 3.3919 39.3654C2.68196 39.2865 7.88811 34.3959 8.99253 34.317C10.097 34.2379 10.8069 33.9224 11.5956 33.607Z" fill="#CACACA"/>
<path d="M9.70397 53.7203C10.7294 52.9317 13.017 48.5935 13.017 48.1987C13.017 47.8039 11.2816 49.0667 10.9661 49.2242C10.6506 49.3815 10.1772 48.4356 10.0195 48.1987C9.86173 47.9617 11.3605 46.7791 11.5183 46.5421C11.676 46.3052 12.3071 44.7281 12.2282 44.0179C12.1493 43.3076 11.9915 40.7052 11.3605 40.7048C10.7294 40.7045 10.1773 41.02 9.70397 41.0993C9.23066 41.1784 7.10086 40.1522 6.70643 40.0738C6.31203 39.9952 4.10334 39.6795 3.31451 40.0738C2.52568 40.4682 -0.314068 41.4937 -0.550715 41.888C-0.787362 42.2826 0.316989 43.3869 1.02693 43.4658C1.73687 43.5447 3.78781 42.8346 3.78781 42.8346C3.78781 42.8346 6.54868 42.046 6.15427 42.8346C5.75985 43.6235 1.50022 50.9595 1.42134 51.3539C1.34246 51.7484 1.18469 52.6951 1.73687 52.7739C2.28904 52.8528 2.28904 52.616 2.68346 52.7739C3.07787 52.9317 2.28904 54.667 2.28904 54.667C2.28904 54.667 2.36793 55.6925 2.92011 55.6925C3.47227 55.6925 4.19724 55.2029 4.49775 54.667C4.79823 54.1312 4.89215 54.8247 4.89215 54.8247C4.89215 54.8247 5.20769 55.5347 5.5232 55.6925C5.83874 55.8502 6.54868 55.5347 6.86421 55.2981C7.17973 55.0613 8.52074 53.0105 8.52074 53.0105C8.52074 53.0105 8.6785 54.5092 9.70397 53.7203Z" fill="#CACACA"/>
<path d="M100.879 33.607C100.091 33.2915 96.4621 28.874 96.1464 29.4263C95.8309 29.9784 97.093 37.1567 96.6198 38.4976C96.1464 39.8386 96.0675 39.4445 95.8309 41.2587C95.5943 43.0728 97.3296 45.5182 97.3296 45.5182C97.3296 45.5182 100.17 48.5156 101.353 48.4367C102.536 48.3581 99.2229 46.938 99.6961 43.3883C100.17 39.8386 100.564 39.8386 100.879 39.8386C101.195 39.8388 102.378 40.5484 102.773 40.5486C103.167 40.5489 104.35 40.0754 105.06 39.602C105.77 39.1286 108.373 39.444 109.083 39.3654C109.793 39.2865 104.587 34.3959 103.483 34.317C102.378 34.2379 101.668 33.9224 100.879 33.607Z" fill="#CACACA"/>
<path d="M102.776 53.7203C101.75 52.9317 99.4625 48.5935 99.4625 48.1987C99.4625 47.8039 101.198 49.0667 101.514 49.2242C101.829 49.3815 102.302 48.4356 102.46 48.1987C102.618 47.9617 101.119 46.7791 100.961 46.5421C100.804 46.3052 100.173 44.7281 100.251 44.0179C100.33 43.3076 100.488 40.7052 101.119 40.7048C101.75 40.7045 102.302 41.02 102.776 41.0993C103.249 41.1784 105.379 40.1522 105.773 40.0738C106.168 39.9952 108.376 39.6795 109.165 40.0738C109.954 40.4682 112.794 41.4937 113.03 41.888C113.267 42.2826 112.163 43.3869 111.453 43.4658C110.743 43.5447 108.692 42.8346 108.692 42.8346C108.692 42.8346 105.931 42.046 106.325 42.8346C106.72 43.6235 110.979 50.9595 111.058 51.3539C111.137 51.7484 111.295 52.6951 110.743 52.7739C110.19 52.8528 110.19 52.616 109.796 52.7739C109.402 52.9317 110.19 54.667 110.19 54.667C110.19 54.667 110.112 55.6925 109.56 55.6925C109.007 55.6925 108.282 55.2029 107.982 54.667C107.681 54.1312 107.587 54.8247 107.587 54.8247C107.587 54.8247 107.272 55.5347 106.956 55.6925C106.641 55.8502 105.931 55.5347 105.616 55.2981C105.3 55.0613 103.959 53.0105 103.959 53.0105C103.959 53.0105 103.801 54.5092 102.776 53.7203Z" fill="#CACACA"/>
<path d="M54.764 23.8042C54.764 23.8042 54.9729 35.8461 53.9754 36.5559C52.9776 37.2659 51.4789 36.3981 51.4789 36.3981C49.8015 34.7403 49.1526 32.6487 47.5069 27.5116C46.5215 22.6239 45.8302 19.6651 46.1148 16.1255C46.4359 15.6789 47.5365 15.5215 47.5365 15.5215C47.5365 15.5215 53.2931 14.9423 54.005 17.2298C54.7167 19.5173 54.5193 19.4329 54.764 23.8042Z" fill="#CACACA"/>
<path d="M42.7943 14.9053C43.1951 24.3364 47.3639 32.3178 48.2372 32.9693C49.1106 33.6207 45.1607 32.9693 40.9801 27.9997C36.7992 23.0302 35.5371 18.2183 35.5371 18.2183C35.0212 17.1562 35.9469 7.51543 36.7992 8.27918C37.6516 9.04293 37.6602 10.8892 39.8757 12.5389C42.0912 14.1885 40.6063 13.0272 41.6901 13.8799C41.9734 14.1029 42.7618 14.1375 42.7943 14.9053Z" fill="#CACACA"/>
<path d="M42.4858 6.97643C42.4295 11.3445 43.9016 11.1582 43.5113 11.8671C43.1209 12.576 41.7757 13.8392 39.6461 10.7628C37.5162 7.68637 38.0149 7.7305 37.5162 6.97643C37.0174 6.22235 37.1963 2.32384 36.3286 -0.200395C35.4608 -2.72463 35.9928 -2.89907 35.6188 -4.46003C35.2445 -6.02098 35.7807 -10.969 37.9894 -11.2454C40.1982 -11.5217 42.7224 -9.74664 43.1169 -8.64229C43.5113 -7.53795 43.2826 -6.03619 43.1169 -4.46003C42.951 -2.88386 43.0028 -0.990663 42.8012 1.06027C42.5999 3.1112 42.5418 2.60832 42.4858 6.97643Z" fill="#CACACA"/>
<path d="M45.4055 10.1289C45.5632 8.70899 47.5351 5.55374 50.2173 6.02703C51.8994 6.3239 52.3404 6.40352 52.4353 6.42165C52.5658 6.42575 54.0248 6.51734 54.4768 8.55126C54.9502 10.6811 54.4768 12.3376 54.4768 12.3376C54.4768 12.3376 54.7922 14.783 51.716 14.783C48.6395 14.783 48.7972 14.783 46.7464 14.1519C44.6954 13.5208 45.2477 11.5488 45.4055 10.1289Z" fill="#CACACA"/>
<path d="M44.7748 2.55819C45.0114 1.45389 47.1702 -0.518071 48.7977 -1.30697C50.4252 -2.09588 50.6121 -2.72686 51.8742 -2.64799C53.1363 -2.5691 54.1119 -2.49021 54.5853 -0.360403C55.0585 1.76942 54.5853 4.45141 54.5853 4.45141C54.5853 4.45141 54.9505 5.39799 51.8742 5.39799C48.7977 5.39799 48.5611 6.10789 46.6681 5.79233C44.7748 5.47679 44.5382 3.66248 44.7748 2.55819Z" fill="#CACACA"/>
<path d="M59.1449 41.3772C59.0655 42.2447 59.8551 69.4591 60.3281 65.5151C60.8011 61.571 76.4988 22.1298 73.1859 28.1248C69.8728 34.1198 59.224 40.5094 59.1449 41.3772Z" fill="#E74C3C"/>
<path d="M59.8514 137.533C60.9474 136.49 62.0615 135.366 65.7676 131.459C71.6679 116.245 72.6614 111.92 73.1036 104.955C73.794 102.56 71.3081 92.9395 70.4216 91.3876C69.535 89.8354 66.4032 82.0199 64.7421 80.8957C63.3675 79.9654 62.5394 93.1063 62.5182 96.0584C61.9698 97.282 59.8514 105.188 59.8514 107.321C59.8514 109.925 63.1857 126.189 61.8233 129.566C60.4611 132.943 59.3243 135.387 59.8514 137.533Z" fill="#CACACA"/>
<path d="M74.9977 64.4107C74.9977 64.4107 71.3692 89.4171 70.8171 89.653C70.2648 89.8889 65.9262 81.9231 64.9009 77.4263C63.8754 72.9293 64.2698 60.6249 64.5064 58.258C64.743 55.8908 73.4174 30.5758 73.8934 28.6771C74.3694 26.7783 76.0881 23.3233 76.4176 24.2597C76.7471 25.196 78.6326 42.6025 78.0742 41.7716C77.8507 49.0798 77.3495 53.7635 74.9977 64.4107Z" fill="#E74C3C"/>
<path d="M62.4566 85.1564C62.4566 85.1564 61.9565 89.9915 61.8256 92.887C61.6945 95.7822 59.6248 83.9825 59.538 81.9222C59.4769 78.6137 59.3299 77.2051 60.2478 70.011C60.2478 70.011 62.6143 59.5987 62.93 61.0185C63.2455 62.4384 62.93 68.0391 62.93 68.8277C62.93 69.6166 64.1132 79.0825 64.1132 79.8714C64.1132 80.6601 63.259 82.0575 62.4566 85.1564Z" fill="#CACACA"/>
<path d="M80.175 -10.173C80.4907 -9.22643 84.0404 1.58043 83.5669 1.97484C83.0937 2.36925 82.5414 1.10719 81.3582 -1.25933C80.175 -3.62585 78.9917 -9.46313 79.1495 -9.93637C79.3074 -10.4096 79.8595 -11.1196 80.175 -10.173Z" fill="#CACACA"/>
<path d="M89.4028 -8.8319C90.1126 -4.25674 90.5072 11.2042 89.9549 10.4942C89.4028 9.78428 86.4841 4.65687 85.4586 3.47371C84.4331 2.29055 83.4078 -2.127 82.7766 -3.78345C82.1457 -5.43991 80.6682 -10.6466 80.3313 -15.6158C80.3313 -15.6158 80.3313 -17.7456 82.3823 -16.9568C84.4331 -16.1679 85.7743 -14.9058 85.7743 -14.9058C85.7743 -14.9058 88.6928 -13.4071 89.4028 -8.8319Z" fill="#CACACA"/>
<path d="M89.7978 11.2842C87.037 6.86686 84.1974 2.44942 83.6451 3.31711C83.093 4.18481 83.093 5.92023 83.093 5.92023C83.6929 8.18702 84.293 9.55218 85.6172 12.073C86.6037 16.2606 87.5656 18.4462 89.3247 22.3277C89.2358 21.9369 95.0901 36.4473 95.3986 36.921C95.707 37.3944 95.5563 33.7659 95.3986 32.4247C95.2408 31.0835 92.5589 15.7016 89.7978 11.2842Z" fill="#CACACA"/>
<path d="M95.9495 27.2972C97.1327 29.0327 101.471 32.4247 101.944 32.109C102.418 31.7935 99.6569 25.6407 99.6569 25.6407C98.7387 23.0884 98.2896 21.2715 97.7636 16.4115C97.7636 16.4115 96.8172 10.8108 96.7381 10.1798C96.6593 9.5488 93.8196 3.55374 92.873 2.68602C91.9263 1.81832 91.9263 1.34503 91.2954 2.8438C90.6642 4.34255 90.6642 7.34006 90.6642 7.34006C90.6642 7.34006 90.822 11.5208 92.0841 14.8339C93.3464 18.1469 94.7662 23.432 94.7662 23.432C94.7662 23.432 94.7662 25.5619 95.9495 27.2972Z" fill="#CACACA"/>
<path d="M57.6961 23.7335C57.6961 23.7335 57.4875 35.7753 58.485 36.4854C59.4827 37.1952 60.9814 36.3274 60.9814 36.3274C62.6589 34.6696 63.3078 32.5782 64.9532 27.4409C65.9388 22.5532 66.6302 19.5944 66.3453 16.0548C66.0242 15.6082 64.9236 15.4508 64.9236 15.4508C64.9236 15.4508 59.167 14.8716 58.4554 17.1591C57.7435 19.4466 57.9411 19.3623 57.6961 23.7335Z" fill="#CACACA"/>
<path d="M69.6659 14.8369C69.265 24.2681 65.0963 32.2495 64.2231 32.9009C63.3498 33.5524 67.2994 32.9009 71.4803 27.9314C75.6609 22.9618 76.923 18.15 76.923 18.15C77.4391 17.0878 76.5133 7.44708 75.6609 8.21082C74.8085 8.97457 74.7999 10.8209 72.5846 12.4705C70.3691 14.1202 71.8538 12.9588 70.7702 13.8115C70.4867 14.0346 69.6985 14.0692 69.6659 14.8369Z" fill="#CACACA"/>
<path d="M69.9722 6.90521C70.0282 11.2733 68.5563 11.087 68.9467 11.7959C69.3371 12.5048 70.6822 13.768 72.8119 10.6916C74.9417 7.61515 74.4431 7.65927 74.9417 6.90521C75.4406 6.15112 75.2616 2.25261 76.1294 -0.271616C76.9972 -2.79584 76.4652 -2.97028 76.8392 -4.53125C77.2135 -6.09221 76.6773 -11.0402 74.4685 -11.3166C72.2598 -11.5929 69.7356 -9.81786 69.341 -8.71352C68.9467 -7.60918 69.1754 -6.10742 69.341 -4.53125C69.5069 -2.95506 69.4551 -1.06188 69.6567 0.989045C69.8581 3.03997 69.916 2.53709 69.9722 6.90521Z" fill="#CACACA"/>
<path d="M67.0549 10.06C66.8971 8.64008 64.925 5.48483 62.2431 5.95813C60.5607 6.255 60.12 6.33461 60.025 6.35274C59.8946 6.35685 58.4355 6.44843 57.9833 8.48235C57.5101 10.6122 57.9833 12.2687 57.9833 12.2687C57.9833 12.2687 57.6679 14.7141 60.7444 14.7141C63.8206 14.7141 63.6629 14.7141 65.7139 14.083C67.7649 13.4519 67.2126 11.4799 67.0549 10.06Z" fill="#CACACA"/>
<path d="M67.6856 2.487C67.449 1.38271 65.2899 -0.589253 63.6624 -1.37816C62.0349 -2.16706 61.8483 -2.79805 60.5862 -2.71916C59.3241 -2.64029 58.3483 -2.5614 57.8751 -0.431583C57.4016 1.69824 57.8751 4.38022 57.8751 4.38022C57.8751 4.38022 57.5097 5.32681 60.5862 5.32681C63.6624 5.32681 63.8993 6.0367 65.7923 5.72116C67.6856 5.4056 67.9222 3.59132 67.6856 2.487Z" fill="#CACACA"/>
</g>
</g>
<defs>
<clipPath id="clip0_1234_2202">
<rect width="112" height="112" rx="56" fill="white"/>
</clipPath>
</defs>
</svg>
