<svg width="112" height="112" viewBox="0 0 112 112" fill="none" xmlns="http://www.w3.org/2000/svg">
<g clip-path="url(#clip0_1234_2196)">
<rect width="112" height="112" rx="56" fill="white"/>
<mask id="mask0_1234_2196" style="mask-type:luminance" maskUnits="userSpaceOnUse" x="0" y="0" width="112" height="112">
<path d="M112 56C112 25.0721 86.9279 0 56 0C25.0721 0 0 25.0721 0 56C0 86.9279 25.0721 112 56 112C86.9279 112 112 86.9279 112 56Z" fill="white"/>
</mask>
<g mask="url(#mask0_1234_2196)">
<path d="M54.2845 31.4634C53.1804 31.2268 53.2203 31.3754 53.6536 32.1732C54.7311 34.4545 55.1248 36.068 55.6257 39.2726C55.9645 40.2131 56.1545 40.0174 56.4933 39.2726C56.8367 36.3629 57.1762 34.7839 58.3865 32.1732C58.9272 31.4363 58.7953 31.2676 57.6765 31.4634C56.4536 31.699 55.3889 31.6997 54.2845 31.4634Z" fill="#CACACA"/>
<path d="M53.3167 115.529C53.3958 116.396 52.6064 143.611 52.1334 139.667C51.6605 135.723 35.9625 96.2815 39.2756 102.277C42.5887 108.272 53.2373 114.661 53.3167 115.529Z" fill="#CACACA"/>
<path d="M37.4626 138.562C37.4626 138.562 41.0912 163.569 41.6432 163.805C42.1955 164.041 46.5339 156.075 47.5594 151.578C48.5849 147.081 48.1906 134.777 47.9537 132.41C47.7171 130.042 39.043 104.727 38.567 102.829C38.0907 100.93 36.372 97.475 36.0425 98.4113C35.7131 99.3477 33.8275 116.754 34.3861 115.923C34.6096 123.231 35.1108 127.915 37.4626 138.562Z" fill="#CACACA"/>
<path d="M32.2852 63.9816C31.9697 64.928 28.42 75.7348 28.8932 76.1294C29.3666 76.5237 29.9187 75.2616 31.1019 72.8952C32.2852 70.5287 33.4684 64.6914 33.3107 64.2182C33.1529 63.745 32.6009 63.035 32.2852 63.9816Z" fill="#CACACA"/>
<path d="M28.2627 46.3118C31.1024 44.0242 34.6521 41.4211 36.151 41.8154C37.6497 42.21 39.1484 43.8664 39.1484 43.8664C39.1484 43.8664 39.5428 44.3396 39.1484 45.6017C38.7541 46.8638 38.2018 49.3883 35.8353 52.3857C33.4689 55.3833 27.3161 57.4341 27.3161 57.4341C27.3161 57.4341 24.8708 58.775 24.3187 59.4062C23.7664 60.0374 24.713 54.2789 24.713 54.2789C24.713 54.2789 25.4231 48.5994 28.2627 46.3118Z" fill="#E74C3C"/>
<path d="M23.0553 65.3198C22.3454 69.895 21.9509 85.3559 22.5031 84.6458C23.0553 83.936 25.974 78.8085 26.9995 77.6253C28.0247 76.4423 29.0502 72.0246 29.6814 70.3682C30.3123 68.7117 31.7898 63.5051 32.1267 58.5358C32.1267 58.5358 32.1267 56.4062 30.0757 57.1949C28.025 57.9838 26.6838 59.2459 26.6838 59.2459C26.6838 59.2459 23.7652 60.7446 23.0553 65.3198Z" fill="#CACACA"/>
<path d="M22.6623 85.4366C25.4233 81.0192 28.263 76.6017 28.815 77.4695C29.3673 78.3372 29.3673 80.0725 29.3673 80.0725C28.7674 82.3394 28.1673 83.7044 26.8431 86.2253C25.8564 90.4129 24.8948 92.5986 23.1356 96.4801C23.2245 96.0892 17.3702 110.6 17.0617 111.073C16.7532 111.547 16.9039 107.918 17.0617 106.577C17.2195 105.236 19.9014 89.8539 22.6623 85.4366Z" fill="#CACACA"/>
<path d="M16.5097 101.449C15.3265 103.184 10.988 106.576 10.5147 106.261C10.0414 105.945 12.8023 99.7924 12.8023 99.7924C13.7204 97.24 14.1696 95.4233 14.6955 90.5632C14.6955 90.5632 15.642 84.9625 15.7209 84.3315C15.7998 83.7006 18.6395 77.7053 19.5861 76.8378C20.5328 75.97 20.5327 75.4966 21.1638 76.9955C21.7949 78.4942 21.7948 81.4919 21.7948 81.4919C21.7948 81.4919 21.6371 85.6725 20.375 88.9856C19.1128 92.2987 17.693 97.5837 17.693 97.5837C17.693 97.5837 17.693 99.7136 16.5097 101.449Z" fill="#CACACA"/>
<path d="M11.5965 107.69C12.3853 107.375 16.0139 102.957 16.3295 103.51C16.645 104.062 15.3829 111.24 15.8562 112.581C16.3295 113.922 16.4083 113.528 16.645 115.342C16.8816 117.156 15.1462 119.602 15.1462 119.602C15.1462 119.602 12.3065 122.599 11.1232 122.52C9.94 122.441 13.2531 121.021 12.7798 117.472C12.3065 113.922 11.9121 113.922 11.5965 113.922C11.281 113.922 10.0978 114.632 9.70335 114.632C9.30895 114.632 8.12572 114.159 7.41578 113.685C6.70584 113.212 4.10272 113.527 3.39278 113.449C2.68284 113.37 7.889 108.479 8.99341 108.4C10.0978 108.321 10.8078 108.006 11.5965 107.69Z" fill="#CACACA"/>
<path d="M100.882 107.69C100.093 107.375 96.4642 102.957 96.1487 103.51C95.8333 104.062 97.0954 111.24 96.6222 112.581C96.1487 113.922 96.0699 113.528 95.8333 115.342C95.5967 117.156 97.332 119.602 97.332 119.602C97.332 119.602 100.172 122.599 101.355 122.52C102.538 122.441 99.2252 121.021 99.6984 117.472C100.172 113.922 100.566 113.922 100.882 113.922C101.197 113.922 102.38 114.632 102.775 114.632C103.169 114.632 104.352 114.159 105.063 113.685C105.772 113.212 108.375 113.527 109.085 113.449C109.795 113.37 104.589 108.479 103.485 108.4C102.38 108.321 101.67 108.006 100.882 107.69Z" fill="#CACACA"/>
<path d="M54.764 97.8875C54.764 97.8875 54.9729 109.929 53.9754 110.639C52.9776 111.349 51.4789 110.481 51.4789 110.481C49.8015 108.824 49.1526 106.732 47.5069 101.595C46.5215 96.7073 45.8302 93.7484 46.1148 90.2087C46.4359 89.7621 47.5365 89.6049 47.5365 89.6049C47.5365 89.6049 53.2931 89.0255 54.005 91.3131C54.7167 93.6005 54.5193 93.5162 54.764 97.8875Z" fill="#CACACA"/>
<path d="M42.7933 88.9891C43.194 98.4202 47.3629 106.402 48.2361 107.053C49.1094 107.705 45.1598 107.053 40.9789 102.084C36.7983 97.114 35.5362 92.3022 35.5362 92.3022C35.0201 91.2401 35.9459 81.5995 36.7983 82.3632C37.6507 83.1269 37.6591 84.9732 39.8746 86.6229C42.0901 88.2723 40.6051 87.111 41.689 87.9639C41.9725 88.1869 42.7607 88.2215 42.7933 88.9891Z" fill="#CACACA"/>
<path d="M42.487 81.0597C42.4307 85.4277 43.9028 85.2415 43.5125 85.9504C43.1221 86.6593 41.7769 87.9225 39.6471 84.846C37.5174 81.7698 38.0161 81.8139 37.5174 81.0597C37.0186 80.3056 37.1975 76.4071 36.3298 73.8829C35.462 71.3587 35.994 71.1841 35.6197 69.6234C35.2457 68.0624 35.7819 63.1143 37.9906 62.838C40.1994 62.5615 42.7236 64.3367 43.1179 65.4411C43.5125 66.5455 43.2838 68.0472 43.1179 69.6234C42.9522 71.1995 43.004 73.0926 42.8024 75.1436C42.6011 77.1946 42.543 76.6915 42.487 81.0597Z" fill="#CACACA"/>
<path d="M44.3021 43.4319C43.1977 43.9051 41.3833 45.9561 40.0423 47.9283C38.7014 49.9004 36.6357 52.3336 35.6249 54.5542C33.9605 56.3201 33.9155 56.5786 34.7573 57.473C35.599 58.3671 35.546 58.2617 41.4622 61.3382C47.3783 64.4144 54.0834 64.4935 54.4777 61.5748C54.8723 58.6562 54.4777 56.6841 54.4777 52.2666C54.4777 47.8492 54.3202 47.0605 52.6636 44.9306C51.0069 42.8008 45.4064 42.9585 44.3021 43.4319Z" fill="#CACACA"/>
<path d="M45.4055 84.2128C45.5632 82.793 47.5351 79.6376 50.2173 80.111C51.8994 80.4078 52.3404 80.4874 52.4354 80.5056C52.5658 80.5098 54.0248 80.6013 54.4768 82.6352C54.9502 84.7651 54.4768 86.4215 54.4768 86.4215C54.4768 86.4215 54.7923 88.8669 51.716 88.8669C48.6395 88.8669 48.7972 88.8669 46.7465 88.2359C44.6955 87.6048 45.2478 85.6329 45.4055 84.2128Z" fill="#CACACA"/>
<path d="M44.7736 76.6416C45.0102 75.5372 47.1693 73.5653 48.7965 72.7764C50.424 71.9875 50.6109 71.3566 51.873 71.4354C53.1351 71.5143 54.1107 71.5932 54.5841 73.723C55.0573 75.8527 54.5841 78.5348 54.5841 78.5348C54.5841 78.5348 54.9495 79.4812 51.873 79.4812C48.7965 79.4812 48.5599 80.1913 46.6669 79.8756C44.7736 79.5601 44.537 77.7459 44.7736 76.6416Z" fill="#CACACA"/>
<path d="M45.0898 69.7783C45.3264 68.6739 46.3808 66.7809 48.0083 65.992C49.6358 65.2031 50.5325 64.5719 51.7127 64.5787C52.8927 64.5855 53.2147 64.0987 54.24 65.3608C55.2655 66.6229 55.4232 68.5162 54.4238 69.3905C53.4242 70.2648 54.0034 70.3304 52.0315 70.6458C50.0593 70.9615 48.0872 73.0914 46.1942 72.7757C44.3009 72.4602 44.8532 70.8824 45.0898 69.7783Z" fill="#CACACA"/>
<path d="M48.1656 34.7554C47.4556 35.5443 36.8853 41.0659 37.7531 41.4603C38.6209 41.8548 48.1656 41.3025 50.2952 41.8548C52.4251 42.4069 53.1351 43.9847 53.1351 43.9847C54.5097 45.9001 55.265 45.3257 55.7382 43.7479C56.2114 42.1703 52.0308 30.4957 49.9009 29.5491C47.771 28.6027 48.0079 28.6815 47.771 29.9436C47.5344 31.2057 48.8754 33.9665 48.1656 34.7554Z" fill="#CACACA"/>
<path d="M59.1449 115.461C59.0655 116.329 59.8551 143.543 60.3281 139.599C60.8011 135.655 76.4988 96.2138 73.1859 102.209C69.8728 108.204 59.224 114.593 59.1449 115.461Z" fill="#CACACA"/>
<path d="M74.9989 138.494C74.9989 138.494 71.3704 163.5 70.8181 163.736C70.266 163.972 65.9274 156.006 64.9019 151.51C63.8766 147.013 64.271 134.708 64.5076 132.341C64.7442 129.974 73.4186 104.659 73.8946 102.76C74.3706 100.862 76.0893 97.4066 76.4188 98.343C76.7482 99.2794 78.6338 116.686 78.0754 115.855C77.8519 123.163 77.3507 127.847 74.9989 138.494Z" fill="#CACACA"/>
<path d="M80.175 63.9102C80.4907 64.8568 84.0404 75.6637 83.5669 76.0582C83.0937 76.4526 82.5414 75.1905 81.3582 72.824C80.175 70.4575 78.9917 64.6202 79.1495 64.147C79.3074 63.6736 79.8595 62.9638 80.175 63.9102Z" fill="#CACACA"/>
<path d="M84.1988 46.2406C81.3589 43.953 77.8092 41.3499 76.3105 41.7443C74.8118 42.1386 73.3129 43.7953 73.3129 43.7953C73.3129 43.7953 72.9185 44.2685 73.3129 45.5306C73.7074 46.7927 74.2595 49.3169 76.626 52.3145C78.9924 55.3119 85.1452 57.3629 85.1452 57.3629C85.1452 57.3629 87.5905 58.7039 88.1428 59.335C88.6949 59.966 87.7485 54.2075 87.7485 54.2075C87.7485 54.2075 87.0385 48.5282 84.1988 46.2406Z" fill="#E74C3C"/>
<path d="M89.4049 65.2514C90.115 69.8266 90.5093 85.2875 89.9572 84.5775C89.4049 83.8677 86.4864 78.7402 85.4609 77.5569C84.4354 76.3739 83.4099 71.9562 82.779 70.2998C82.1478 68.6434 80.6703 63.4368 80.3336 58.4675C80.3336 58.4675 80.3336 56.3378 82.3844 57.1265C84.4354 57.9154 85.7764 59.1775 85.7764 59.1775C85.7764 59.1775 88.6951 60.6762 89.4049 65.2514Z" fill="#CACACA"/>
<path d="M89.7979 85.3676C87.0371 80.9503 84.1974 76.5329 83.6451 77.4004C83.093 78.2682 83.093 80.0037 83.093 80.0037C83.6929 82.2703 84.2931 83.6355 85.6172 86.1565C86.6038 90.3439 87.5656 92.5295 89.3247 96.411C89.2358 96.0204 95.0901 110.531 95.3986 111.004C95.707 111.478 95.5563 107.849 95.3986 106.508C95.2408 105.167 92.5589 89.785 89.7979 85.3676Z" fill="#CACACA"/>
<path d="M95.9506 101.381C97.1339 103.116 101.472 106.508 101.946 106.192C102.419 105.877 99.6581 99.7241 99.6581 99.7241C98.7399 97.1716 98.2907 95.3549 97.7648 90.4948C97.7648 90.4948 96.8184 84.8941 96.7393 84.2632C96.6604 83.6322 93.8208 77.637 92.8741 76.7694C91.9275 75.9017 91.9275 75.4282 91.2966 76.9272C90.6654 78.4259 90.6654 81.4235 90.6654 81.4235C90.6654 81.4235 90.8231 85.6041 92.0852 88.9172C93.3476 92.2303 94.7674 97.5154 94.7674 97.5154C94.7674 97.5154 94.7674 99.6452 95.9506 101.381Z" fill="#CACACA"/>
<path d="M57.6973 97.8168C57.6973 97.8168 57.4884 109.859 58.4862 110.569C59.4837 111.279 60.9826 110.411 60.9826 110.411C62.66 108.753 63.3089 106.662 64.9544 101.524C65.94 96.6366 66.6314 93.6777 66.3465 90.1381C66.0254 89.6917 64.9248 89.5342 64.9248 89.5342C64.9248 89.5342 59.1682 88.9548 58.4565 91.2424C57.7446 93.53 57.9423 93.4456 57.6973 97.8168Z" fill="#CACACA"/>
<path d="M69.667 88.9203C69.2662 98.3514 65.0974 106.333 64.2241 106.984C63.3509 107.636 67.3006 106.984 71.4814 102.015C75.6621 97.0452 76.9242 92.2334 76.9242 92.2334C77.4403 91.1712 76.5144 81.5304 75.6621 82.2941C74.8097 83.058 74.8011 84.9041 72.5858 86.5538C70.3703 88.2035 71.855 87.0422 70.7714 87.8948C70.4879 88.1178 69.6997 88.1526 69.667 88.9203Z" fill="#CACACA"/>
<path d="M69.9734 80.989C70.0294 85.3573 68.5575 85.1708 68.9479 85.8797C69.3383 86.5888 70.6832 87.8518 72.8131 84.7753C74.9429 81.6991 74.4443 81.7432 74.9429 80.989C75.4416 80.2349 75.2626 76.3366 76.1306 73.8122C76.9984 71.288 76.4664 71.1137 76.8404 69.5527C77.2144 67.9917 76.6782 63.0436 74.4697 62.7673C72.261 62.4911 69.7368 64.266 69.3422 65.3704C68.9479 66.4748 69.1766 67.9765 69.3422 69.5527C69.5081 71.1288 69.4563 73.0221 69.6579 75.0729C69.8593 77.1239 69.9172 76.621 69.9734 80.989Z" fill="#CACACA"/>
<path d="M68.1595 43.3636C69.2638 43.8368 71.078 45.8878 72.419 47.8599C73.7602 49.8321 75.8259 52.2653 76.8364 54.4859C78.501 56.2518 78.5458 56.5103 77.7042 57.4046C76.8626 58.2988 76.9153 58.1933 70.9991 61.2698C65.083 64.3461 58.3781 64.4252 57.9836 61.5064C57.5892 58.5879 57.9836 56.6158 57.9836 52.1983C57.9836 47.7811 58.1413 46.9921 59.798 44.8623C61.4546 42.7324 67.0551 42.8902 68.1595 43.3636Z" fill="#CACACA"/>
<path d="M67.0537 84.1439C66.896 82.7238 64.9238 79.5687 62.2419 80.0419C60.5598 80.3389 60.1188 80.4185 60.0238 80.4367C59.8934 80.4407 58.4344 80.5324 57.9824 82.5661C57.509 84.696 57.9824 86.3526 57.9824 86.3526C57.9824 86.3526 57.6667 88.798 60.7432 88.798C63.8195 88.798 63.6617 88.798 65.7127 88.1668C67.7637 87.5359 67.2114 85.5637 67.0537 84.1439Z" fill="#CACACA"/>
<path d="M67.6879 76.5709C67.4511 75.4665 65.2923 73.4946 63.6648 72.7057C62.0373 71.9168 61.8506 71.2859 60.5883 71.3648C59.3262 71.4436 58.3506 71.5225 57.8774 73.6524C57.404 75.7822 57.8774 78.4642 57.8774 78.4642C57.8774 78.4642 57.512 79.4108 60.5885 79.4108C63.6648 79.4108 63.9014 80.1206 65.7946 79.8051C67.6877 79.4894 67.9245 77.6753 67.6879 76.5709Z" fill="#CACACA"/>
<path d="M67.3706 69.7076C67.134 68.6032 66.0793 66.7102 64.4518 65.9213C62.8245 65.1324 61.9276 64.5015 60.7476 64.508C59.5674 64.5148 59.2457 64.028 58.2202 65.2901C57.1947 66.5522 57.0369 68.4455 58.0365 69.3198C59.0361 70.1943 58.4568 70.2597 60.4289 70.5754C62.401 70.8908 64.3729 73.0207 66.2662 72.7052C68.1595 72.3895 67.6072 70.812 67.3706 69.7076Z" fill="#CACACA"/>
<path d="M64.2948 34.6843C65.0048 35.473 75.5748 40.9948 74.7073 41.3891C73.8395 41.7837 64.2948 41.2314 62.1649 41.7837C60.035 42.3358 59.3252 43.9133 59.3252 43.9133C57.9504 45.8288 57.1954 45.2543 56.7222 43.6767C56.2487 42.0992 60.4296 30.4246 62.5595 29.4779C64.6891 28.5313 64.4525 28.6104 64.6891 29.8725C64.9259 31.1346 63.5847 33.8954 64.2948 34.6843Z" fill="#CACACA"/>
<path d="M55.8479 30.2575C51.5881 30.0997 48.3541 28.049 47.8018 27.1023C47.2495 26.1557 47.6427 19.5913 47.0129 18.583C46.3832 17.5747 45.2125 11.1278 47.8018 6.98736C50.2259 3.93671 51.4304 2.33331 56.1633 2.33331C60.8963 2.33331 61.4833 3.94023 63.8939 6.98736C66.3042 10.0345 65.7081 17.5578 64.9192 18.583C64.1305 19.6083 64.6037 26.1557 63.8939 27.1023C63.1839 28.049 60.1074 30.4154 55.8479 30.2575Z" fill="#CACACA"/>
<path d="M66.454 15.1356C66.3747 14.5838 64.8373 13.407 64.4968 14.0643C64.1564 14.7217 64.3022 20.0733 64.4978 20.1804C64.6935 20.2876 65.2934 20.1594 65.5965 20.0711C65.8994 19.9828 66.5331 15.6874 66.454 15.1356Z" fill="#CACACA"/>
<path d="M45.3306 14.9966C45.4099 14.4448 46.9474 13.268 47.2878 13.9253C47.6282 14.5827 47.4826 19.9343 47.2869 20.0415C47.0911 20.1486 46.4912 20.0205 46.1883 19.9322C45.8852 19.8438 45.2515 15.5485 45.3306 14.9966Z" fill="#CACACA"/>
</g>
</g>
<defs>
<clipPath id="clip0_1234_2196">
<rect width="112" height="112" rx="56" fill="white"/>
</clipPath>
</defs>
</svg>
