<svg width="112" height="112" viewBox="0 0 112 112" fill="none" xmlns="http://www.w3.org/2000/svg">
<g clip-path="url(#clip0_1234_2195)">
<rect width="112" height="112" rx="56" fill="white"/>
<mask id="mask0_1234_2195" style="mask-type:luminance" maskUnits="userSpaceOnUse" x="0" y="0" width="112" height="112">
<path d="M112 56C112 25.0721 86.9279 0 56 0C25.0721 0 0 25.0721 0 56C0 86.9279 25.0721 112 56 112C86.9279 112 112 86.9279 112 56Z" fill="white"/>
</mask>
<g mask="url(#mask0_1234_2195)">
<path d="M36.4084 123.702C36.6525 126.629 40.555 145.248 40.4738 142.809C40.3923 140.369 39.4168 128.418 40.1485 124.84C40.8802 121.263 41.4493 116.466 41.4493 111.1C41.4493 105.734 37.7907 104.352 37.7907 104.352C37.7907 104.352 35.6767 103.132 35.6767 106.303C35.6767 109.474 36.1646 120.775 36.4084 123.702Z" fill="#CACACA"/>
<path d="M41.7741 116.139C41.7741 116.139 41.4489 118.578 42.9935 117.847C44.5384 117.115 54.2136 112.887 54.7827 108.496C54.8546 107.943 55.0018 107.358 54.933 107.114C54.8641 106.87 54.4574 105.895 54.4574 105.895C51.8212 102.496 50.4833 99.3076 48.1157 93.4551C47.9481 92.581 47.7724 92.1652 46.3272 92.4795C42.0887 93.8807 40.2243 95.7873 38.034 101.667C38.034 101.667 37.4649 102.968 38.034 103.456C38.6031 103.943 39.4163 104.35 39.4163 104.35C39.4163 104.35 41.6115 106.627 41.7741 109.228C41.9365 111.83 41.7741 116.139 41.7741 116.139Z" fill="#CACACA"/>
<path d="M28.3633 43.9476C31.2902 41.5898 35.2921 39.2721 36.837 39.6786C38.3819 40.085 39.764 41.3861 39.764 41.3861C39.764 41.3861 42.0406 44.3942 41.2274 45.5324C40.4145 46.6706 39.0252 46.5894 36.1685 50.208C33.3118 53.8265 29.8258 54.5918 29.5818 54.6733C29.3379 54.7545 25.2728 55.2424 24.7046 54.8011C24.1365 54.3599 24.7046 52.1593 24.7046 52.1593C24.7046 52.1593 25.4364 46.3055 28.3633 43.9476Z" fill="#CACACA"/>
<path d="M54.7839 70.3645C54.7839 71.0962 55.629 102.031 55.1903 103.699C54.7517 105.368 51.2223 98.0681 49.7408 93.3737C48.2566 89.0743 47.0846 86.5193 46.8972 86.7881C44.2934 84.073 43.9703 85.2432 43.8076 84.5115C43.645 83.7797 43.9703 79.8772 45.3525 77.3568C46.7346 74.8363 48.0356 72.8849 48.93 71.9906C49.8241 71.0962 49.9868 70.9336 51.7755 69.2263C53.5642 67.5187 52.9951 67.6816 53.483 68.0881C53.9707 68.4945 54.7839 69.6327 54.7839 70.3645Z" fill="#CACACA"/>
<path d="M37.2227 85.8932C37.1413 87.3567 35.7593 98.7394 36.2472 98.902C36.7348 99.0647 39.2553 94.5114 42.4263 93.0479C45.5971 91.5845 45.9223 92.0724 47.0605 91.5033C48.1987 90.9342 44.7841 86.2997 44.1336 85.8932C43.4831 85.4868 42.4263 84.2671 42.4263 84.2671C42.4263 84.2671 45.2718 74.1041 45.9223 73.7788C46.5726 73.4538 41.9384 74.8358 40.1497 74.1041C38.3609 73.3723 36.2472 68.6567 35.7593 68.6567C35.2714 68.6567 37.7106 77.9254 38.0357 79.3888C38.3609 80.8523 38.0357 81.9907 38.0357 81.9907C37.7183 83.5146 37.3042 84.4298 37.2227 85.8932Z" fill="#CACACA"/>
<path d="M41.205 58.8203C41.205 58.8203 35.8391 57.3568 35.1885 57.0316C34.538 56.7065 34.7006 60.6902 34.7821 62.3978C34.8633 64.1053 35.9203 68.0078 36.9773 69.3898C38.0343 70.7721 39.4977 73.6178 42.8311 73.5364C46.1648 73.455 48.5224 71.1788 48.8476 70.7721C49.1729 70.3654 52.181 67.6825 52.4251 66.3003C52.6689 64.918 50.1485 62.2351 49.9858 61.9099C49.8234 61.5846 47.7094 58.0886 47.1403 58.2512C46.5712 58.4138 44.1378 58.9785 41.205 58.8203Z" fill="#CACACA"/>
<path d="M37.3868 50.2843C36.5738 51.5037 34.7851 54.512 34.9477 55.4876C35.1104 56.4634 38.6876 57.6828 40.5578 58.0895C42.4277 58.496 47.1434 58.0895 46.8181 57.2763C46.4931 56.4634 44.0538 53.1298 43.4847 51.9916C42.9156 50.8534 42.1839 47.2759 41.6148 46.7068C41.0457 46.1377 38.1999 49.0646 37.3868 50.2843Z" fill="#CACACA"/>
<path d="M25.4352 55.649C26.411 55.4052 29.3379 55.649 31.2078 54.9987C33.0778 54.3482 32.4275 54.267 33.1592 54.5108C33.8909 54.7549 33.8909 61.0152 33.8909 61.0152C33.8909 61.0152 33.7283 64.4301 33.1592 65.7309C32.5901 67.0317 30.7202 68.9019 30.0696 69.8775C29.4191 70.853 27.7118 76.6257 26.7362 76.5445C25.7604 76.4631 24.6222 76.5445 23.7279 75.894C22.8335 75.2434 22.9148 72.8044 22.9148 71.2595C22.9148 69.7148 23.7279 67.0317 23.7279 65.9747C23.7279 64.918 23.24 64.4301 23.1587 63.1292C23.0774 61.8284 24.4596 55.8931 25.4352 55.649Z" fill="#E74C3C"/>
<path d="M11.9712 105.081C13.1573 104.918 16.3281 106.056 16.6533 106.625C16.9786 107.194 16.6533 107.926 16.9786 109.634C17.3038 111.341 16.9308 110.659 17.1747 112.528C17.4186 114.398 15.6299 116.919 15.6299 116.919C15.6299 116.919 12.7029 120.008 11.4834 119.927C10.2638 119.846 13.6786 118.383 13.1908 114.724C12.7029 111.065 12.2964 111.065 11.9712 111.065C11.646 111.065 10.4264 111.797 10.0199 111.797C9.61336 111.797 8.39379 111.309 7.66206 110.821C6.9303 110.333 4.24727 110.658 3.51552 110.577C2.78378 110.496 8.27895 105.487 9.41729 105.406C10.5556 105.325 10.7851 105.243 11.9712 105.081Z" fill="#CACACA"/>
<path d="M10.0199 125.375C11.0768 124.562 13.4346 120.09 13.4346 119.683C13.4347 119.276 11.646 120.578 11.3207 120.74C10.9955 120.903 10.5077 119.928 10.3451 119.683C10.1825 119.439 11.7273 118.22 11.8899 117.976C12.0525 117.732 12.7029 116.106 12.6216 115.374C12.5403 114.642 12.3777 111.96 11.7273 111.96C11.0768 111.959 10.5077 112.284 10.0199 112.366C9.53203 112.448 7.33683 111.39 6.93029 111.309C6.52378 111.228 4.24726 110.903 3.43421 111.309C2.62116 111.716 -0.3058 112.773 -0.549713 113.179C-0.793626 113.586 0.344635 114.724 1.07638 114.805C1.80812 114.887 3.92204 114.155 3.92204 114.155C3.92204 114.155 6.76768 113.342 6.36117 114.155C5.95463 114.968 1.5642 122.529 1.4829 122.936C1.40159 123.342 1.23899 124.318 1.80812 124.399C2.37724 124.481 2.37724 124.236 2.78377 124.399C3.19029 124.562 2.37724 126.35 2.37724 126.35C2.37724 126.35 2.45855 127.407 3.02768 127.407C3.59682 127.407 4.34405 126.903 4.65378 126.35C4.9635 125.798 5.06029 126.513 5.06029 126.513C5.06029 126.513 5.38551 127.245 5.71073 127.407C6.03595 127.57 6.76768 127.245 7.0929 127.001C7.41812 126.757 8.8003 124.643 8.8003 124.643C8.8003 124.643 8.96291 126.188 10.0199 125.375Z" fill="#CACACA"/>
<path d="M14.4591 90.0414C13.89 92.7243 10.15 103.863 10.2313 104.351C10.3126 104.839 12.5891 104.107 14.4591 104.839C16.3292 105.57 16.8983 106.14 17.4674 105.977C18.0365 105.814 25.9231 87.2769 26.2484 86.2201C26.5734 85.1631 28.85 79.2278 29.1753 78.3335C29.5006 77.4391 29.663 76.3009 29.1753 75.7318C28.6874 75.1627 27.594 78.1783 26.4922 78.0082C25.3904 77.8381 25.2252 76.7582 24.5408 76.5447C23.8567 76.3315 22.6708 77.0326 22.3456 76.5447C22.0205 76.0571 22.427 71.9105 21.8578 72.0731C21.2886 72.2358 17.4674 78.0896 16.8982 79.4717C16.3291 80.8539 16.2478 84.5126 15.9226 85.8134C15.5973 87.1143 15.0282 87.3583 14.4591 90.0414Z" fill="#CACACA"/>
<path d="M30.0701 71.6674C30.0701 71.6674 28.6167 73.8059 28.5255 75.0008C28.4342 76.1957 30.8824 72.7804 31.2898 71.6674C31.2898 71.6674 32.9971 67.7647 32.9971 67.4394C32.9973 67.1144 30.0701 71.6674 30.0701 71.6674Z" fill="#E74C3C"/>
<path d="M51.1259 61.4224C53.4837 63.8614 55.0286 69.5527 55.0286 69.1462C55.0286 68.7397 55.4351 47.194 55.0286 45.324C54.6219 43.4541 52.9146 38.8196 51.1259 38.0879C49.3371 37.3562 44.3776 37.6814 43.158 37.7626C41.9386 37.8441 36.6536 39.0635 37.6294 39.2261C38.605 39.3887 40.9628 40.4457 41.9386 43.3727C42.9142 46.2996 43.158 49.5518 44.3776 51.9096C45.5973 54.2675 48.768 58.9831 51.1259 61.4224Z" fill="#CACACA"/>
<path d="M76.0517 123.702C75.8079 126.629 71.9052 145.248 71.9866 142.809C72.0678 140.369 73.0436 128.418 72.3119 124.84C71.5801 121.263 71.0108 116.466 71.0108 111.1C71.0108 105.734 74.6697 104.352 74.6697 104.352C74.6697 104.352 76.7835 103.132 76.7835 106.303C76.7835 109.474 76.2958 120.775 76.0517 123.702Z" fill="#CACACA"/>
<path d="M70.6862 116.139C70.6862 116.139 71.0115 118.578 69.4666 117.847C67.9219 117.115 58.2465 112.887 57.6774 108.496C57.6058 107.943 57.4583 107.358 57.5274 107.114C57.5962 106.87 58.0027 105.895 58.0027 105.895C60.6389 102.496 61.9771 99.3076 64.3445 93.4551C64.512 92.581 64.6879 92.1652 66.1332 92.4795C70.3717 93.8807 72.2358 95.7873 74.4263 101.667C74.4263 101.667 74.9954 102.968 74.4263 103.456C73.8572 103.943 73.0441 104.35 73.0441 104.35C73.0441 104.35 70.8489 106.627 70.6862 109.228C70.5236 111.83 70.6862 116.139 70.6862 116.139Z" fill="#CACACA"/>
<path d="M84.097 43.9476C81.1699 41.5898 77.168 39.2721 75.6233 39.6786C74.0784 40.085 72.6964 41.3861 72.6964 41.3861C72.6964 41.3861 70.4197 44.3942 71.2327 45.5324C72.0458 46.6706 73.4349 46.5894 76.2918 50.208C79.1485 53.8265 82.6345 54.5918 82.8783 54.6733C83.1224 54.7545 87.1875 55.2424 87.7557 54.8011C88.3236 54.3599 87.7557 52.1593 87.7557 52.1593C87.7557 52.1593 87.024 46.3055 84.097 43.9476Z" fill="#CACACA"/>
<path d="M57.6765 70.3645C57.6765 71.0962 56.8313 102.031 57.27 103.699C57.7087 105.368 61.2381 98.0681 62.7195 93.3737C64.2035 89.0743 65.3755 86.5193 65.5629 86.7881C68.1669 84.073 68.4898 85.2432 68.6525 84.5115C68.8151 83.7797 68.4898 79.8772 67.1078 77.3568C65.7255 74.8363 64.4247 72.8849 63.5303 71.9906C62.636 71.0962 62.4733 70.9336 60.6848 69.2263C58.8961 67.5187 59.4652 67.6816 58.9773 68.0881C58.4894 68.4945 57.6765 69.6327 57.6765 70.3645Z" fill="#CACACA"/>
<path d="M75.2376 85.8932C75.3188 87.3567 76.7011 98.7394 76.2132 98.902C75.7253 99.0647 73.2048 94.5114 70.0341 93.0479C66.8633 91.5845 66.538 92.0724 65.3996 91.5033C64.2614 90.9342 67.6762 86.2997 68.3268 85.8932C68.9771 85.4868 70.0341 84.2671 70.0341 84.2671C70.0341 84.2671 67.1883 74.1041 66.538 73.7788C65.8875 73.4538 70.522 74.8358 72.3107 74.1041C74.0992 73.3723 76.2132 68.6567 76.7011 68.6567C77.1888 68.6567 74.7497 77.9254 74.4245 79.3888C74.0992 80.8523 74.4245 81.9907 74.4245 81.9907C74.742 83.5146 75.1562 84.4298 75.2376 85.8932Z" fill="#CACACA"/>
<path d="M71.2553 58.8203C71.2553 58.8203 76.6213 57.3568 77.2718 57.0316C77.9221 56.7065 77.7595 60.6902 77.6783 62.3978C77.5971 64.1053 76.5401 68.0078 75.4831 69.3898C74.4261 70.7721 72.9626 73.6178 69.6292 73.5364C66.2956 73.455 63.9377 71.1788 63.6125 70.7721C63.2874 70.3654 60.2791 67.6825 60.0352 66.3003C59.7912 64.918 62.3116 62.2351 62.4743 61.9099C62.6369 61.5846 64.7509 58.0886 65.32 58.2512C65.8891 58.4138 68.3223 58.9785 71.2553 58.8203Z" fill="#CACACA"/>
<path d="M75.0734 50.2843C75.8865 51.5037 77.6753 54.512 77.5126 55.4876C77.35 56.4634 73.7725 57.6828 71.9026 58.0895C70.0324 58.496 65.3168 58.0895 65.642 57.2763C65.9673 56.4634 68.4063 53.1298 68.9757 51.9916C69.5448 50.8534 70.2765 47.2759 70.8456 46.7068C71.4147 46.1377 74.2604 49.0646 75.0734 50.2843Z" fill="#CACACA"/>
<path d="M87.0249 55.6498C86.0494 55.4059 83.1224 55.6498 81.2525 54.9992C79.3823 54.3489 80.0329 54.2675 79.3011 54.5116C78.5694 54.7554 78.5694 61.0157 78.5694 61.0157C78.5694 61.0157 78.732 64.4308 79.3011 65.7314C79.8702 67.0322 81.7402 68.9024 82.3907 69.878C83.041 70.8535 84.7485 76.6264 85.7241 76.545C86.6999 76.4636 87.8381 76.545 88.7325 75.8945C89.6268 75.2442 89.5454 72.8049 89.5454 71.2602C89.5454 69.7156 88.7325 67.0322 88.7325 65.9755C88.7325 64.9185 89.2201 64.4306 89.3016 63.1297C89.3828 61.8289 88.0007 55.8936 87.0249 55.6498Z" fill="#E74C3C"/>
<path d="M100.488 105.081C99.3017 104.918 96.131 106.056 95.8057 106.625C95.4804 107.194 95.8057 107.926 95.4804 109.634C95.1552 111.341 95.5283 110.659 95.2844 112.528C95.0406 114.398 96.8291 116.919 96.8291 116.919C96.8291 116.919 99.7563 120.008 100.976 119.927C102.195 119.846 98.7805 118.383 99.2684 114.724C99.7563 111.065 100.163 111.065 100.488 111.065C100.813 111.065 102.033 111.797 102.439 111.797C102.846 111.797 104.065 111.309 104.797 110.821C105.529 110.333 108.212 110.658 108.944 110.577C109.675 110.496 104.18 105.487 103.042 105.406C101.903 105.325 101.674 105.243 100.488 105.081Z" fill="#CACACA"/>
<path d="M102.44 125.375C101.383 124.562 99.0253 120.09 99.0253 119.683C99.0253 119.276 100.814 120.578 101.139 120.74C101.465 120.903 101.952 119.928 102.115 119.683C102.277 119.439 100.733 118.22 100.57 117.976C100.408 117.732 99.757 116.106 99.8384 115.374C99.9196 114.642 100.082 111.96 100.733 111.96C101.383 111.959 101.952 112.284 102.44 112.366C102.928 112.448 105.123 111.39 105.53 111.309C105.936 111.228 108.213 110.903 109.026 111.309C109.839 111.716 112.766 112.773 113.01 113.179C113.254 113.586 112.115 114.724 111.384 114.805C110.652 114.887 108.538 114.155 108.538 114.155C108.538 114.155 105.692 113.342 106.099 114.155C106.505 114.968 110.896 122.529 110.977 122.936C111.059 123.342 111.221 124.318 110.652 124.399C110.083 124.481 110.083 124.236 109.676 124.399C109.27 124.562 110.083 126.35 110.083 126.35C110.083 126.35 110.002 127.407 109.432 127.407C108.863 127.407 108.116 126.903 107.806 126.35C107.496 125.798 107.4 126.513 107.4 126.513C107.4 126.513 107.075 127.245 106.749 127.407C106.424 127.57 105.692 127.245 105.367 127.001C105.042 126.757 103.66 124.643 103.66 124.643C103.66 124.643 103.497 126.188 102.44 125.375Z" fill="#CACACA"/>
<path d="M98.0023 90.0414C98.5714 92.7243 102.312 103.863 102.23 104.351C102.149 104.839 99.8723 104.107 98.0023 104.839C96.1322 105.57 95.5633 106.14 94.994 105.977C94.4249 105.814 86.5384 87.2769 86.2132 86.2201C85.8879 85.1631 83.6115 79.2278 83.2862 78.3335C82.961 77.4391 82.7983 76.3009 83.2862 75.7318C83.7741 75.1627 84.8675 78.1783 85.9693 78.0082C87.0709 77.8381 87.2363 76.7582 87.9205 76.5447C88.6048 76.3315 89.7906 77.0326 90.1159 76.5447C90.4409 76.0571 90.0345 71.9105 90.6036 72.0731C91.1729 72.2358 94.994 78.0896 95.5633 79.4717C96.1324 80.8539 96.2136 84.5126 96.5389 85.8134C96.8641 87.1143 97.4332 87.3583 98.0023 90.0414Z" fill="#CACACA"/>
<path d="M82.39 71.6674C82.39 71.6674 83.8437 73.8059 83.9349 75.0008C84.0261 76.1957 81.578 72.7804 81.1706 71.6674C81.1706 71.6674 79.4631 67.7647 79.4631 67.4394C79.4631 67.1144 82.39 71.6674 82.39 71.6674Z" fill="#E74C3C"/>
<path d="M61.3342 61.4224C58.9766 63.8614 57.4317 69.5527 57.4317 69.1462C57.4317 68.7397 57.0253 47.194 57.4317 45.324C57.8382 43.4541 59.5457 38.8196 61.3342 38.0879C63.123 37.3562 68.0827 37.6814 69.3021 37.7626C70.5217 37.8441 75.8065 39.0635 74.8309 39.2261C73.8551 39.3887 71.4973 40.4457 70.5217 43.3727C69.5462 46.2996 69.3021 49.5518 68.0827 51.9096C66.8631 54.2675 63.6921 58.9831 61.3342 61.4224Z" fill="#CACACA"/>
<path fill-rule="evenodd" clip-rule="evenodd" d="M54.7029 2.39479C53.6548 2.6047 52.1292 3.15611 51.3035 3.62378C49.689 4.53828 47.7461 6.89206 47.1695 8.63228C46.7878 9.78422 46.413 12.1266 46.4114 13.3693C46.4098 14.8337 46.879 18.3134 47.2859 19.8523C47.5118 20.7073 47.7064 22.2145 48.0151 25.5038C48.1495 26.9341 48.1838 27.033 48.706 27.4932C49.0082 27.7596 49.3019 27.9787 49.3584 27.9801C49.4149 27.9815 49.5131 27.4283 49.5766 26.7507C49.7273 25.1423 50.3806 22.7251 50.9075 21.826C51.8663 20.1897 52.8766 19.4547 54.8672 18.9448C56.5299 18.5188 58.5261 18.8848 60.0927 19.903C61.5888 20.8754 62.6913 23.302 63.0432 26.3972C63.1426 27.2692 63.2679 27.9827 63.3218 27.9827C63.3759 27.9827 63.6827 27.7421 64.0036 27.4484C64.5689 26.9306 64.5902 26.8683 64.6889 25.4564C64.8258 23.4941 65.1999 20.7398 65.5713 18.958C66.5243 14.3875 66.4722 11.1118 65.4033 8.39162C64.9957 7.35436 63.8463 5.63166 63.0483 4.86187C62.1833 4.02721 60.6786 3.15774 59.4225 2.76668C58.3758 2.44064 55.576 2.22014 54.7029 2.39479ZM44.3961 16.2754C44.0727 16.6333 43.8081 16.9497 43.8081 16.9784C43.8081 17.007 44.0181 17.4641 44.2748 17.9942C44.5314 18.5243 45.0053 19.5149 45.3283 20.1954C45.6512 20.8761 46.0229 21.5225 46.1547 21.6317C46.4296 21.8599 47.0603 21.715 47.0603 21.4238C47.0603 21.1927 46.2385 17.8971 45.8472 16.5595C45.5117 15.4128 45.2261 15.3568 44.3961 16.2754ZM66.7417 16.8847C66.3892 18.0482 66.126 19.0871 65.7629 20.7466C65.5926 21.5251 65.8905 21.9973 66.3733 21.7143C66.6087 21.5761 68.8023 17.4237 68.8382 17.0478C68.8613 16.8057 67.6667 15.6245 67.3986 15.6245C67.1967 15.6245 67.0217 15.9596 66.7417 16.8847ZM54.8655 19.6692C54.5524 19.7385 53.9954 19.9508 53.6275 20.1411C52.8887 20.5227 52.8698 20.578 52.6638 22.9419C52.5639 24.0884 52.3539 25.4664 51.9335 27.7389C51.6889 29.0591 51.3284 30.2556 51.0272 30.747C50.8587 31.0216 50.8135 31.048 50.8877 30.8284C51.3427 29.4842 51.8583 25.6018 51.9839 22.5773C52.0396 21.2337 52.0273 21.1698 51.7592 21.4122C51.3256 21.8046 50.6436 23.3597 50.3069 24.724C50.1307 25.4387 49.962 26.8996 49.9028 28.2268C49.6774 33.2843 49.3304 33.8258 44.7025 36.3461C44.2419 36.5969 44.4285 36.6083 48.0359 36.5498C50.7927 36.505 51.9932 36.4261 52.3451 36.267C53.7017 35.6531 54.7155 34.4103 55.3224 32.6172C55.6747 31.5763 56.1589 28.7429 56.1778 27.6103C56.1962 26.5008 56.4667 26.1048 56.4802 27.1672C56.4956 28.3637 56.9504 31.4729 57.2364 32.3374C57.6256 33.5134 58.2619 34.6313 58.9125 35.2818C60.0698 36.4392 60.1956 36.4679 64.5234 36.5614C67.4 36.6233 68.3788 36.5971 68.2943 36.4604C68.2316 36.3589 68.1102 36.2758 68.0244 36.2758C67.6795 36.2758 64.9752 34.6192 64.1905 33.9273C63.0686 32.938 62.8586 32.2763 62.6654 29.1209C62.4846 26.1674 62.3163 24.951 61.9348 23.8361C61.5659 22.7575 60.9688 21.5901 60.6508 21.3264C60.4252 21.139 60.3941 21.1837 60.3941 21.696C60.3941 22.729 60.9838 28.3789 61.1606 29.0397C61.2085 29.2187 61.1931 29.3134 61.1266 29.2504C61.0598 29.1874 60.9394 28.7851 60.8587 28.356C60.3724 25.7737 60.0808 23.8107 59.9821 22.454C59.92 21.6044 59.8068 20.7904 59.7305 20.645C59.654 20.4997 59.252 20.2211 58.8369 20.0261C58.009 19.637 55.8761 19.4453 54.8655 19.6692Z" fill="#CACACA"/>
<path d="M54.7972 36.0773C53.4963 37.2967 52.7646 37.9472 52.602 37.9472C52.4393 37.9472 53.984 39.0042 54.7972 40.4677C55.6101 41.9312 56.2606 45.5086 56.2606 45.5086C56.2606 45.5086 56.9924 41.5247 57.8867 40.3051C58.7811 39.0857 59.9193 38.1099 59.9193 37.9472C59.9193 37.7846 58.9437 37.3781 57.7241 36.0773C56.5045 34.7765 56.5859 31.3616 56.2606 31.2802C55.9354 31.199 56.098 34.8577 54.7972 36.0773Z" fill="#CACACA"/>
</g>
</g>
<defs>
<clipPath id="clip0_1234_2195">
<rect width="112" height="112" rx="56" fill="white"/>
</clipPath>
</defs>
</svg>
