<svg width="112" height="112" viewBox="0 0 112 112" fill="none" xmlns="http://www.w3.org/2000/svg">
<g clip-path="url(#clip0_1234_2200)">
<rect width="112" height="112" rx="56" fill="white"/>
<mask id="mask0_1234_2200" style="mask-type:luminance" maskUnits="userSpaceOnUse" x="0" y="0" width="112" height="112">
<path d="M112 56C112 25.0721 86.9279 0 56 0C25.0721 0 0 25.0721 0 56C0 86.9279 25.0721 112 56 112C86.9279 112 112 86.9279 112 56Z" fill="white"/>
</mask>
<g mask="url(#mask0_1234_2200)">
<path d="M54.2859 31.4634C53.1816 31.2268 53.2215 31.3754 53.6548 32.1732C54.7323 34.4545 55.1259 36.068 55.6269 39.2726C55.9657 40.2131 56.1559 40.0174 56.4947 39.2726C56.8381 36.3629 57.1774 34.7839 58.3877 32.1732C58.9283 31.4363 58.7965 31.2676 57.6779 31.4634C56.455 31.699 55.3903 31.6997 54.2859 31.4634Z" fill="#CACACA"/>
<path d="M53.3155 115.529C53.3946 116.396 52.6052 143.611 52.1323 139.667C51.6593 135.723 35.9613 96.2815 39.2744 102.277C42.5875 108.272 53.2362 114.661 53.3155 115.529Z" fill="#CACACA"/>
<path d="M37.4624 138.562C37.4624 138.562 41.0909 163.569 41.6432 163.805C42.1953 164.041 46.5339 156.075 47.5592 151.578C48.5847 147.081 48.1903 134.777 47.9537 132.41C47.7171 130.042 39.0427 104.727 38.5667 102.829C38.0907 100.93 36.372 97.475 36.0425 98.4113C35.7131 99.3477 33.8275 116.754 34.3859 115.923C34.6094 123.231 35.1106 127.915 37.4624 138.562Z" fill="#CACACA"/>
<path d="M32.2852 63.9809C31.9697 64.9276 28.42 75.7344 28.8932 76.1287C29.3666 76.5233 29.9187 75.2612 31.1019 72.8947C32.2852 70.528 33.4684 64.691 33.3107 64.2175C33.1529 63.7443 32.6009 63.0343 32.2852 63.9809Z" fill="#E74C3C"/>
<path d="M28.2627 46.3118C31.1024 44.0242 34.6521 41.4211 36.151 41.8154C37.6497 42.21 39.1484 43.8664 39.1484 43.8664C39.1484 43.8664 39.5428 44.3396 39.1484 45.6017C38.7541 46.8638 38.2018 49.3883 35.8353 52.3857C33.4689 55.3833 27.3161 57.4341 27.3161 57.4341C27.3161 57.4341 24.8708 58.775 24.3187 59.4062C23.7664 60.0374 24.713 54.2789 24.713 54.2789C24.713 54.2789 25.4231 48.5994 28.2627 46.3118Z" fill="#CACACA"/>
<path d="M23.0575 65.3198C22.3476 69.895 21.9532 85.3559 22.5054 84.6458C23.0575 83.936 25.9763 78.8085 27.0016 77.6253C28.0271 76.4423 29.0526 72.0246 29.6837 70.3682C30.3147 68.7117 31.7921 63.5051 32.1291 58.5358C32.1291 58.5358 32.1291 56.4062 30.0781 57.1949C28.0271 57.9838 26.6861 59.2459 26.6861 59.2459C26.6861 59.2459 23.7673 60.7446 23.0575 65.3198Z" fill="#E74C3C"/>
<path d="M22.6625 85.4366C25.4233 81.0191 28.2632 76.6016 28.8153 77.4694C29.3673 78.3372 29.3673 80.0725 29.3673 80.0725C28.7674 82.3393 28.1673 83.7043 26.8431 86.2253C25.8566 90.4129 24.895 92.5985 23.1357 96.48C23.2246 96.0892 17.3703 110.6 17.0618 111.073C16.7533 111.547 16.9041 107.918 17.0618 106.577C17.2196 105.236 19.9016 89.8538 22.6625 85.4366Z" fill="#CACACA"/>
<path d="M16.511 101.449C15.3278 103.184 10.9893 106.576 10.516 106.261C10.0427 105.945 12.8036 99.7924 12.8036 99.7924C13.7217 97.24 14.1709 95.4233 14.6967 90.5632C14.6967 90.5632 15.6433 84.9625 15.7222 84.3315C15.8011 83.7006 18.6408 77.7053 19.5874 76.8378C20.534 75.97 20.534 75.4966 21.1651 76.9955C21.7961 78.4942 21.7961 81.4919 21.7961 81.4919C21.7961 81.4919 21.6384 85.6725 20.3763 88.9856C19.1141 92.2987 17.6943 97.5837 17.6943 97.5837C17.6943 97.5837 17.6943 99.7136 16.511 101.449Z" fill="#CACACA"/>
<path d="M11.5968 107.69C12.3855 107.375 16.0142 102.957 16.3297 103.51C16.6453 104.062 15.3832 111.24 15.8564 112.581C16.3297 113.922 16.4086 113.528 16.6453 115.342C16.8819 117.156 15.1465 119.602 15.1465 119.602C15.1465 119.602 12.3067 122.599 11.1235 122.52C9.94028 122.441 13.2533 121.021 12.78 117.472C12.3067 113.922 11.9123 113.922 11.5968 113.922C11.2813 113.922 10.098 114.632 9.70363 114.632C9.30923 114.632 8.126 114.159 7.41606 113.685C6.70612 113.212 4.103 113.527 3.39306 113.449C2.68312 113.37 7.88928 108.479 8.99369 108.4C10.0981 108.321 10.8081 108.006 11.5968 107.69Z" fill="#CACACA"/>
<path d="M100.881 107.69C100.093 107.375 96.464 102.957 96.1485 103.51C95.833 104.062 97.0951 111.24 96.6217 112.581C96.1485 113.922 96.0696 113.528 95.833 115.342C95.5962 117.156 97.3317 119.602 97.3317 119.602C97.3317 119.602 100.171 122.599 101.355 122.52C102.538 122.441 99.225 121.021 99.6982 117.472C100.171 113.922 100.566 113.922 100.881 113.922C101.197 113.922 102.38 114.632 102.775 114.632C103.169 114.632 104.352 114.159 105.062 113.685C105.772 113.212 108.375 113.527 109.085 113.449C109.795 113.37 104.589 108.479 103.484 108.4C102.38 108.321 101.67 108.006 100.881 107.69Z" fill="#CACACA"/>
<path d="M54.764 97.8875C54.764 97.8875 54.9726 109.929 53.9751 110.639C52.9774 111.349 51.4787 110.481 51.4787 110.481C49.8013 108.824 49.1524 106.732 47.5069 101.595C46.5213 96.7073 45.8299 93.7484 46.1148 90.2087C46.4359 89.7621 47.5365 89.6049 47.5365 89.6049C47.5365 89.6049 53.2931 89.0255 54.0048 91.3131C54.7167 93.6005 54.519 93.5162 54.764 97.8875Z" fill="#CACACA"/>
<path d="M42.7943 88.9891C43.1951 98.4202 47.3639 106.402 48.2372 107.053C49.1106 107.705 45.1607 107.053 40.9801 102.084C36.7992 97.114 35.5371 92.3022 35.5371 92.3022C35.0212 91.2401 35.9469 81.5995 36.7992 82.3632C37.6516 83.1269 37.6602 84.9732 39.8757 86.6229C42.0912 88.2723 40.6063 87.111 41.6901 87.9639C41.9734 88.1869 42.7618 88.2215 42.7943 88.9891Z" fill="#CACACA"/>
<path d="M42.4881 81.0597C42.4319 85.4277 43.904 85.2415 43.5136 85.9504C43.1233 86.6593 41.7781 87.9225 39.6482 84.846C37.5186 81.7698 38.0172 81.8139 37.5186 81.0597C37.0197 80.3056 37.1987 76.4071 36.3309 73.8829C35.4632 71.3587 35.9952 71.1841 35.6209 69.6234C35.2469 68.0624 35.7831 63.1143 37.9918 62.838C40.2005 62.5615 42.7247 64.3367 43.1191 65.4411C43.5136 66.5455 43.285 68.0472 43.1191 69.6234C42.9534 71.1995 43.005 73.0926 42.8036 75.1436C42.6022 77.1946 42.5441 76.6915 42.4881 81.0597Z" fill="#CACACA"/>
<path d="M44.3021 43.4319C43.1977 43.9051 41.3833 45.9561 40.0423 47.9283C38.7014 49.9004 36.6357 52.3336 35.6249 54.5542C33.9605 56.3201 33.9155 56.5786 34.7573 57.473C35.599 58.3671 35.546 58.2617 41.4622 61.3382C47.3783 64.4144 54.0834 64.4935 54.4777 61.5748C54.8723 58.6562 54.4777 56.6841 54.4777 52.2666C54.4777 47.8492 54.3202 47.0605 52.6636 44.9306C51.0069 42.8008 45.4064 42.9585 44.3021 43.4319Z" fill="#CACACA"/>
<path d="M45.4055 84.2128C45.5632 82.793 47.5351 79.6376 50.2173 80.111C51.8994 80.4078 52.3404 80.4874 52.4354 80.5056C52.5658 80.5098 54.0248 80.6013 54.4768 82.6352C54.9502 84.7651 54.4768 86.4215 54.4768 86.4215C54.4768 86.4215 54.7923 88.8669 51.716 88.8669C48.6395 88.8669 48.7972 88.8669 46.7465 88.2359C44.6955 87.6048 45.2478 85.6329 45.4055 84.2128Z" fill="#CACACA"/>
<path d="M44.7736 76.6416C45.0102 75.5372 47.1693 73.5653 48.7965 72.7764C50.424 71.9875 50.6109 71.3566 51.873 71.4354C53.1351 71.5143 54.1107 71.5932 54.5841 73.723C55.0573 75.8527 54.5841 78.5348 54.5841 78.5348C54.5841 78.5348 54.9495 79.4812 51.873 79.4812C48.7965 79.4812 48.5599 80.1913 46.6669 79.8756C44.7736 79.5601 44.537 77.7459 44.7736 76.6416Z" fill="#CACACA"/>
<path d="M45.0896 69.7788C45.3262 68.6744 46.3808 66.7814 48.0083 65.9925C49.6356 65.2036 50.5325 64.5726 51.7125 64.5792C52.8927 64.5859 53.2145 64.0992 54.24 65.3613C55.2655 66.6236 55.4232 68.5167 54.4236 69.391C53.424 70.2655 54.0034 70.3311 52.0312 70.6465C50.0591 70.962 48.0872 73.0919 46.1939 72.7764C44.3007 72.4607 44.853 70.8831 45.0896 69.7788Z" fill="#CACACA"/>
<path d="M48.1656 34.7554C47.4556 35.5443 36.8853 41.0659 37.7531 41.4603C38.6209 41.8548 48.1656 41.3025 50.2952 41.8548C52.4251 42.4069 53.1351 43.9847 53.1351 43.9847C54.5097 45.9001 55.265 45.3257 55.7382 43.7479C56.2114 42.1703 52.0308 30.4957 49.9009 29.5491C47.771 28.6027 48.0079 28.6815 47.771 29.9436C47.5344 31.2057 48.8754 33.9665 48.1656 34.7554Z" fill="#CACACA"/>
<path d="M59.1449 115.461C59.0655 116.328 59.8551 143.542 60.3281 139.598C60.8011 135.654 76.4988 96.2131 73.1859 102.208C69.8728 108.203 59.224 114.593 59.1449 115.461Z" fill="#CACACA"/>
<path d="M74.9989 138.494C74.9989 138.494 71.3704 163.5 70.8181 163.736C70.266 163.972 65.9274 156.006 64.9019 151.51C63.8766 147.013 64.271 134.708 64.5076 132.341C64.7442 129.974 73.4186 104.659 73.8946 102.76C74.3706 100.862 76.0893 97.4066 76.4188 98.343C76.7482 99.2794 78.6338 116.686 78.0754 115.855C77.8519 123.163 77.3507 127.847 74.9989 138.494Z" fill="#CACACA"/>
<path d="M80.1761 63.9109C80.4918 64.8576 84.0413 75.6644 83.5681 76.0587C83.0949 76.4531 82.5426 75.1912 81.3594 72.8245C80.1761 70.458 78.9929 64.6207 79.1506 64.1475C79.3086 63.6743 79.8607 62.9643 80.1761 63.9109Z" fill="#E74C3C"/>
<path d="M84.1997 46.2411C81.3601 43.9535 77.8104 41.3504 76.3117 41.7447C74.813 42.1393 73.314 43.7957 73.314 43.7957C73.314 43.7957 72.9197 44.2692 73.314 45.5313C73.7086 46.7934 74.2607 49.3176 76.6271 52.315C78.9936 55.3126 85.1464 57.3636 85.1464 57.3636C85.1464 57.3636 87.5917 58.7046 88.144 59.3355C88.6961 59.9667 87.7494 54.2082 87.7494 54.2082C87.7494 54.2082 87.0396 48.5287 84.1997 46.2411Z" fill="#CACACA"/>
<path d="M89.4038 65.2514C90.1138 69.8266 90.5081 85.2875 89.9561 84.5775C89.4038 83.8677 86.4852 78.7402 85.4597 77.5569C84.4342 76.3739 83.4087 71.9562 82.7778 70.2998C82.1466 68.6434 80.6694 63.4368 80.3325 58.4675C80.3325 58.4675 80.3325 56.3378 82.3835 57.1265C84.4342 57.9154 85.7752 59.1775 85.7752 59.1775C85.7752 59.1775 88.694 60.6762 89.4038 65.2514Z" fill="#E74C3C"/>
<path d="M89.7979 85.3676C87.0371 80.9503 84.1974 76.5329 83.6451 77.4004C83.093 78.2682 83.093 80.0037 83.093 80.0037C83.6929 82.2703 84.2931 83.6355 85.6172 86.1565C86.6038 90.3439 87.5656 92.5295 89.3247 96.411C89.2358 96.0204 95.0901 110.531 95.3986 111.004C95.707 111.478 95.5563 107.849 95.3986 106.508C95.2408 105.167 92.5589 89.785 89.7979 85.3676Z" fill="#CACACA"/>
<path d="M95.9506 101.381C97.1339 103.116 101.472 106.508 101.946 106.192C102.419 105.877 99.6581 99.7241 99.6581 99.7241C98.7399 97.1716 98.2907 95.3549 97.7648 90.4948C97.7648 90.4948 96.8184 84.8941 96.7393 84.2632C96.6604 83.6322 93.8208 77.637 92.8741 76.7694C91.9275 75.9017 91.9275 75.4282 91.2966 76.9272C90.6654 78.4259 90.6654 81.4235 90.6654 81.4235C90.6654 81.4235 90.8231 85.6041 92.0852 88.9172C93.3476 92.2303 94.7674 97.5154 94.7674 97.5154C94.7674 97.5154 94.7674 99.6452 95.9506 101.381Z" fill="#CACACA"/>
<path d="M57.6963 97.8168C57.6963 97.8168 57.4875 109.859 58.4852 110.569C59.4827 111.279 60.9814 110.411 60.9814 110.411C62.6589 108.753 63.3078 106.662 64.9535 101.524C65.9388 96.6366 66.6302 93.6777 66.3455 90.1381C66.0245 89.6917 64.9238 89.5342 64.9238 89.5342C64.9238 89.5342 59.1673 88.9548 58.4554 91.2424C57.7437 93.53 57.9411 93.4456 57.6963 97.8168Z" fill="#CACACA"/>
<path d="M69.667 88.9203C69.2662 98.3514 65.0974 106.333 64.2241 106.984C63.3509 107.636 67.3006 106.984 71.4814 102.015C75.6621 97.0452 76.9242 92.2334 76.9242 92.2334C77.4403 91.1712 76.5144 81.5304 75.6621 82.2941C74.8097 83.058 74.8011 84.9041 72.5858 86.5538C70.3703 88.2035 71.855 87.0422 70.7714 87.8948C70.4879 88.1178 69.6997 88.1526 69.667 88.9203Z" fill="#CACACA"/>
<path d="M69.9746 80.9886C70.0306 85.3566 68.5587 85.1704 68.9491 85.8793C69.3394 86.5881 70.6844 87.8514 72.8142 84.7749C74.9441 81.6984 74.4452 81.7427 74.9441 80.9886C75.4427 80.2345 75.2638 76.3359 76.1315 73.8117C76.9995 71.2875 76.4675 71.113 76.8416 69.552C77.2156 67.9912 76.6794 63.0432 74.4707 62.7667C72.2622 62.4904 69.7377 64.2654 69.3434 65.3697C68.9491 66.4741 69.1777 67.9758 69.3434 69.552C69.5093 71.1282 69.4575 73.0214 69.6589 75.0724C69.8605 77.1232 69.9183 76.6204 69.9746 80.9886Z" fill="#CACACA"/>
<path d="M68.1606 43.3636C69.265 43.8368 71.0792 45.8878 72.4201 47.8599C73.7611 49.8321 75.827 52.2653 76.8376 54.4859C78.5022 56.2518 78.547 56.5103 77.7054 57.4046C76.8637 58.2988 76.9165 58.1933 71.0003 61.2698C65.0841 64.3461 58.3791 64.4252 57.9847 61.5064C57.5904 58.5879 57.9847 56.6158 57.9847 52.1983C57.9847 47.7811 58.1425 46.9921 59.7991 44.8623C61.4558 42.7324 67.0563 42.8902 68.1606 43.3636Z" fill="#CACACA"/>
<path d="M67.0546 84.1439C66.8969 82.7238 64.925 79.5687 62.2428 80.0419C60.5607 80.3389 60.1197 80.4185 60.0248 80.4367C59.8943 80.4407 58.4353 80.5324 57.9833 82.5661C57.5099 84.696 57.9833 86.3526 57.9833 86.3526C57.9833 86.3526 57.6679 88.798 60.7441 88.798C63.8206 88.798 63.6629 88.798 65.7137 88.1668C67.7647 87.5359 67.2126 85.5637 67.0546 84.1439Z" fill="#CACACA"/>
<path d="M67.6879 76.5709C67.4511 75.4665 65.2923 73.4946 63.6648 72.7057C62.0373 71.9168 61.8506 71.2859 60.5883 71.3648C59.3262 71.4436 58.3506 71.5225 57.8774 73.6524C57.404 75.7822 57.8774 78.4642 57.8774 78.4642C57.8774 78.4642 57.512 79.4108 60.5885 79.4108C63.6648 79.4108 63.9014 80.1206 65.7946 79.8051C67.6877 79.4894 67.9245 77.6753 67.6879 76.5709Z" fill="#CACACA"/>
<path d="M67.3703 69.7081C67.1337 68.604 66.0793 66.7107 64.4518 65.9218C62.8243 65.1329 61.9276 64.502 60.7474 64.5087C59.5674 64.5153 59.2457 64.0288 58.2202 65.2909C57.1947 66.553 57.0369 68.446 58.0363 69.3205C59.0359 70.1948 58.4568 70.2604 60.4289 70.5759C62.4008 70.8913 64.3729 73.0212 66.266 72.7057C68.1592 72.3903 67.6072 70.8125 67.3703 69.7081Z" fill="#CACACA"/>
<path d="M64.2973 34.6836C65.0074 35.4725 75.5774 40.9941 74.7098 41.3886C73.8421 41.783 64.2973 41.2309 62.1675 41.783C60.0376 42.3353 59.3278 43.9128 59.3278 43.9128C57.953 45.8283 57.1979 45.2538 56.7247 43.6762C56.2513 42.0984 60.4322 30.4241 62.562 29.4774C64.6917 28.5308 64.4551 28.6097 64.6917 29.8718C64.9285 31.1339 63.5873 33.8947 64.2973 34.6836Z" fill="#CACACA"/>
<path d="M55.8502 30.2575C51.5905 30.0997 48.3565 28.049 47.8042 27.1023C47.2521 26.1557 47.6453 19.5913 47.0155 18.583C46.3857 17.5747 45.2149 11.1278 47.8042 6.98736C50.2285 3.93671 51.4327 2.33331 56.1657 2.33331C60.8986 2.33331 61.4857 3.94023 63.8962 6.98736C66.3068 10.0345 65.7104 17.5578 64.9217 18.583C64.1328 19.6083 64.606 26.1557 63.8962 27.1023C63.1862 28.049 60.1099 30.4154 55.8502 30.2575Z" fill="#CACACA"/>
<path d="M66.4538 15.1356C66.3747 14.5838 64.837 13.407 64.4968 14.0643C64.1564 14.7217 64.302 20.0733 64.4978 20.1804C64.6933 20.2876 65.2934 20.1594 65.5963 20.0711C65.8992 19.9828 66.5331 15.6874 66.4538 15.1356Z" fill="#CACACA"/>
<path d="M45.3285 14.9966C45.4076 14.4448 46.945 13.268 47.2855 13.9253C47.6259 14.5827 47.4803 19.9343 47.2845 20.0415C47.0888 20.1486 46.4889 20.0205 46.186 19.9322C45.8831 19.8438 45.2492 15.5485 45.3285 14.9966Z" fill="#CACACA"/>
</g>
</g>
<defs>
<clipPath id="clip0_1234_2200">
<rect width="112" height="112" rx="56" fill="white"/>
</clipPath>
</defs>
</svg>
