<svg width="112" height="112" viewBox="0 0 112 112" fill="none" xmlns="http://www.w3.org/2000/svg">
<g clip-path="url(#clip0_1234_2197)">
<rect width="112" height="112" rx="56" fill="white"/>
<mask id="mask0_1234_2197" style="mask-type:luminance" maskUnits="userSpaceOnUse" x="0" y="0" width="112" height="112">
<path d="M112 56C112 25.0721 86.9279 0 56 0C25.0721 0 0 25.0721 0 56C0 86.9279 25.0721 112 56 112C86.9279 112 112 86.9279 112 56Z" fill="white"/>
</mask>
<g mask="url(#mask0_1234_2197)">
<path d="M54.2857 31.4634C53.1813 31.2268 53.2212 31.3754 53.6548 32.1732C54.7323 34.4545 55.1259 36.068 55.6267 39.2726C55.9657 40.2131 56.1556 40.0174 56.4944 39.2726C56.8379 36.3629 57.1772 34.7839 58.3877 32.1732C58.9283 31.4363 58.7965 31.2676 57.6777 31.4634C56.4548 31.699 55.3901 31.6997 54.2857 31.4634Z" fill="#CACACA"/>
<path d="M53.3143 115.529C53.3934 116.396 52.6041 143.611 52.1311 139.667C51.6581 135.723 35.9602 96.2815 39.2733 102.277C42.5864 108.272 53.2352 114.661 53.3143 115.529Z" fill="#CACACA"/>
<path d="M37.4614 138.562C37.4614 138.562 41.09 163.569 41.6421 163.805C42.1944 164.041 46.5327 156.075 47.5582 151.578C48.5837 147.081 48.1894 134.777 47.9528 132.41C47.716 130.042 39.0418 104.727 38.5658 102.829C38.0898 100.93 36.3711 97.475 36.0416 98.4113C35.7119 99.3477 33.8263 116.754 34.3849 115.923C34.6085 123.231 35.1097 127.915 37.4614 138.562Z" fill="#CACACA"/>
<path d="M32.2856 63.9809C31.9699 64.9276 28.4202 75.7344 28.8937 76.1287C29.3669 76.5233 29.9192 75.2612 31.1024 72.8947C32.2856 70.528 33.4689 64.691 33.3109 64.2175C33.1532 63.7443 32.6011 63.0343 32.2856 63.9809Z" fill="#CACACA"/>
<path d="M28.2627 46.3118C31.1024 44.0242 34.6521 41.4211 36.151 41.8154C37.6497 42.21 39.1484 43.8664 39.1484 43.8664C39.1484 43.8664 39.5428 44.3396 39.1484 45.6017C38.7541 46.8638 38.2018 49.3883 35.8353 52.3857C33.4689 55.3833 27.3161 57.4341 27.3161 57.4341C27.3161 57.4341 24.8708 58.775 24.3187 59.4062C23.7664 60.0374 24.713 54.2789 24.713 54.2789C24.713 54.2789 25.4231 48.5994 28.2627 46.3118Z" fill="#CACACA"/>
<path d="M23.0564 65.3198C22.3465 69.895 21.9521 85.3559 22.5042 84.6458C23.0564 83.936 25.9751 78.8085 27.0004 77.6253C28.0259 76.4423 29.0514 72.0246 29.6826 70.3682C30.3135 68.7117 31.791 63.5051 32.1279 58.5358C32.1279 58.5358 32.1279 56.4062 30.0769 57.1949C28.0259 57.9838 26.6849 59.2459 26.6849 59.2459C26.6849 59.2459 23.7664 60.7446 23.0564 65.3198Z" fill="#CACACA"/>
<path d="M22.6623 85.4366C25.4233 81.0191 28.263 76.6016 28.815 77.4694C29.3673 78.3372 29.3673 80.0725 29.3673 80.0725C28.7674 82.3393 28.1673 83.7043 26.8431 86.2253C25.8564 90.4129 24.8948 92.5985 23.1356 96.48C23.2245 96.0892 17.3702 110.6 17.0617 111.073C16.7532 111.547 16.9039 107.918 17.0617 106.577C17.2195 105.236 19.9014 89.8538 22.6623 85.4366Z" fill="#CACACA"/>
<path d="M16.5109 101.449C15.3276 103.184 10.9891 106.576 10.5158 106.261C10.0426 105.945 12.8034 99.7924 12.8034 99.7924C13.7216 97.24 14.1707 95.4233 14.6966 90.5632C14.6966 90.5632 15.6431 84.9625 15.722 84.3315C15.801 83.7006 18.6407 77.7053 19.5873 76.8378C20.5339 75.97 20.5339 75.4966 21.1649 76.9955C21.796 78.4942 21.796 81.4919 21.796 81.4919C21.796 81.4919 21.6383 85.6725 20.3761 88.9856C19.114 92.2987 17.6941 97.5837 17.6941 97.5837C17.6941 97.5837 17.6941 99.7136 16.5109 101.449Z" fill="#CACACA"/>
<path d="M11.5957 107.69C12.3844 107.375 16.0131 102.957 16.3286 103.51C16.6441 104.062 15.382 111.24 15.8553 112.581C16.3286 113.922 16.4075 113.528 16.6441 115.342C16.8808 117.156 15.1454 119.602 15.1454 119.602C15.1454 119.602 12.3056 122.599 11.1224 122.52C9.93914 122.441 13.2522 121.021 12.7789 117.472C12.3056 113.922 11.9112 113.922 11.5957 113.922C11.2801 113.922 10.0969 114.632 9.70249 114.632C9.30808 114.632 8.12485 114.159 7.41491 113.685C6.70497 113.212 4.10186 113.527 3.39192 113.449C2.68198 113.37 7.88814 108.479 8.99255 108.4C10.097 108.321 10.8069 108.006 11.5957 107.69Z" fill="#CACACA"/>
<path d="M100.88 107.69C100.092 107.375 96.4628 102.957 96.1473 103.51C95.8319 104.062 97.094 111.24 96.6205 112.581C96.1473 113.922 96.0685 113.528 95.8319 115.342C95.5953 117.156 97.3306 119.602 97.3306 119.602C97.3306 119.602 100.17 122.599 101.353 122.52C102.537 122.441 99.2238 121.021 99.697 117.472C100.17 113.922 100.565 113.922 100.88 113.922C101.196 113.922 102.379 114.632 102.774 114.632C103.168 114.632 104.351 114.159 105.061 113.685C105.771 113.212 108.374 113.527 109.084 113.449C109.794 113.37 104.588 108.479 103.483 108.4C102.379 108.321 101.669 108.006 100.88 107.69Z" fill="#CACACA"/>
<path d="M54.764 97.8875C54.764 97.8875 54.9729 109.929 53.9754 110.639C52.9776 111.349 51.4789 110.481 51.4789 110.481C49.8015 108.824 49.1526 106.732 47.5069 101.595C46.5215 96.7073 45.8302 93.7484 46.1148 90.2087C46.4359 89.7621 47.5365 89.6049 47.5365 89.6049C47.5365 89.6049 53.2931 89.0255 54.005 91.3131C54.7167 93.6005 54.5193 93.5162 54.764 97.8875Z" fill="#E74C3C"/>
<path d="M42.7933 88.9891C43.194 98.4202 47.3629 106.402 48.2361 107.053C49.1094 107.705 45.1598 107.053 40.9789 102.084C36.7983 97.114 35.5362 92.3022 35.5362 92.3022C35.0201 91.2401 35.9459 81.5995 36.7983 82.3632C37.6507 83.1269 37.6591 84.9732 39.8746 86.6229C42.0901 88.2723 40.6051 87.111 41.689 87.9639C41.9725 88.1869 42.7607 88.2215 42.7933 88.9891Z" fill="#CACACA"/>
<path d="M42.487 81.0593C42.4307 85.4273 43.9028 85.2408 43.5125 85.9499C43.1221 86.6588 41.7769 87.9218 39.6471 84.8456C37.5174 81.7691 38.0161 81.8132 37.5174 81.0593C37.0186 80.3051 37.1975 76.4066 36.3298 73.8824C35.462 71.3582 35.994 71.1837 35.6197 69.6227C35.2457 68.0617 35.7819 63.1136 37.9906 62.8373C40.1994 62.5611 42.7236 64.336 43.1179 65.4404C43.5125 66.5448 43.2838 68.0465 43.1179 69.6227C42.9522 71.1988 43.004 73.0921 42.8024 75.1431C42.6011 77.1939 42.543 76.691 42.487 81.0593Z" fill="#CACACA"/>
<path d="M44.2983 43.4319C43.194 43.9051 41.3796 45.9561 40.0386 47.9283C38.6976 49.9004 36.6319 52.3336 35.6214 54.5542C33.9568 56.3201 33.912 56.5786 34.7536 57.473C35.5952 58.3671 35.5423 58.2617 41.4584 61.3382C47.3746 64.4144 54.0797 64.4935 54.474 61.5748C54.8686 58.6562 54.474 56.6841 54.474 52.2666C54.474 47.8492 54.3165 47.0605 52.6598 44.9306C51.0032 42.8008 45.4027 42.9585 44.2983 43.4319Z" fill="#CACACA"/>
<path d="M45.4067 84.2128C45.5644 82.793 47.5363 79.6376 50.2185 80.111C51.9006 80.4078 52.3416 80.4874 52.4363 80.5056C52.567 80.5098 54.026 80.6013 54.478 82.6352C54.9514 84.7651 54.478 86.4215 54.478 86.4215C54.478 86.4215 54.7934 88.8669 51.7172 88.8669C48.6407 88.8669 48.7984 88.8669 46.7476 88.2359C44.6966 87.6048 45.2487 85.6329 45.4067 84.2128Z" fill="#E74C3C"/>
<path d="M44.7748 76.6416C45.0114 75.5372 47.1702 73.5653 48.7977 72.7764C50.4252 71.9875 50.6121 71.3566 51.8742 71.4354C53.1363 71.5143 54.1119 71.5932 54.5853 73.723C55.0585 75.8527 54.5853 78.5348 54.5853 78.5348C54.5853 78.5348 54.9505 79.4812 51.8742 79.4812C48.7977 79.4812 48.5611 80.1913 46.6681 79.8756C44.7748 79.5601 44.5382 77.7459 44.7748 76.6416Z" fill="#E74C3C"/>
<path d="M45.0898 69.7788C45.3264 68.6744 46.3808 66.7814 48.0083 65.9925C49.6358 65.2036 50.5325 64.5726 51.7127 64.5792C52.8927 64.5859 53.2147 64.0992 54.24 65.3613C55.2655 66.6236 55.4232 68.5167 54.4238 69.391C53.4242 70.2655 54.0034 70.3311 52.0315 70.6465C50.0593 70.962 48.0872 73.0919 46.1942 72.7764C44.3009 72.4607 44.8532 70.8831 45.0898 69.7788Z" fill="#E74C3C"/>
<path d="M48.1644 34.7554C47.4544 35.5443 36.8842 41.0659 37.7519 41.4603C38.6197 41.8548 48.1644 41.3025 50.2943 41.8548C52.4239 42.4069 53.134 43.9847 53.134 43.9847C54.5085 45.9001 55.2638 45.3257 55.737 43.7479C56.2105 42.1703 52.0296 30.4957 49.8997 29.5491C47.7699 28.6027 48.0067 28.6815 47.7699 29.9436C47.5333 31.2057 48.8742 33.9665 48.1644 34.7554Z" fill="#CACACA"/>
<path d="M59.1449 115.461C59.0655 116.328 59.8551 143.542 60.3281 139.598C60.8011 135.654 76.4988 96.2131 73.1859 102.208C69.8728 108.203 59.224 114.593 59.1449 115.461Z" fill="#CACACA"/>
<path d="M74.9978 138.494C74.9978 138.494 71.3692 163.5 70.8171 163.736C70.2648 163.972 65.9262 156.006 64.901 151.51C63.8755 147.013 64.2698 134.708 64.5064 132.341C64.743 129.974 73.4174 104.659 73.8934 102.76C74.3694 100.862 76.0881 97.4066 76.4176 98.343C76.7471 99.2794 78.6326 116.686 78.0743 115.855C77.8507 123.163 77.3495 127.847 74.9978 138.494Z" fill="#CACACA"/>
<path d="M80.1738 63.9109C80.4895 64.8576 84.0392 75.6644 83.5658 76.0587C83.0926 76.4531 82.5403 75.1912 81.357 72.8245C80.1738 70.458 78.9906 64.6207 79.1485 64.1475C79.3063 63.6743 79.8583 62.9643 80.1738 63.9109Z" fill="#CACACA"/>
<path d="M84.1976 46.2411C81.3577 43.9535 77.808 41.3504 76.3093 41.7447C74.8106 42.1393 73.3119 43.7957 73.3119 43.7957C73.3119 43.7957 72.9174 44.2692 73.3119 45.5313C73.7063 46.7934 74.2583 49.3176 76.6248 52.315C78.9913 55.3126 85.144 57.3636 85.144 57.3636C85.144 57.3636 87.5896 58.7046 88.1417 59.3355C88.6937 59.9667 87.7473 54.2082 87.7473 54.2082C87.7473 54.2082 87.0373 48.5287 84.1976 46.2411Z" fill="#CACACA"/>
<path d="M89.4028 65.2514C90.1126 69.8266 90.5072 85.2875 89.9549 84.5775C89.4028 83.8677 86.4841 78.7402 85.4586 77.5569C84.4331 76.3739 83.4078 71.9562 82.7766 70.2998C82.1457 68.6434 80.6682 63.4368 80.3313 58.4675C80.3313 58.4675 80.3313 56.3378 82.3823 57.1265C84.4331 57.9154 85.7743 59.1775 85.7743 59.1775C85.7743 59.1775 88.6928 60.6762 89.4028 65.2514Z" fill="#CACACA"/>
<path d="M89.7979 85.3676C87.0371 80.9503 84.1974 76.5329 83.6451 77.4004C83.093 78.2682 83.093 80.0037 83.093 80.0037C83.6929 82.2703 84.2931 83.6355 85.6172 86.1565C86.6038 90.3439 87.5656 92.5295 89.3247 96.411C89.2358 96.0204 95.0901 110.531 95.3986 111.004C95.707 111.478 95.5563 107.849 95.3986 106.508C95.2408 105.167 92.5589 89.785 89.7979 85.3676Z" fill="#CACACA"/>
<path d="M95.9483 101.381C97.1315 103.116 101.47 106.508 101.943 106.192C102.417 105.877 99.6557 99.7241 99.6557 99.7241C98.7376 97.1716 98.2884 95.3549 97.7625 90.4948C97.7625 90.4948 96.8161 84.8941 96.7372 84.2632C96.6581 83.6322 93.8184 77.637 92.8718 76.7694C91.9252 75.9017 91.9252 75.4282 91.2942 76.9272C90.6631 78.4259 90.6631 81.4235 90.6631 81.4235C90.6631 81.4235 90.8208 85.6041 92.0831 88.9172C93.3452 92.2303 94.7651 97.5154 94.7651 97.5154C94.7651 97.5154 94.7651 99.6452 95.9483 101.381Z" fill="#CACACA"/>
<path d="M57.697 97.8168C57.697 97.8168 57.4882 109.859 58.4859 110.569C59.4834 111.279 60.9821 110.411 60.9821 110.411C62.6596 108.753 63.3085 106.662 64.9542 101.524C65.9395 96.6366 66.6311 93.6777 66.3462 90.1381C66.0252 89.6917 64.9245 89.5342 64.9245 89.5342C64.9245 89.5342 59.168 88.9548 58.4561 91.2424C57.7444 93.53 57.942 93.4456 57.697 97.8168Z" fill="#E74C3C"/>
<path d="M69.6659 88.9203C69.265 98.3514 65.0963 106.333 64.2231 106.984C63.3498 107.636 67.2994 106.984 71.4803 102.015C75.6609 97.0452 76.923 92.2334 76.923 92.2334C77.4391 91.1712 76.5133 81.5304 75.6609 82.2941C74.8085 83.058 74.7999 84.9041 72.5846 86.5538C70.3691 88.2035 71.8538 87.0422 70.7702 87.8948C70.4867 88.1178 69.6985 88.1526 69.6659 88.9203Z" fill="#CACACA"/>
<path d="M69.9734 80.9886C70.0294 85.3566 68.5575 85.1704 68.9479 85.8793C69.3383 86.5881 70.6832 87.8514 72.8131 84.7749C74.9429 81.6984 74.4443 81.7427 74.9429 80.9886C75.4416 80.2345 75.2626 76.3359 76.1306 73.8117C76.9984 71.2875 76.4664 71.113 76.8404 69.552C77.2144 67.9912 76.6782 63.0432 74.4697 62.7667C72.261 62.4904 69.7368 64.2654 69.3422 65.3697C68.9479 66.4741 69.1766 67.9758 69.3422 69.552C69.5081 71.1282 69.4563 73.0214 69.6579 75.0724C69.8593 77.1232 69.9172 76.6204 69.9734 80.9886Z" fill="#CACACA"/>
<path d="M68.1606 43.3636C69.265 43.8368 71.0792 45.8878 72.4201 47.8599C73.7611 49.8321 75.827 52.2653 76.8376 54.4859C78.5022 56.2518 78.547 56.5103 77.7054 57.4046C76.8637 58.2988 76.9165 58.1933 71.0003 61.2698C65.0841 64.3461 58.3791 64.4252 57.9847 61.5064C57.5904 58.5879 57.9847 56.6158 57.9847 52.1983C57.9847 47.7811 58.1425 46.9921 59.7991 44.8623C61.4558 42.7324 67.0563 42.8902 68.1606 43.3636Z" fill="#CACACA"/>
<path d="M67.0549 84.1439C66.8971 82.7238 64.925 79.5687 62.2431 80.0419C60.5607 80.3389 60.12 80.4185 60.025 80.4367C59.8946 80.4407 58.4355 80.5324 57.9833 82.5661C57.5101 84.696 57.9833 86.3526 57.9833 86.3526C57.9833 86.3526 57.6679 88.798 60.7444 88.798C63.8206 88.798 63.6629 88.798 65.7139 88.1668C67.7649 87.5359 67.2126 85.5637 67.0549 84.1439Z" fill="#E74C3C"/>
<path d="M67.6856 76.5709C67.449 75.4665 65.2899 73.4946 63.6624 72.7057C62.0349 71.9168 61.8483 71.2859 60.5862 71.3648C59.3241 71.4436 58.3483 71.5225 57.8751 73.6524C57.4016 75.7822 57.8751 78.4642 57.8751 78.4642C57.8751 78.4642 57.5097 79.4108 60.5862 79.4108C63.6624 79.4108 63.8993 80.1206 65.7923 79.8051C67.6856 79.4894 67.9222 77.6753 67.6856 76.5709Z" fill="#E74C3C"/>
<path d="M67.3706 69.7081C67.134 68.604 66.0793 66.7107 64.4518 65.9218C62.8245 65.1329 61.9276 64.502 60.7476 64.5087C59.5674 64.5153 59.2457 64.0288 58.2202 65.2909C57.1947 66.553 57.0369 68.446 58.0365 69.3205C59.0361 70.1948 58.4568 70.2604 60.4289 70.5759C62.401 70.8913 64.3729 73.0212 66.2662 72.7057C68.1595 72.3903 67.6072 70.8125 67.3706 69.7081Z" fill="#E74C3C"/>
<path d="M64.2959 34.6836C65.006 35.4725 75.576 40.9941 74.7084 41.3886C73.8407 41.783 64.2959 41.2309 62.1661 41.783C60.0362 42.3353 59.3264 43.9128 59.3264 43.9128C57.9516 45.8283 57.1965 45.2538 56.7233 43.6762C56.2499 42.0984 60.4308 30.4241 62.5604 29.4774C64.6903 28.5308 64.4537 28.6097 64.6903 29.8718C64.9269 31.1339 63.5859 33.8947 64.2959 34.6836Z" fill="#CACACA"/>
<path d="M55.849 30.2575C51.5893 30.0997 48.3551 28.049 47.803 27.1023C47.2507 26.1557 47.6439 19.5913 47.0141 18.583C46.3843 17.5747 45.2137 11.1278 47.803 6.98736C50.2271 3.93671 51.4316 2.33331 56.1645 2.33331C60.8974 2.33331 61.4845 3.94023 63.8948 6.98736C66.3054 10.0345 65.7092 17.5578 64.9203 18.583C64.1317 19.6083 64.6049 26.1557 63.8948 27.1023C63.185 28.049 60.1085 30.4154 55.849 30.2575Z" fill="#CACACA"/>
<path d="M66.454 15.1356C66.3747 14.5838 64.8373 13.407 64.4968 14.0643C64.1564 14.7217 64.3022 20.0733 64.4978 20.1804C64.6935 20.2876 65.2934 20.1594 65.5965 20.0711C65.8994 19.9828 66.5331 15.6874 66.454 15.1356Z" fill="#CACACA"/>
<path d="M45.3294 14.9966C45.4088 14.4448 46.9462 13.268 47.2866 13.9253C47.6271 14.5827 47.4815 19.9343 47.2857 20.0415C47.0899 20.1486 46.49 20.0205 46.1872 19.9322C45.8841 19.8438 45.2503 15.5485 45.3294 14.9966Z" fill="#CACACA"/>
</g>
</g>
<defs>
<clipPath id="clip0_1234_2197">
<rect width="112" height="112" rx="56" fill="white"/>
</clipPath>
</defs>
</svg>
